<svg width="72" height="66" viewBox="0 0 72 66" fill="none" xmlns="http://www.w3.org/2000/svg">
<g id="Group">
<g id="Group_2">
<path id="Vector" d="M9.95812 4.95703H5.60156C5.01895 4.95703 4.54688 5.42925 4.54688 6.01172V46.3556C4.54688 46.9381 5.01895 47.4103 5.60156 47.4103H66.3994C66.982 47.4103 67.4541 46.9381 67.4541 46.3556V6.01172C67.4541 5.42925 66.982 4.95703 66.3994 4.95703H14.88C14.2974 4.95703 13.8253 5.42925 13.8253 6.01172C13.8253 6.59419 14.2974 7.06641 14.88 7.06641H65.3447V45.3009H6.65625V7.06641H9.95812C10.5407 7.06641 11.0128 6.59419 11.0128 6.01172C11.0128 5.42925 10.5406 4.95703 9.95812 4.95703Z" fill="#2D75B4"/>
<path id="Vector_2" d="M68.1047 0.410156H3.89531C1.74741 0.410156 0 2.15827 0 4.30688V48.0595C0 50.2074 1.74741 51.9548 3.89531 51.9548H26.5285L25.4375 58.9369H22.9317C22.3491 58.9369 21.877 59.4091 21.877 59.9916V64.538C21.877 65.1204 22.3491 65.5927 22.9317 65.5927H49.0683C49.6509 65.5927 50.123 65.1204 50.123 64.538V59.9916C50.123 59.4091 49.6509 58.9369 49.0683 58.9369H46.5625L45.4715 51.9548H56.3303C56.9129 51.9548 57.385 51.4826 57.385 50.9002C57.385 50.3177 56.9129 49.8455 56.3303 49.8455H3.89531C2.91052 49.8455 2.10938 49.0443 2.10938 48.0595V4.30688C2.10938 3.32138 2.91052 2.51953 3.89531 2.51953H68.1047C69.0895 2.51953 69.8906 3.32138 69.8906 4.30688V48.0595C69.8906 49.0442 69.0895 49.8455 68.1047 49.8455H61.252C60.6694 49.8455 60.1973 50.3177 60.1973 50.9002C60.1973 51.4826 60.6694 51.9548 61.252 51.9548H68.1047C70.2526 51.9548 72 50.2074 72 48.0595V4.30688C72 2.15827 70.2526 0.410156 68.1047 0.410156ZM44.4274 58.9369H42.5798C41.9972 58.9369 41.5252 59.4091 41.5252 59.9916C41.5252 60.574 41.9972 61.0462 42.5798 61.0462H45.6539C45.6555 61.0462 45.6569 61.0464 45.6584 61.0464C45.6593 61.0464 45.6602 61.0462 45.6611 61.0462H48.0135V63.4833H23.9864V61.0462H26.3388C26.3396 61.0462 26.3406 61.0464 26.3415 61.0464C26.343 61.0464 26.3444 61.0462 26.346 61.0462H37.6578C38.2404 61.0462 38.7125 60.574 38.7125 59.9916C38.7125 59.4091 38.2404 58.9369 37.6578 58.9369H27.5723L28.6633 51.9548H43.3363L44.4274 58.9369Z" fill="#2D75B4"/>
<path id="Vector_3" d="M15.5746 22.8558C15.1325 21.5366 13.8856 20.5829 12.4194 20.5829C10.5845 20.5829 9.0918 22.0756 9.0918 23.9105C9.0918 25.7453 10.5845 27.2381 12.4194 27.2381C13.8856 27.2381 15.1323 26.2845 15.5746 24.9652H22.4877C22.56 25.8871 22.7265 26.7998 22.9829 27.6857H21.9369C21.4886 27.6857 21.0895 27.9689 20.9414 28.3919L20.1943 30.5267H20.1203C19.6782 29.2075 18.4313 28.2538 16.9651 28.2538C15.1302 28.2538 13.6375 29.7466 13.6375 31.5814C13.6375 33.4163 15.1302 34.909 16.9651 34.909C18.4313 34.909 19.678 33.9555 20.1203 32.6361H20.9427C21.391 32.6361 21.7901 32.3529 21.9382 31.9299L22.6853 29.7951H23.7889C23.854 29.9301 23.921 30.0642 23.9907 30.197C24.394 30.9652 24.2515 31.895 23.6359 32.5107C22.634 33.5126 22.634 35.143 23.6361 36.1451L25.1865 37.6955C25.6867 38.1959 26.3756 38.475 27.0842 38.46C27.3136 38.4552 27.5365 38.4204 27.7484 38.3577V39.4418C27.7484 40.8589 28.9012 42.0117 30.3183 42.0117H41.6825C43.0996 42.0117 44.2524 40.8589 44.2524 39.4418V38.3577C44.4643 38.4204 44.6872 38.4552 44.9166 38.46C45.6234 38.4736 46.3141 38.1959 46.8142 37.6955L48.3648 36.145C49.3668 35.143 49.3668 33.5126 48.3648 32.5105C47.7489 31.8947 47.6055 30.9668 48.0074 30.2018C48.078 30.0673 48.146 29.9316 48.212 29.7951H49.3153L50.0625 31.9299C50.2106 32.3529 50.6098 32.6361 51.058 32.6361H51.8803C52.3225 33.9553 53.5694 34.909 55.0355 34.909C56.8704 34.909 58.3631 33.4163 58.3631 31.5814C58.3631 29.7466 56.8704 28.2538 55.0355 28.2538C53.5694 28.2538 52.3226 29.2074 51.8803 30.5267H51.8064L51.0592 28.3919C50.9111 27.9689 50.5119 27.6857 50.0637 27.6857H49.0185C49.2747 26.8002 49.4401 25.8884 49.5123 24.9652H56.4262C56.8683 26.2844 58.1152 27.2381 59.5814 27.2381C61.4163 27.2381 62.909 25.7453 62.909 23.9105C62.909 22.0756 61.4163 20.5829 59.5814 20.5829C58.1152 20.5829 56.8684 21.5364 56.4262 22.8558H49.5139C49.4422 21.9274 49.2747 21.017 49.0181 20.1353H50.0639C50.5122 20.1353 50.9113 19.852 51.0594 19.429L51.8065 17.2942H51.8805C52.3226 18.6134 53.5695 19.5671 55.0357 19.5671C56.8706 19.5671 58.3633 18.0744 58.3633 16.2395C58.3633 14.4046 56.8706 12.9119 55.0357 12.9119C53.5695 12.9119 52.3227 13.8655 51.8805 15.1848H51.0581C50.6098 15.1848 50.2107 15.4681 50.0626 15.8911L49.3155 18.0259H48.2048C47.5301 16.6366 46.6155 15.3565 45.4809 14.2441C40.1536 8.98454 31.6355 9.14302 26.491 14.2502C25.3599 15.3638 24.4495 16.6397 23.7805 18.0259H22.6855L21.9383 15.8911C21.7902 15.4681 21.391 15.1848 20.9428 15.1848H20.1205C19.6783 13.8656 18.4314 12.9119 16.9653 12.9119C15.1304 12.9119 13.6376 14.4046 13.6376 16.2395C13.6376 18.0744 15.1304 19.5671 16.9653 19.5671C18.4314 19.5671 19.6782 18.6136 20.1205 17.2942H20.1944L20.9416 19.429C21.0896 19.852 21.4889 20.1353 21.937 20.1353H22.9749C22.7213 21.0156 22.5562 21.926 22.4853 22.8558H15.5746ZM16.9653 32.7995C16.2936 32.7995 15.747 32.2531 15.747 31.5813C15.747 30.9095 16.2936 30.3631 16.9653 30.3631C17.6369 30.3631 18.1833 30.9095 18.1833 31.5813C18.1833 32.2531 17.6369 32.7995 16.9653 32.7995ZM55.0355 30.3632C55.7072 30.3632 56.2538 30.9097 56.2538 31.5814C56.2538 32.2532 55.7072 32.7997 55.0355 32.7997C54.3639 32.7997 53.8174 32.2532 53.8174 31.5814C53.8174 30.9097 54.3639 30.3632 55.0355 30.3632ZM55.0355 15.0213C55.7072 15.0213 56.2538 15.5678 56.2538 16.2395C56.2538 16.9113 55.7072 17.4578 55.0355 17.4578C54.3639 17.4578 53.8174 16.9113 53.8174 16.2395C53.8174 15.5678 54.3639 15.0213 55.0355 15.0213ZM16.9653 17.4576C16.2936 17.4576 15.747 16.9111 15.747 16.2394C15.747 15.5676 16.2936 15.0211 16.9653 15.0211C17.6369 15.0211 18.1833 15.5676 18.1833 16.2394C18.1833 16.9111 17.6369 17.4576 16.9653 17.4576ZM12.4194 25.1286C11.7478 25.1286 11.2012 24.5821 11.2012 23.9103C11.2012 23.2386 11.7478 22.6921 12.4194 22.6921C13.091 22.6921 13.6375 23.2386 13.6375 23.9103C13.6375 24.5821 13.0912 25.1286 12.4194 25.1286ZM59.5814 22.6922C60.253 22.6922 60.7996 23.2387 60.7996 23.9105C60.7996 24.5822 60.253 25.1287 59.5814 25.1287C58.9098 25.1287 58.3633 24.5822 58.3633 23.9105C58.3633 23.2387 58.9096 22.6922 59.5814 22.6922ZM27.9707 15.7534C30.1732 13.5849 33.0893 12.4156 36.1839 12.4658C42.2837 12.5612 47.2276 17.4094 47.4394 23.5029C47.5084 25.4945 47.0593 27.4717 46.1403 29.2205C45.306 30.8078 45.6006 32.7293 46.8732 34.002C47.0528 34.1816 47.0528 34.4738 46.8734 34.6534L45.3227 36.2039C45.2281 36.2987 45.0901 36.3527 44.96 36.3509C44.8575 36.3488 44.7754 36.3146 44.7152 36.2493C44.298 35.7962 43.6587 35.6476 43.0859 35.8713C42.5133 36.0949 42.1432 36.6365 42.1432 37.2511V39.4417C42.1432 39.6956 41.9365 39.9022 41.6826 39.9022H39.7542V38.3999C39.7542 37.8174 39.2822 37.3452 38.6996 37.3452C38.1169 37.3452 37.6449 37.8174 37.6449 38.3999V39.9022H34.3561V38.3999C34.3561 37.8174 33.884 37.3452 33.3014 37.3452C32.7188 37.3452 32.2467 37.8174 32.2467 38.3999V39.9022H30.3183C30.0643 39.9022 29.8578 39.6956 29.8578 39.4417V37.2511C29.8578 36.6365 29.4876 36.0949 28.915 35.8713C28.738 35.8023 28.5547 35.7688 28.3735 35.7688C27.9683 35.7688 27.5739 35.9364 27.2856 36.2495C27.2255 36.3146 27.1433 36.3488 27.0409 36.3509C26.9063 36.353 26.773 36.2987 26.6781 36.2039L25.1277 34.6534C24.9481 34.4738 24.9481 34.1816 25.1277 34.002C26.3998 32.7299 26.6936 30.8066 25.8585 29.2163C24.9933 27.5681 24.5545 25.7829 24.5545 23.9103C24.5542 20.8193 25.7675 17.9224 27.9707 15.7534Z" fill="#2D75B4"/>
<path id="Vector_4" d="M40.5467 31.7841C42.5092 31.7841 44.1059 30.1875 44.1059 28.2249C44.1059 28.109 44.1083 27.9871 44.1107 27.8617C44.1298 26.8555 44.1558 25.4775 43.1139 24.7502C42.396 24.249 41.4312 24.2448 40.1643 24.7374C39.1331 25.1385 36.9873 25.9731 36.9873 28.2249C36.9873 30.1875 38.5841 31.7841 40.5467 31.7841ZM40.929 26.7035C41.4147 26.5145 41.6878 26.4806 41.8211 26.4806C41.8574 26.4806 41.8833 26.4831 41.9003 26.4856C42.0227 26.7112 42.0086 27.456 42.0016 27.8217C41.9989 27.9609 41.9965 28.0964 41.9965 28.225C41.9965 29.0245 41.3461 29.6749 40.5467 29.6749C39.7471 29.6749 39.0967 29.0245 39.0967 28.225C39.0967 27.7126 39.3965 27.2994 40.929 26.7035Z" fill="#2D75B4"/>
<path id="Vector_5" d="M27.8941 28.2248C27.8941 30.1874 29.4907 31.7841 31.4533 31.7841C33.4158 31.7841 35.0126 30.1874 35.0126 28.2248C35.0126 25.973 32.8668 25.1384 31.8356 24.7373C30.5689 24.2449 29.6039 24.249 28.886 24.7501C27.8441 25.4775 27.8702 26.8554 27.8893 27.8616C27.8918 27.987 27.8941 28.1091 27.8941 28.2248ZM30.0996 26.4856C30.1795 26.4738 30.4533 26.4631 31.0709 26.7033C32.6033 27.2994 32.9031 27.7125 32.9031 28.2248C32.9031 29.0243 32.2527 29.6747 31.4531 29.6747C30.6537 29.6747 30.0033 29.0243 30.0033 28.2248C30.0033 28.0962 30.0008 27.9609 29.9982 27.8215C29.9913 27.4559 29.9773 26.7112 30.0996 26.4856Z" fill="#2D75B4"/>
</g>
</g>
</svg>
