<svg width="72" height="36" viewBox="0 0 72 36" fill="none" xmlns="http://www.w3.org/2000/svg">
<g id="Group">
<path id="Vector" d="M67.5616 0.598633H4.43836C1.99106 0.598633 0 2.58969 0 5.03699V18.5634C0 21.0107 1.99106 23.0018 4.43836 23.0018H43.8904C44.474 23.0018 44.9472 22.5286 44.9472 21.945C44.9472 21.3614 44.474 20.8883 43.8904 20.8883H4.43836C3.15645 20.8883 2.1135 19.8453 2.1135 18.5634V5.03699C2.1135 3.75508 3.15645 2.71214 4.43836 2.71214H67.5616C68.8436 2.71214 69.8865 3.75508 69.8865 5.03699V15.1818C69.8865 15.7654 70.3596 16.2386 70.9432 16.2386C71.5269 16.2386 72 15.7654 72 15.1818V5.03699C72 2.58969 70.0089 0.598633 67.5616 0.598633Z" fill="#2D75B4"/>
<path id="Vector_2" d="M67.4915 17.681V16.3095C67.4915 11.376 63.4778 7.3623 58.5443 7.3623C53.6109 7.3623 49.5972 11.376 49.5972 16.3095V17.681C48.2882 18.1231 47.3428 19.3619 47.3428 20.8183V32.0903C47.3428 33.9161 48.8281 35.4014 50.6539 35.4014H66.4347C68.2605 35.4014 69.7459 33.9161 69.7459 32.0903V20.8183C69.7459 19.3619 68.8005 18.1231 67.4915 17.681ZM58.5443 9.47581C62.3124 9.47581 65.378 12.5414 65.378 16.3095V17.5071H51.7107V16.3095C51.7107 12.5414 54.7762 9.47581 58.5443 9.47581ZM67.6324 32.0903C67.6324 32.7507 67.0951 33.2879 66.4347 33.2879H50.6539C49.9935 33.2879 49.4563 32.7507 49.4563 32.0903V20.8183C49.4563 20.1579 49.9935 19.6206 50.6539 19.6206H66.4347C67.0951 19.6206 67.6324 20.1579 67.6324 20.8183V32.0903Z" fill="#2D75B4"/>
<path id="Vector_3" d="M17.1488 9.01715C16.857 8.5116 16.2107 8.33858 15.7052 8.63038L13.3856 9.96964V7.29113C13.3856 6.70752 12.9125 6.23438 12.3289 6.23438C11.7452 6.23438 11.2721 6.70752 11.2721 7.29113V9.96964L8.95246 8.63038C8.44705 8.33844 7.80074 8.51174 7.50894 9.01715C7.21713 9.52256 7.3903 10.1689 7.89571 10.4607L10.2153 11.7999L7.89571 13.1392C7.3903 13.431 7.21713 14.0773 7.50894 14.5827C7.70465 14.9217 8.05986 15.1112 8.42507 15.1112C8.6043 15.1112 8.78606 15.0656 8.95246 14.9695L11.2721 13.6302V16.3087C11.2721 16.8923 11.7452 17.3655 12.3289 17.3655C12.9125 17.3655 13.3856 16.8923 13.3856 16.3087V13.6302L15.7052 14.9695C15.8716 15.0656 16.0534 15.1112 16.2326 15.1112C16.5978 15.1112 16.9531 14.9217 17.1488 14.5827C17.4406 14.0773 17.2674 13.431 16.762 13.1392L14.4424 11.7999L16.762 10.4607C17.2674 10.1689 17.4406 9.52256 17.1488 9.01715Z" fill="#2D75B4"/>
<path id="Vector_4" d="M30.6751 9.01715C30.3833 8.5116 29.737 8.33858 29.2316 8.63038L26.912 9.96964V7.29113C26.912 6.70752 26.4388 6.23438 25.8552 6.23438C25.2716 6.23438 24.7985 6.70752 24.7985 7.29113V9.96964L22.4788 8.63038C21.9734 8.33844 21.3271 8.51174 21.0353 9.01715C20.7435 9.52256 20.9167 10.1689 21.4221 10.4607L23.7417 11.7999L21.4221 13.1392C20.9167 13.431 20.7435 14.0773 21.0353 14.5827C21.231 14.9217 21.5862 15.1112 21.9514 15.1112C22.1307 15.1112 22.3124 15.0656 22.4788 14.9695L24.7985 13.6302V16.3087C24.7985 16.8923 25.2716 17.3655 25.8552 17.3655C26.4388 17.3655 26.912 16.8923 26.912 16.3087V13.6302L29.2316 14.9695C29.398 15.0656 29.5798 15.1112 29.759 15.1112C30.1242 15.1112 30.4794 14.9217 30.6751 14.5827C30.9669 14.0773 30.7938 13.431 30.2884 13.1392L27.9687 11.7999L30.2884 10.4607C30.7938 10.1689 30.9669 9.52256 30.6751 9.01715Z" fill="#2D75B4"/>
<path id="Vector_5" d="M44.2015 9.01715C43.9097 8.5116 43.2634 8.33858 42.758 8.63038L40.4383 9.96964V7.29113C40.4383 6.70752 39.9652 6.23438 39.3816 6.23438C38.798 6.23438 38.3248 6.70752 38.3248 7.29113V9.96964L36.0052 8.63038C35.4998 8.33844 34.8535 8.51174 34.5617 9.01715C34.2699 9.52256 34.443 10.1689 34.9484 10.4607L37.2681 11.7999L34.9484 13.1392C34.443 13.431 34.2699 14.0773 34.5617 14.5827C34.7574 14.9217 35.1126 15.1112 35.4778 15.1112C35.657 15.1112 35.8388 15.0656 36.0052 14.9695L38.3248 13.6302V16.3087C38.3248 16.8923 38.798 17.3655 39.3816 17.3655C39.9652 17.3655 40.4383 16.8923 40.4383 16.3087V13.6302L42.758 14.9695C42.9244 15.0656 43.1061 15.1112 43.2854 15.1112C43.6506 15.1112 44.0058 14.9217 44.2015 14.5827C44.4933 14.0773 44.3201 13.431 43.8147 13.1392L41.4951 11.7999L43.8147 10.4607C44.3201 10.1689 44.4933 9.52256 44.2015 9.01715Z" fill="#2D75B4"/>
<path id="Vector_6" d="M58.5436 22.0156C56.7178 22.0156 55.2324 23.501 55.2324 25.3268C55.2324 26.7831 56.1779 28.0219 57.4868 28.4641V29.8356C57.4868 30.4192 57.96 30.8923 58.5436 30.8923C59.1272 30.8923 59.6003 30.4192 59.6003 29.8356V28.4641C60.9093 28.0219 61.8547 26.7831 61.8547 25.3268C61.8547 23.501 60.3694 22.0156 58.5436 22.0156ZM58.5436 26.5244C57.8832 26.5244 57.3459 25.9872 57.3459 25.3268C57.3459 24.6664 57.8832 24.1291 58.5436 24.1291C59.204 24.1291 59.7412 24.6664 59.7412 25.3268C59.7412 25.9872 59.204 26.5244 58.5436 26.5244Z" fill="#2D75B4"/>
</g>
</svg>
