<svg width="72" height="72" viewBox="0 0 72 72" fill="none" xmlns="http://www.w3.org/2000/svg">
<g id="Group">
<path id="Vector" d="M68.1328 9.73955H49.6938C47.7207 4.07573 42.3277 0 36 0C33.6953 0 31.4909 0.525656 29.448 1.56248C28.232 2.17969 29.1864 4.06027 30.4027 3.44348C32.147 2.55825 34.0301 2.10938 36 2.10938C42.8302 2.10938 48.387 7.66617 48.387 14.4963C48.387 21.3265 42.8302 26.8833 36 26.8833C29.1698 26.8833 23.613 21.3265 23.613 14.4963C23.613 11.5425 24.67 8.68205 26.5892 6.44203C27.4766 5.40661 25.8746 4.03369 24.9874 5.06953C23.8013 6.4537 22.8999 8.0415 22.31 9.73941H3.86719C1.73475 9.73941 0 11.4742 0 13.6066V68.1328C0 70.2653 1.73475 72 3.86719 72H68.1328C70.2653 72 72 70.2653 72 68.1328V22.5V13.6067C72 11.4743 70.2653 9.73955 68.1328 9.73955ZM68.1328 11.8489C69.1021 11.8489 69.8906 12.6374 69.8906 13.6067V21.4453H48.719C50.3146 18.5365 50.8577 15.1109 50.2532 11.8489H68.1328ZM3.86719 11.8489H21.7492C21.1428 15.1118 21.6847 18.5352 23.2809 21.4453H2.10938V13.6067C2.10938 12.6374 2.89786 11.8489 3.86719 11.8489ZM68.1328 69.8906H3.86719C2.89786 69.8906 2.10938 69.1021 2.10938 68.1328V23.5547H24.6914C27.3503 26.8675 31.4314 28.9927 36 28.9927C40.5769 28.9927 44.6646 26.8599 47.3233 23.5367C47.3849 23.5479 69.8906 23.5547 69.8906 23.5547V68.1328C69.8906 69.1021 69.1021 69.8906 68.1328 69.8906Z" fill="#2D75B4"/>
<path id="Vector_2" d="M58.3826 50.9473H13.6172C5.81528 50.9473 5.80192 63.0686 13.6172 63.0686H58.3825C66.1845 63.0686 66.1978 50.9473 58.3826 50.9473ZM58.3826 60.9592H13.6172C8.53286 60.9592 8.49785 53.0566 13.6172 53.0566H58.3825C63.4669 53.0566 63.5018 60.9592 58.3826 60.9592Z" fill="#2D75B4"/>
<path id="Vector_3" d="M17.0364 55.9531C15.6791 55.9531 15.6768 58.0625 17.0364 58.0625C18.3936 58.0625 18.3958 55.9531 17.0364 55.9531Z" fill="#2D75B4"/>
<path id="Vector_4" d="M22.4544 55.9531C21.0971 55.9531 21.0948 58.0625 22.4544 58.0625C23.8117 58.0625 23.8139 55.9531 22.4544 55.9531Z" fill="#2D75B4"/>
<path id="Vector_5" d="M27.8733 55.9531C26.516 55.9531 26.5138 58.0625 27.8733 58.0625C29.2306 58.0625 29.2329 55.9531 27.8733 55.9531Z" fill="#2D75B4"/>
<path id="Vector_6" d="M33.2913 55.9531C31.934 55.9531 31.9317 58.0625 33.2913 58.0625C34.6486 58.0625 34.6509 55.9531 33.2913 55.9531Z" fill="#2D75B4"/>
<path id="Vector_7" d="M38.7093 55.9531C37.3519 55.9531 37.3497 58.0625 38.7093 58.0625C40.0666 58.0625 40.0688 55.9531 38.7093 55.9531Z" fill="#2D75B4"/>
<path id="Vector_8" d="M44.1272 55.9531C42.7699 55.9531 42.7677 58.0625 44.1272 58.0625C45.4844 58.0625 45.4866 55.9531 44.1272 55.9531Z" fill="#2D75B4"/>
<path id="Vector_9" d="M49.5452 55.9531C48.1879 55.9531 48.1856 58.0625 49.5452 58.0625C50.9025 58.0625 50.9048 55.9531 49.5452 55.9531Z" fill="#2D75B4"/>
<path id="Vector_10" d="M54.9632 55.9531C53.6059 55.9531 53.6036 58.0625 54.9632 58.0625C56.3205 58.0625 56.3227 55.9531 54.9632 55.9531Z" fill="#2D75B4"/>
<path id="Vector_11" d="M58.3826 35.0312H13.6172C5.81528 35.0312 5.80192 47.1526 13.6172 47.1526H49.1198C50.4834 47.1526 50.4834 45.0432 49.1198 45.0432H13.6172C8.53286 45.0432 8.49785 37.1406 13.6172 37.1406H58.3825C63.4668 37.1406 63.5018 45.0432 58.3825 45.0432H54.7448C53.3811 45.0432 53.3811 47.1526 54.7448 47.1526H58.3825C66.1845 47.1526 66.1978 35.0312 58.3826 35.0312Z" fill="#2D75B4"/>
<path id="Vector_12" d="M35.9997 5.91992C33.9315 5.91992 32.2491 7.60236 32.2491 9.67053V12.1582C31.0134 12.288 30.0469 13.3358 30.0469 14.6052V20.0481C30.0469 21.405 31.1509 22.509 32.5078 22.509H39.4915C40.8484 22.509 41.9525 21.405 41.9525 20.0481V14.6052C41.9525 13.3356 40.9861 12.288 39.7503 12.1582V9.67053C39.7503 7.60236 38.0678 5.91992 35.9997 5.91992ZM34.3584 9.67039C34.3584 7.61727 37.641 7.52333 37.641 9.67039V12.1441H34.3584V9.67039ZM39.8431 20.0481C39.8431 20.2419 39.6853 20.3997 39.4915 20.3997H32.5078C32.314 20.3997 32.1562 20.2419 32.1562 20.0481V14.6052C32.1562 14.4114 32.314 14.2536 32.5078 14.2536H39.4915C39.6853 14.2536 39.8431 14.4114 39.8431 14.6052V20.0481Z" fill="#2D75B4"/>
<path id="Vector_13" d="M56.0177 41.0938C56.0177 40.5113 55.5454 40.0391 54.963 40.0391H17.0364C15.6728 40.0391 15.6728 42.1484 17.0364 42.1484H54.963C55.5454 42.1484 56.0177 41.6762 56.0177 41.0938Z" fill="#2D75B4"/>
<path id="Vector_14" d="M36.0003 16.2734C34.643 16.2734 34.6407 18.3828 36.0003 18.3828C37.3576 18.3828 37.3598 16.2734 36.0003 16.2734Z" fill="#2D75B4"/>
</g>
</svg>
