<svg width="72" height="72" viewBox="0 0 72 72" fill="none" xmlns="http://www.w3.org/2000/svg">
<g id="Group">
<path id="Vector" d="M15.0642 21.8687V5.55687C15.0642 4.16173 15.6341 2.89006 16.551 1.97319C17.4718 1.05238 18.7394 0.482422 20.1386 0.482422H56.4774C57.8766 0.482422 59.1442 1.05238 60.065 1.97319C60.9819 2.89006 61.5518 4.16159 61.5518 5.55687V19.4091C61.5518 19.9912 61.0815 20.4655 60.4995 20.4655C59.9175 20.4655 59.4432 19.9912 59.4432 19.4091V12.2418H17.1728V21.8685H27.1585C28.5536 21.8685 29.8253 22.4386 30.7422 23.3594C31.663 24.2803 32.2331 25.5478 32.2331 26.943V44.3072C32.2331 44.8891 31.7627 45.3597 31.1767 45.3597C30.5948 45.3597 30.1244 44.8891 30.1244 44.3072V26.9431C30.1244 26.1299 29.7896 25.3885 29.2514 24.8503C28.7132 24.3122 27.9719 23.9773 27.1586 23.9773H5.07459C4.26136 23.9773 3.51998 24.3122 2.98181 24.8503C2.44364 25.3885 2.10881 26.1299 2.10881 26.9431V66.4431C2.10881 67.2603 2.44364 67.9977 2.98181 68.5359C3.51998 69.0741 4.2615 69.4089 5.07459 69.4089H27.1585C27.9717 69.4089 28.7131 69.0741 29.2513 68.5359C29.7894 67.9977 30.1243 67.2603 30.1243 66.4431V49.083C30.1243 48.5009 30.5947 48.0266 31.1766 48.0266C31.7625 48.0266 32.2329 48.5009 32.2329 49.083V66.4431C32.2329 67.5473 31.8742 68.5757 31.2722 69.4089H49.589C49.2105 68.775 48.995 68.0336 48.995 67.2443V35.6292C48.995 34.4533 49.4774 33.385 50.2508 32.6116C51.0241 31.8383 52.0924 31.3559 53.2683 31.3559H59.443V24.1886C59.443 23.6067 59.9174 23.1322 60.4994 23.1322C61.0815 23.1322 61.5517 23.6067 61.5517 24.1886V31.3559H67.7305C68.9065 31.3559 69.9749 31.8383 70.7482 32.6116C71.5215 33.385 71.9999 34.4533 71.9999 35.6292V49.0509C71.9999 49.633 71.5295 50.1032 70.9476 50.1032C70.3655 50.1032 69.8912 49.6328 69.8912 49.0509V38.292H51.104V64.5855H69.8912V53.8265C69.8912 53.2446 70.3657 52.7702 70.9476 52.7702C71.5295 52.7702 71.9999 53.2445 71.9999 53.8265V67.2443C71.9999 68.4243 71.5215 69.4926 70.7482 70.2659C69.9749 71.0392 68.9065 71.5176 67.7305 71.5176C54.205 71.5176 40.6837 71.5176 27.1583 71.5176H5.07459C3.67945 71.5176 2.40778 70.9475 1.49091 70.0308C0.570094 69.1098 0 67.8422 0 66.443V26.9431C0 25.548 0.570094 24.2803 1.49091 23.3596C2.40778 22.4388 3.67945 21.8687 5.07459 21.8687H15.0642ZM12.9075 66.742C12.3255 66.742 11.8512 66.2675 11.8512 65.6856C11.8512 65.1035 12.3255 64.6332 12.9075 64.6332H19.3254C19.9074 64.6332 20.3818 65.1035 20.3818 65.6856C20.3818 66.2675 19.9074 66.742 19.3254 66.742H12.9075ZM53.8784 7.41439C53.2963 7.41439 52.822 6.944 52.822 6.36209C52.822 5.78019 53.2963 5.30572 53.8784 5.30572H55.5007C56.0828 5.30572 56.553 5.78005 56.553 6.36209C56.553 6.94414 56.0827 7.41439 55.5007 7.41439H53.8784ZM42.4378 7.41439C41.8559 7.41439 41.3855 6.944 41.3855 6.36209C41.3855 5.78019 41.8559 5.30572 42.4378 5.30572H44.0641C44.6462 5.30572 45.1166 5.78005 45.1166 6.36209C45.1166 6.94414 44.6462 7.41439 44.0641 7.41439H42.4378ZM48.158 7.41439C47.5761 7.41439 47.1016 6.944 47.1016 6.36209C47.1016 5.78019 47.5761 5.30572 48.158 5.30572H49.7804C50.3624 5.30572 50.8368 5.78005 50.8368 6.36209C50.8368 6.94414 50.3623 7.41439 49.7804 7.41439H48.158ZM51.104 36.1792H69.8912V35.6291C69.8912 35.0351 69.648 34.4971 69.2574 34.1023C68.8628 33.7117 68.3205 33.4646 67.7306 33.4646H53.2685C52.6745 33.4646 52.1364 33.7117 51.7418 34.1023C51.3512 34.4971 51.104 35.0351 51.104 35.6291V36.1792ZM53.2685 69.4089H67.7306C68.3205 69.4089 68.8628 69.1656 69.2574 68.775C69.648 68.3804 69.8912 67.8383 69.8912 67.2443V66.6942H51.104V67.2443C51.104 67.8383 51.351 68.3804 51.7418 68.775C52.1364 69.1656 52.6746 69.4089 53.2685 69.4089ZM17.1728 10.129H59.4432V5.55687C59.4432 4.74364 59.1083 4.00227 58.5702 3.46409C58.0361 2.92592 57.2946 2.59109 56.4774 2.59109H20.1386C19.3215 2.59109 18.5799 2.92592 18.0419 3.46409C17.5037 4.00227 17.1728 4.74364 17.1728 5.55687V10.129Z" fill="#2D75B4"/>
</g>
</svg>
