<svg width="72" height="72" viewBox="0 0 72 72" fill="none" xmlns="http://www.w3.org/2000/svg">
<g id="Group">
<path id="Vector" d="M44.578 27.6548C42.8293 27.1943 41.8857 26.44 41.8857 25.9644C41.8857 25.3243 42.6088 24.6111 43.6462 24.6111C44.7821 24.6111 45.7074 25.527 45.729 25.5487C46.1336 25.9638 46.7982 25.9748 47.2161 25.5725C47.6358 25.1684 47.6483 24.5008 47.2443 24.0813C47.1915 24.0264 46.1129 22.925 44.5303 22.595V21.7161C44.5303 21.1385 44.0853 20.635 43.508 20.6177C42.9108 20.5998 42.421 21.0786 42.421 21.6719V22.6808C40.886 23.1406 39.7764 24.4383 39.7764 25.9645C39.7764 27.6211 41.3306 28.9808 44.0404 29.6947C45.6081 30.1077 45.6081 30.7745 45.6081 31.2612C45.6081 31.8223 45.0463 32.657 43.4987 32.657C42.6491 32.657 42.0482 32.3412 41.6721 32.0461C41.3403 31.7857 40.899 31.7228 40.431 32.0108C39.8351 32.3774 39.781 33.2225 40.3249 33.6625C40.8177 34.061 41.5113 34.4681 42.4208 34.657V35.5966C42.4208 36.1899 42.9105 36.6686 43.5079 36.6509C44.0851 36.6336 44.5302 36.13 44.5302 35.5526V34.6733C46.6075 34.2842 47.7175 32.7332 47.7175 31.2616C47.7176 29.4171 46.6614 28.2038 44.578 27.6548Z" fill="#2D75B4"/>
<path id="Vector_2" d="M43.4756 0C27.7472 0 14.9514 12.7958 14.9514 28.5243C14.9514 34.9817 17.1097 40.9439 20.7409 45.7302L16.9907 49.4804C15.8653 49.1474 14.5774 49.4102 13.6625 50.3249C13.0517 50.9357 1.39685 62.5905 0.982853 63.0045C-0.337048 64.3244 -0.317361 66.4453 0.980462 67.7455C0.981306 67.7464 0.982009 67.7474 0.982853 67.7482L4.25153 71.0169C5.56257 72.3277 7.68403 72.3278 8.99507 71.0168C9.60468 70.4072 21.2586 58.7532 21.6748 58.3371C22.5738 57.4381 22.8547 56.1516 22.5178 55.0103L26.2692 51.2589C31.0555 54.8902 37.0177 57.0484 43.4753 57.0484C59.2039 57.0484 71.9997 44.2525 71.9997 28.5243C71.9997 12.7958 59.2039 0 43.4756 0ZM7.50375 69.525C7.01719 70.0116 6.22997 70.0116 5.74341 69.525L2.47474 66.2565C1.98902 65.7708 1.99057 64.9803 2.47474 64.496L4.08587 62.8849L9.11488 67.9139L7.50375 69.525ZM10.6063 66.4224L5.57733 61.3934L8.06864 58.9021L13.0976 63.9311L10.6063 66.4224ZM14.5893 62.4395L9.56024 57.4105L12.0517 54.919L17.0807 59.9481L14.5893 62.4395ZM20.1834 56.8453L18.5723 58.4565L13.5433 53.4274L15.1544 51.8163C15.6539 51.3164 16.4434 51.3441 16.9148 51.8163L20.1834 55.085C20.6587 55.5562 20.6801 56.3486 20.1834 56.8453ZM21.3134 53.2318L18.7679 50.6865L22.0731 47.3813C22.8708 48.2851 23.7142 49.1286 24.6186 49.9267L21.3134 53.2318ZM43.4756 54.939C28.9104 54.939 17.0607 43.0894 17.0607 28.5243C17.0607 13.9591 28.9104 2.10937 43.4756 2.10937C58.0408 2.10937 69.8904 13.9591 69.8904 28.5243C69.8904 43.0894 58.0408 54.939 43.4756 54.939Z" fill="#2D75B4"/>
<path id="Vector_3" d="M43.475 6.22266C31.1781 6.22266 21.1738 16.2271 21.1738 28.524C21.1738 39.8557 29.6514 49.3787 40.8935 50.6754C41.4713 50.7428 41.9954 50.3273 42.062 49.7486C42.129 49.1701 41.7139 48.6468 41.1352 48.58C30.9579 47.4058 23.2833 38.7837 23.2833 28.5239C23.2833 17.3899 32.3414 8.33188 43.4752 8.33188C54.6091 8.33188 63.6672 17.3899 63.6672 28.5239C63.6672 38.7837 55.9926 47.4058 45.8155 48.58C45.2368 48.6468 44.8219 49.1699 44.8886 49.7486C44.9554 50.3289 45.4812 50.7428 46.0572 50.6754C57.299 49.3786 65.7767 39.8555 65.7767 28.524C65.7764 16.2271 55.7721 6.22266 43.475 6.22266Z" fill="#2D75B4"/>
<path id="Vector_4" d="M56.0539 31.3132C56.1747 30.7432 55.8107 30.1834 55.2411 30.0625C54.6719 29.9421 54.1114 30.3056 53.9903 30.8753C52.9446 35.8053 48.5227 39.3835 43.4758 39.3835C37.548 39.3835 32.7254 34.5609 32.7254 28.6333C32.7254 22.7055 37.548 17.883 43.4758 17.883C48.5227 17.883 52.9446 21.4612 53.9903 26.3913C54.1111 26.9613 54.6704 27.3249 55.2411 27.2041C55.8109 27.0833 56.1748 26.5234 56.0539 25.9534C54.8144 20.1102 49.6225 15.7734 43.4759 15.7734C36.3851 15.7734 30.6162 21.5423 30.6162 28.6332C30.6162 35.724 36.3851 41.4928 43.4759 41.4928C49.6273 41.493 54.8155 37.1511 56.0539 31.3132Z" fill="#2D75B4"/>
</g>
</svg>
