<svg width="46" height="72" viewBox="0 0 46 72" fill="none" xmlns="http://www.w3.org/2000/svg">
<g id="Group">
<g id="Group_2">
<path id="Vector" d="M6.2373 44.1567C5.65484 44.1567 5.18262 44.6288 5.18262 45.2114V64.9791C5.18262 66.3437 6.29299 67.4541 7.65762 67.4541H38.342C39.7068 67.4541 40.8171 66.3437 40.8171 64.9791V7.02187C40.8171 5.65725 39.7068 4.54688 38.342 4.54688H31.1462C30.0589 4.54688 29.1097 5.24395 28.7839 6.28275L27.9866 8.83453C27.9386 8.98852 27.7982 9.09188 27.6378 9.09188H18.3621C18.2015 9.09188 18.0612 8.98852 18.0132 8.83495L17.2156 6.28177C16.8904 5.24409 15.9411 4.54688 14.8535 4.54688H7.65762C6.29285 4.54688 5.18262 5.65725 5.18262 7.02187V40.2895C5.18262 40.8721 5.65484 41.3442 6.2373 41.3442C6.81977 41.3442 7.29199 40.8721 7.29199 40.2895V7.02187C7.29199 6.82022 7.4561 6.65625 7.65762 6.65625H14.8534C15.0116 6.65625 15.1553 6.76172 15.2023 6.91162L15.9998 9.46425C16.3248 10.5032 17.2741 11.2013 18.362 11.2013H27.6376C28.7255 11.2013 29.6747 10.5032 30 9.46397L30.7969 6.91275C30.8443 6.76172 30.9879 6.65625 31.1461 6.65625H38.3419C38.5435 6.65625 38.7076 6.82022 38.7076 7.02187V64.9791C38.7076 65.1807 38.5435 65.3447 38.3419 65.3447H7.65762C7.45596 65.3447 7.29199 65.1807 7.29199 64.9791V45.2114C7.29199 44.6288 6.81977 44.1567 6.2373 44.1567Z" fill="#2D75B4"/>
<path id="Vector_2" d="M44.3074 22.1878C44.89 22.1878 45.3621 21.7157 45.3621 21.1331V5.31562C45.3621 2.38458 42.9775 0 40.0464 0H5.95332C3.02227 0 0.637695 2.38458 0.637695 5.31562V66.6844C0.637695 69.6154 3.02227 72 5.95332 72H40.0464C42.9775 72 45.3621 69.6154 45.3621 66.6844V26.055C45.3621 25.4724 44.89 25.0003 44.3074 25.0003C43.7248 25.0003 43.2527 25.4724 43.2527 26.055V66.6844C43.2527 68.4523 41.8144 69.8906 40.0464 69.8906H5.95332C4.18538 69.8906 2.74707 68.4523 2.74707 66.6844V5.31562C2.74707 3.54769 4.18538 2.10938 5.95332 2.10938H40.0464C41.8144 2.10938 43.2527 3.54769 43.2527 5.31562V21.1331C43.2527 21.7157 43.7248 22.1878 44.3074 22.1878Z" fill="#2D75B4"/>
<path id="Vector_3" d="M24.4201 6.65527C25.0028 6.65527 25.4748 6.1832 25.4748 5.60059C25.4748 5.01798 25.0028 4.5459 24.4201 4.5459H21.5791C20.9966 4.5459 20.5244 5.01798 20.5244 5.60059C20.5244 6.1832 20.9966 6.65527 21.5791 6.65527H24.4201Z" fill="#2D75B4"/>
<path id="Vector_4" d="M11.3586 28.4316C11.3361 28.6404 11.3758 28.8581 11.4856 29.0559C11.7684 29.5649 12.4112 29.7479 12.9204 29.4654C13.2348 29.2907 13.4384 28.9678 13.4608 28.6089C13.5576 27.0564 14.419 25.6655 15.7652 24.8884C15.98 24.7644 16.2021 24.6596 16.4294 24.5724C16.3217 25.0499 16.263 25.5456 16.263 26.0549C16.263 29.0724 18.2572 31.6329 20.9969 32.4877C20.8082 32.6402 20.6069 32.7797 20.3926 32.9035C19.0464 33.6806 17.4111 33.7312 16.0185 33.0389C15.6991 32.8799 15.3214 32.8935 15.0141 33.0742L15.013 33.0749C14.511 33.3704 14.3439 34.0163 14.6392 34.5184C14.7533 34.7124 14.9198 34.8563 15.1102 34.9431C16.0511 35.4049 17.0669 35.6347 18.0808 35.6347C19.2443 35.6347 20.4053 35.3321 21.4473 34.7304C22.0306 34.3936 22.5516 33.9794 22.9998 33.5017C23.448 33.9794 23.969 34.3937 24.5523 34.7304C25.5945 35.3321 26.7554 35.6347 27.9189 35.6347C28.9291 35.6346 29.9416 35.4065 30.8796 34.9479C31.0818 34.858 31.2575 34.7043 31.3732 34.4959C31.6561 33.9867 31.4721 33.3444 30.9629 33.0614C30.6592 32.8928 30.2919 32.8842 29.9811 33.0391C28.5885 33.7316 26.9533 33.681 25.6071 32.9036C25.393 32.78 25.1916 32.6404 25.0029 32.4878C27.7425 31.6329 29.7367 29.0726 29.7367 26.0551C29.7367 25.5456 29.678 25.0499 29.5704 24.5724C29.7976 24.6596 30.0198 24.7645 30.2346 24.8886C31.5808 25.6657 32.4422 27.0566 32.539 28.6091C32.5613 28.968 32.765 29.2908 33.0794 29.4655L33.0807 29.4662C33.5899 29.749 34.2314 29.5652 34.5142 29.056C34.6221 28.8619 34.662 28.6486 34.642 28.443C34.4906 26.1972 33.2391 24.1876 31.2892 23.0619C30.7049 22.7245 30.0846 22.4801 29.4456 22.3307C29.6344 21.7109 29.7367 21.0537 29.7367 20.373C29.7367 18.1256 28.6261 16.0404 26.7631 14.7858C26.5887 14.6582 26.3734 14.583 26.1407 14.583C25.5581 14.583 25.086 15.0558 25.086 15.6384C25.086 15.9919 25.263 16.3217 25.5576 16.5172C26.8536 17.3771 27.6274 18.8186 27.6274 20.3731C27.6274 20.6237 27.6067 20.8696 27.5682 21.1096C26.3665 19.9988 24.7616 19.3184 23 19.3184C21.2384 19.3184 19.6334 19.9988 18.4318 21.1096C18.3932 20.8696 18.3726 20.6238 18.3726 20.3731C18.3726 18.8186 19.1463 17.3772 20.4424 16.5172C20.737 16.3217 20.9141 15.9919 20.9141 15.6384V15.6369C20.9141 15.0542 20.4419 14.583 19.8594 14.583C19.6311 14.583 19.4199 14.6556 19.2472 14.7789C17.3781 16.033 16.2632 18.1217 16.2632 20.3731C16.2632 21.0539 16.3656 21.711 16.5543 22.331C15.9154 22.4804 15.295 22.7248 14.7108 23.062C12.764 24.1854 11.5137 26.1903 11.3586 28.4316ZM18.3724 26.0549C18.3724 25.8043 18.3931 25.5584 18.4316 25.3185C19.2755 26.0985 20.3189 26.6648 21.4754 26.9335C21.1351 28.0436 21.0887 29.2233 21.35 30.3773C19.6109 29.7113 18.3724 28.0255 18.3724 26.0549ZM24.6496 30.3773C24.9109 29.2233 24.8645 28.0436 24.5242 26.9335C25.6808 26.6648 26.7241 26.0985 27.568 25.3185C27.6066 25.5584 27.6272 25.8043 27.6272 26.0549C27.6272 28.0255 26.3887 29.7112 24.6496 30.3773ZM25.9162 22.4656C24.7877 22.8162 23.7904 23.4456 22.9998 24.2941C22.2092 23.4456 21.2119 22.8162 20.0834 22.4656C20.8799 21.8172 21.8951 21.4275 22.9998 21.4275C24.1046 21.4275 25.1197 21.8172 25.9162 22.4656Z" fill="#2D75B4"/>
<path id="Vector_5" d="M10.8763 58.149C12.0802 60.3246 14.2835 61.6234 16.7704 61.6234H29.2298C31.7166 61.6234 33.9201 60.3246 35.124 58.1489C36.3279 55.9733 36.258 53.4166 34.9372 51.3096L28.7088 41.3713C27.4686 39.3937 25.3345 38.2129 23.0003 38.2129C20.6662 38.2129 18.5319 39.3936 17.2916 41.3715L16.0091 43.4177C15.6997 43.9113 15.8491 44.5623 16.3426 44.8716C16.8365 45.1809 17.4872 45.0317 17.7964 44.5381L19.0788 42.492C19.9308 41.1334 21.3967 40.3221 23.0004 40.3223C24.6039 40.3223 26.07 41.1334 26.9216 42.4917L33.15 52.4298C34.0573 53.8771 34.1053 55.6332 33.2784 57.1275C32.4515 58.6219 30.938 59.5141 29.2299 59.5141H16.7706C15.0624 59.5141 13.549 58.6219 12.7221 57.1277C11.8952 55.6332 11.9432 53.8771 12.8506 52.4298L15.1836 48.7075C15.493 48.2139 15.3436 47.5629 14.8501 47.2537C14.3566 46.9443 13.7056 47.0936 13.3963 47.5871L11.0634 51.3094C9.74227 53.4166 9.67238 55.9733 10.8763 58.149Z" fill="#2D75B4"/>
<path id="Vector_6" d="M23.0002 57.0599C23.6831 57.0599 24.2367 56.5063 24.2367 55.8234C24.2367 55.1406 23.6831 54.5869 23.0002 54.5869C22.3173 54.5869 21.7637 55.1406 21.7637 55.8234C21.7637 56.5063 22.3173 57.0599 23.0002 57.0599Z" fill="#2D75B4"/>
<path id="Vector_7" d="M23.0176 52.2701C23.6 52.2701 24.0723 51.798 24.0723 51.2154V43.7773C24.0723 43.1947 23.6 42.7227 23.0176 42.7227C22.4351 42.7227 21.9629 43.1947 21.9629 43.7773V51.2154C21.9629 51.798 22.4351 52.2701 23.0176 52.2701Z" fill="#2D75B4"/>
</g>
</g>
</svg>
