<svg width="68" height="72" viewBox="0 0 68 72" fill="none" xmlns="http://www.w3.org/2000/svg">
<g id="Group">
<path id="Vector" d="M57.6884 8.06623C57.6884 7.01539 56.8335 6.16043 55.7828 6.16043H41.3853L35.7386 0.706288C34.7634 -0.235429 33.2357 -0.235429 32.2605 0.706288L26.6137 6.16043H12.2163C11.1654 6.16043 10.3106 7.01539 10.3106 8.06623V21.9072L1.53087 30.3875C1.2495 30.6592 1.03745 30.9889 0.905265 31.3313C0.788692 31.6339 0.729492 31.9516 0.729492 32.2756V69.3749C0.729492 70.0831 1.00735 70.7469 1.51161 71.2443C1.99547 71.7232 2.65089 72 3.35441 72H64.6459C65.3369 71.9995 65.9887 71.7331 66.4818 71.2493C66.9809 70.7625 67.2693 70.0953 67.2693 69.3749V32.2756C67.2693 31.54 66.9626 30.8657 66.4683 30.3878L57.6883 21.9072V8.06623H57.6884ZM33.7258 2.22341C33.8793 2.07534 34.1198 2.07506 34.2732 2.22341L38.3493 6.16043H29.6498L33.7258 2.22341ZM11.3653 32.5738C11.9477 32.5738 12.4199 32.1018 12.4199 31.5192V15.3006H38.7773C39.3597 15.3006 39.8319 14.8285 39.8319 14.246C39.8319 13.6634 39.3597 13.1913 38.7773 13.1913H12.4199V8.2697H55.5792V13.1913H43.6989C43.1165 13.1913 42.6443 13.6634 42.6443 14.246C42.6443 14.8285 43.1165 15.3006 43.6989 15.3006H55.5793V40.4155L45.8521 49.8109L41.171 45.2896C41.4908 44.9465 41.6589 44.4728 41.6154 43.9906L41.243 39.857L43.3061 41.048C43.7588 41.3094 44.06 41.7666 44.0918 42.2411C44.1672 43.3626 44.8382 44.3731 45.8432 44.8786C47.2816 45.6023 49.0956 45.1106 49.9654 43.7345C50.2444 43.293 50.4125 42.7865 50.4513 42.2694C50.4807 41.8767 50.6926 41.5099 51.0177 41.288C51.4461 40.9958 51.8011 40.597 52.0438 40.1347C52.7965 38.7008 52.3264 36.8815 50.9735 35.9928C50.0332 35.3752 48.8223 35.2988 47.8136 35.7948C47.3803 36.0074 46.8472 35.9762 46.3874 35.7107L44.3042 34.508C45.0396 32.8394 45.3451 31.0193 45.2145 29.2L46.1713 28.6475C46.6242 28.3862 47.1705 28.3539 47.5976 28.5634C48.6064 29.0589 49.8172 28.9829 50.7574 28.3654C52.1104 27.4768 52.5806 25.6575 51.8276 24.2235C51.5849 23.7614 51.2303 23.3628 50.8015 23.0702C50.4763 22.8485 50.2645 22.4815 50.2351 22.0891C50.1965 21.5719 50.0284 21.0652 49.7493 20.6238C48.8841 19.2549 47.0735 18.7523 45.6271 19.4796C44.6221 19.9854 43.9511 20.996 43.8758 22.1172C43.8439 22.5916 43.5429 23.0489 43.0899 23.3103L43.0257 23.3475C42.6848 22.8949 42.307 22.4648 41.8935 22.0609C39.7337 19.9514 36.8771 18.83 33.8571 18.8999C30.3145 18.9832 27.1571 20.7726 25.1739 23.463L24.9094 23.3103C24.4566 23.0489 24.1554 22.5916 24.1237 22.1173C24.0484 20.996 23.3773 19.9854 22.3721 19.4796C20.9263 18.7522 19.1154 19.2546 18.2502 20.6237C17.9711 21.0652 17.803 21.5719 17.7644 22.0888C17.735 22.4815 17.5232 22.8484 17.1974 23.0703C16.7692 23.3626 16.4146 23.7613 16.1719 24.2235C15.419 25.6574 15.8891 27.4767 17.2421 28.3653C18.1826 28.9829 19.3931 29.0589 20.4021 28.5632C20.8287 28.3537 21.3753 28.3858 21.8282 28.6473L23.0263 29.339C22.9239 30.9986 23.1909 32.7456 23.8946 34.3928L21.6121 35.7106C21.1523 35.9761 20.619 36.0073 20.1859 35.7945C19.1771 35.2991 17.9663 35.3751 17.026 35.9927C15.6731 36.8814 15.203 38.7007 15.9557 40.1346C16.1984 40.5969 16.5534 40.9957 16.9817 41.2878C17.3069 41.5097 17.5187 41.8765 17.5482 42.2691C17.587 42.7862 17.7549 43.2927 18.0341 43.7344C18.6314 44.6792 19.6786 45.2111 20.7457 45.211C22.4451 45.211 23.7981 43.8708 23.9077 42.2407C23.9395 41.7663 24.2407 41.3091 24.6934 41.0477L27.0198 39.7045L26.6338 43.99C26.5963 44.4071 26.7165 44.8237 26.9665 45.1559L22.1474 49.8105L12.4203 40.4152V36.4404C12.4203 35.8578 11.9481 35.3857 11.3657 35.3857C10.7832 35.3857 10.3111 35.8578 10.3111 36.4404V38.378L3.30266 31.6086L10.3111 24.8394V31.5189C10.3106 32.1018 10.7828 32.5738 11.3653 32.5738ZM37.1377 41.3941L37.0674 40.244C37.032 39.6625 36.5314 39.2224 35.9505 39.2556C35.6439 39.2743 35.376 39.4222 35.1965 39.643C34.509 39.2661 33.6872 39.2367 32.9788 39.5551C32.8032 39.3797 32.5654 39.2653 32.2982 39.2489C31.7177 39.2146 31.2169 39.656 31.1814 40.2373L31.1264 41.138L28.8062 43.379L29.2358 38.6097C29.2884 38.0267 29.0404 37.4656 28.5738 37.1144C26.3686 35.3876 25.1018 32.7902 25.1142 29.9756C25.1355 25.1448 29.0796 21.1225 33.9062 21.0088C39.012 20.8838 43.1355 24.9962 43.1355 30.0205C43.1355 32.676 41.9707 35.3261 39.6552 37.1294C39.2076 37.4738 38.9601 38.0278 39.0124 38.6096L39.4659 43.6431L37.1377 41.3941ZM23.3958 27.1174L22.8824 26.821C21.8126 26.2031 20.5373 26.1469 19.4717 26.6705C19.1246 26.841 18.7238 26.8157 18.3995 26.6028C17.9507 26.3079 17.7888 25.6806 18.0388 25.2046C18.1228 25.0446 18.2397 24.913 18.3855 24.8134C19.2363 24.2333 19.7902 23.274 19.8673 22.2468C19.8805 22.0706 19.9361 21.904 20.0327 21.7513C20.32 21.2968 20.9442 21.1227 21.4239 21.3645C21.7706 21.5387 21.9929 21.8732 22.0188 22.2591C22.0982 23.4436 22.7846 24.5196 23.8545 25.1375L24.0864 25.2714C23.8036 25.8609 23.5716 26.4782 23.3958 27.1174ZM26.1521 37.7702L23.6385 39.2214C22.5686 39.8393 21.8824 40.9153 21.8029 42.0998C21.7769 42.4857 21.5546 42.8201 21.2081 42.9943C20.7283 43.2359 20.1042 43.0622 19.8167 42.6077C19.7201 42.455 19.6645 42.2881 19.6513 42.1116C19.5743 41.0849 19.0204 40.1256 18.1696 39.5454C18.0235 39.4458 17.9069 39.3142 17.823 39.1544C17.573 38.6782 17.7348 38.0509 18.1837 37.756C18.5079 37.5431 18.9086 37.5179 19.2558 37.6882C20.3216 38.2119 21.5966 38.1554 22.6664 37.5378L24.9056 36.2451C25.2722 36.7855 25.6887 37.2959 26.1521 37.7702ZM44.8292 26.9868C44.6509 26.3526 44.4165 25.7371 44.1284 25.1465L44.1444 25.1372C45.2144 24.5194 45.9006 23.4434 45.9802 22.2586C46.0061 21.8729 46.2284 21.5384 46.5749 21.3642C47.0548 21.1229 47.679 21.2964 47.9663 21.751C48.0629 21.9037 48.1184 22.0704 48.1316 22.2467C48.2087 23.2738 48.7626 24.2331 49.613 24.8128C49.7594 24.9127 49.8761 25.0443 49.9601 25.2042C50.2101 25.6804 50.0483 26.3077 49.5993 26.6025C49.2751 26.8154 48.8745 26.8407 48.5272 26.6703C47.4613 26.1465 46.1863 26.2028 45.1164 26.8207L44.8292 26.9868ZM43.272 36.3479L45.3328 37.5376C46.4026 38.1555 47.6777 38.2116 48.7433 37.6882C49.0905 37.5177 49.4913 37.5431 49.8154 37.7559C50.2642 38.0509 50.4261 38.6782 50.1761 39.1543C50.0921 39.3142 49.9756 39.4457 49.8295 39.5454C48.9787 40.1254 48.4248 41.0847 48.3478 42.1115C48.3345 42.288 48.2789 42.4549 48.1824 42.6075C47.8951 43.0621 47.2706 43.2357 46.7908 42.9942C46.4444 42.8199 46.222 42.4855 46.1962 42.0998C46.1167 40.9151 45.4305 39.8391 44.3604 39.2212L42.0058 37.8617C42.4756 37.3919 42.8985 36.8852 43.272 36.3479ZM2.83876 68.4603V34.0939L20.629 51.2771L2.83876 68.4603ZM58.9059 65.352L63.6051 69.8907H4.39399C10.3351 64.1524 26.6507 48.3933 33.7258 41.5597C33.8793 41.4116 34.1198 41.4114 34.2732 41.5597L38.3868 45.5329C38.3884 45.5343 38.3899 45.5358 38.3913 45.5372C46.6418 53.506 47.1354 53.9829 55.3008 61.8697C55.7199 62.2746 56.3875 62.2629 56.792 61.8438C57.1967 61.4249 57.185 60.7571 56.7661 60.3526L47.37 51.2771C61.6321 37.5016 58.5558 40.473 65.1603 34.0939V68.4603L60.3713 63.8347C59.9523 63.43 59.2847 63.4415 58.88 63.8607C58.4753 64.2796 58.4869 64.9473 58.9059 65.352ZM64.6968 31.609L57.6884 38.3784V24.8398L64.6968 31.609Z" fill="#2D75B4"/>
<path id="Vector_2" d="M15.3545 11.7852C15.937 11.7852 16.4092 11.313 16.4092 10.7305C16.4092 10.148 15.937 9.67578 15.3545 9.67578C14.772 9.67578 14.2998 10.148 14.2998 10.7305C14.2998 11.313 14.772 11.7852 15.3545 11.7852Z" fill="#2D75B4"/>
<path id="Vector_3" d="M18.8789 11.7852C19.4614 11.7852 19.9336 11.313 19.9336 10.7305C19.9336 10.148 19.4614 9.67578 18.8789 9.67578C18.2964 9.67578 17.8242 10.148 17.8242 10.7305C17.8242 11.313 18.2964 11.7852 18.8789 11.7852Z" fill="#2D75B4"/>
<path id="Vector_4" d="M22.4043 11.7852C22.9868 11.7852 23.459 11.313 23.459 10.7305C23.459 10.148 22.9868 9.67578 22.4043 9.67578C21.8218 9.67578 21.3496 10.148 21.3496 10.7305C21.3496 11.313 21.8218 11.7852 22.4043 11.7852Z" fill="#2D75B4"/>
<path id="Vector_5" d="M34.87 34.2443C34.4582 33.8326 33.7904 33.8326 33.3786 34.2443L31.7191 35.9039C31.3072 36.3159 31.3072 36.9836 31.7191 37.3954C32.1311 37.8073 32.7987 37.8072 33.2104 37.3954L34.1243 36.4816L35.0382 37.3954C35.4501 37.8072 36.1179 37.8073 36.5296 37.3953C36.9415 36.9834 36.9415 36.3156 36.5296 35.9039L34.87 34.2443Z" fill="#2D75B4"/>
<path id="Vector_6" d="M33.6601 30.8882V30.6535C33.6601 29.5491 32.7616 28.6504 31.657 28.6504H28.6642C27.5597 28.6504 26.6611 29.5491 26.6611 30.6535V30.8882C26.6611 32.8179 28.231 34.3877 30.1607 34.3877C32.0902 34.3876 33.6601 32.8177 33.6601 30.8882ZM31.5508 30.8882C31.5508 31.6534 30.9285 32.2785 30.1605 32.2785C29.394 32.2785 28.7704 31.6547 28.7704 30.8882V30.7597H31.5508V30.8882Z" fill="#2D75B4"/>
<path id="Vector_7" d="M41.5878 30.8882V30.6535C41.5878 29.5491 40.6892 28.6504 39.5846 28.6504H36.592C35.4874 28.6504 34.5889 29.5491 34.5889 30.6535V30.8882C34.5889 32.8179 36.1587 34.3877 38.0883 34.3877C40.018 34.3876 41.5878 32.8177 41.5878 30.8882ZM39.4786 30.8882C39.4786 31.6547 38.8549 32.2785 38.0883 32.2785C37.3218 32.2785 36.6981 31.6547 36.6981 30.8882V30.7597H39.4786V30.8882Z" fill="#2D75B4"/>
</g>
</svg>
