<svg width="72" height="70" viewBox="0 0 72 70" fill="none" xmlns="http://www.w3.org/2000/svg">
<g id="Group">
<path id="Vector" d="M65.3203 0.0546875H20.9531C20.3707 0.0546875 19.8984 0.526766 19.8984 1.10938C19.8984 1.69198 20.3707 2.16406 20.9531 2.16406H65.3203C67.8403 2.16406 69.8906 4.21423 69.8906 6.73438V46.6883C69.3349 46.392 68.7012 46.2234 68.0286 46.2234H67.7109V42.0312V21.2891C67.7109 20.7065 67.2387 20.2344 66.6562 20.2344C66.0738 20.2344 65.6016 20.7065 65.6016 21.2891V36.4331C64.0409 34.6517 61.752 33.5234 59.2031 33.5234C54.5119 33.5234 50.6953 37.3401 50.6953 42.0312V46.2234H50.3776C48.6069 46.2234 47.1036 47.3886 46.5929 48.9922H8.15625C7.18692 48.9922 6.39844 48.2037 6.39844 47.2344V8.14062C6.39844 7.1713 7.18692 6.38281 8.15625 6.38281H63.8438C64.8131 6.38281 65.6016 7.1713 65.6016 8.14062V16.3672C65.6016 16.9498 66.0738 17.4219 66.6562 17.4219C67.2387 17.4219 67.7109 16.9498 67.7109 16.3672V8.14062C67.7109 6.00833 65.9762 4.27344 63.8438 4.27344H8.15625C6.02381 4.27344 4.28906 6.00833 4.28906 8.14062V47.2344C4.28906 49.3667 6.02381 51.1016 8.15625 51.1016H46.4062V53.2109H6.67969C4.15969 53.2109 2.10938 51.1608 2.10938 48.6406V6.73438C2.10938 4.21423 4.15969 2.16406 6.67969 2.16406H16.0312C16.6137 2.16406 17.0859 1.69198 17.0859 1.10938C17.0859 0.526766 16.6137 0.0546875 16.0312 0.0546875H6.67969C2.99658 0.0546875 0 3.05127 0 6.73438V48.6406C0 52.3237 2.99658 55.3203 6.67969 55.3203H22.4062L19.9688 59.8906H17.6484C15.4385 59.8906 13.6406 61.6885 13.6406 63.8984C13.6406 66.1084 15.4385 67.9062 17.6484 67.9062H46.9098C47.5897 69.1215 48.889 69.9453 50.3776 69.9453H68.0287C70.2186 69.9453 72.0001 68.1637 72.0001 65.9741V6.73438C72 3.05127 69.0034 0.0546875 65.3203 0.0546875ZM52.8047 42.0312C52.8047 38.5031 55.675 35.6328 59.2031 35.6328C62.7313 35.6328 65.6016 38.5031 65.6016 42.0312V46.2234H63.4922V42.0312C63.4922 39.6664 61.5682 37.7422 59.2031 37.7422C56.8381 37.7422 54.9141 39.6664 54.9141 42.0312V46.2234H52.8047V42.0312ZM61.3828 46.2234H57.0234V42.0312C57.0234 40.8293 58.0012 39.8516 59.2031 39.8516C60.405 39.8516 61.3828 40.8293 61.3828 42.0312V46.2234ZM15.75 63.8984C15.75 62.8516 16.6016 62 17.6484 62H42.5391C43.1215 62 43.5938 61.5279 43.5938 60.9453C43.5938 60.3627 43.1215 59.8906 42.5391 59.8906H22.3594L24.7968 55.3203H46.4062V65.7969H17.6484C16.6016 65.7969 15.75 64.9453 15.75 63.8984ZM69.8906 65.9741C69.8906 67.0008 69.0553 67.8359 68.0286 67.8359H50.3776C49.3509 67.8359 48.5156 67.0008 48.5156 65.9741V50.1947C48.5156 49.168 49.3509 48.3328 50.3776 48.3328H68.0287C69.0555 48.3328 69.8908 49.168 69.8908 50.1947V65.9741H69.8906Z" fill="#2D75B4"/>
<path id="Vector_2" d="M28.2656 31.0645H56.1094C58.2418 31.0645 59.9766 29.3296 59.9766 27.1973V19.6035C59.9766 17.4712 58.2418 15.7363 56.1094 15.7363H15.8906C13.7582 15.7363 12.0234 17.4712 12.0234 19.6035V27.1973C12.0234 29.3296 13.7582 31.0645 15.8906 31.0645H23.3438C23.9262 31.0645 24.3984 30.5924 24.3984 30.0098C24.3984 29.4272 23.9262 28.9551 23.3438 28.9551H15.8906C14.9213 28.9551 14.1328 28.1666 14.1328 27.1973V19.6035C14.1328 18.6342 14.9213 17.8457 15.8906 17.8457H56.1094C57.0787 17.8457 57.8672 18.6342 57.8672 19.6035V27.1973C57.8672 28.1666 57.0787 28.9551 56.1094 28.9551H28.2656C27.6832 28.9551 27.2109 29.4272 27.2109 30.0098C27.2109 30.5924 27.6832 31.0645 28.2656 31.0645Z" fill="#2D75B4"/>
<path id="Vector_3" d="M24.0355 21.3724C23.7482 20.8656 23.1044 20.6877 22.5978 20.975L21.6377 21.5193C21.6377 21.3243 21.6377 20.7216 21.6377 20.5176C21.6377 19.935 21.1654 19.4629 20.583 19.4629C20.0005 19.4629 19.5283 19.935 19.5283 20.5176V21.4872L18.6051 20.9444C18.1032 20.6492 17.4566 20.8168 17.1613 21.3189C16.8661 21.821 17.0337 22.4675 17.5359 22.7627L18.4726 23.3133L17.6497 23.7798C16.7075 24.2716 17.1309 25.7917 18.1707 25.7521C18.5448 25.7907 19.2067 25.2963 19.5283 25.1395V26.2832C19.5283 26.8658 20.0005 27.3379 20.583 27.3379C21.1654 27.3379 21.6377 26.8658 21.6377 26.2832C21.6377 26.026 21.6377 25.425 21.6377 25.1742C21.9642 25.341 22.5881 25.829 22.9726 25.7912C23.3342 25.7912 23.6863 25.6051 23.8827 25.271C24.1779 24.7688 24.0103 24.1224 23.5081 23.8272L22.6909 23.3467L23.6379 22.8099C24.1447 22.5227 24.3226 21.8791 24.0355 21.3724Z" fill="#2D75B4"/>
<path id="Vector_4" d="M31.7627 20.5176C31.7627 19.935 31.2904 19.4629 30.708 19.4629C30.1255 19.4629 29.6533 19.935 29.6533 20.5176V21.4872L28.7301 20.9444C28.228 20.6492 27.5816 20.8168 27.2863 21.3189C26.9911 21.821 27.1587 22.4675 27.6609 22.7627L28.5976 23.3133L27.7747 23.7798C26.8325 24.2716 27.2559 25.7917 28.2957 25.7521C28.6698 25.7907 29.3317 25.2963 29.6533 25.1395V26.2832C29.6533 26.8658 30.1255 27.3379 30.708 27.3379C31.2904 27.3379 31.7627 26.8658 31.7627 26.2832C31.7627 26.026 31.7627 25.425 31.7627 25.1742C32.0892 25.341 32.7131 25.829 33.0976 25.7912C33.4592 25.7912 33.8113 25.6051 34.0077 25.271C34.3029 24.7688 34.1353 24.1224 33.6331 23.8272L32.8159 23.3467L33.7629 22.8099C34.2697 22.5227 34.4476 21.8791 34.1605 21.3723C33.8732 20.8655 33.2292 20.6876 32.7228 20.9749L31.7627 21.5191C31.7627 21.3242 31.7627 20.7216 31.7627 20.5176Z" fill="#2D75B4"/>
<path id="Vector_5" d="M41.8877 20.5176C41.8877 19.935 41.4154 19.4629 40.833 19.4629C40.2505 19.4629 39.7783 19.935 39.7783 20.5176V21.4872L38.8551 20.9444C38.3532 20.6492 37.7066 20.8168 37.4113 21.3189C37.1161 21.821 37.2837 22.4675 37.7859 22.7627L38.7226 23.3133L37.8997 23.7798C37.3929 24.067 37.215 24.7106 37.5021 25.2174C37.6963 25.56 38.0532 25.7522 38.4207 25.7522C38.7948 25.7909 39.4567 25.2964 39.7783 25.1396V26.2833C39.7783 26.866 40.2505 27.338 40.833 27.338C41.4154 27.338 41.8877 26.866 41.8877 26.2833C41.8877 26.0261 41.8877 25.4251 41.8877 25.1744C42.2142 25.3412 42.8381 25.8291 43.2226 25.7913C43.5842 25.7913 43.9363 25.6053 44.1327 25.2711C44.4279 24.769 44.2603 24.1225 43.7581 23.8273L42.9409 23.3468L43.8879 22.81C44.3947 22.5229 44.5726 21.8792 44.2855 21.3724C43.9982 20.8656 43.3544 20.6877 42.8478 20.975L41.8877 21.5193C41.8877 21.3242 41.8877 20.7216 41.8877 20.5176Z" fill="#2D75B4"/>
<path id="Vector_6" d="M53.5078 27.2676C54.0903 27.2676 54.5625 26.7955 54.5625 26.2129C54.5625 25.6303 54.0903 25.1582 53.5078 25.1582H48.0234C47.441 25.1582 46.9688 25.6303 46.9688 26.2129C46.9688 26.7955 47.441 27.2676 48.0234 27.2676H53.5078Z" fill="#2D75B4"/>
<path id="Vector_7" d="M59.2031 52.9297C57.1483 52.9297 55.4766 54.6014 55.4766 56.6562C55.4766 58.3449 56.6058 59.7738 58.1484 60.23V62.0923C58.1484 62.6749 58.6207 63.1469 59.2031 63.1469C59.7856 63.1469 60.2578 62.6749 60.2578 62.0923V60.23C61.8005 59.7738 62.9297 58.3449 62.9297 56.6562C62.9297 54.6014 61.2579 52.9297 59.2031 52.9297ZM59.2031 58.2734C58.3114 58.2734 57.5859 57.548 57.5859 56.6562C57.5859 55.7645 58.3114 55.0391 59.2031 55.0391C60.0948 55.0391 60.8203 55.7645 60.8203 56.6562C60.8203 57.548 60.0948 58.2734 59.2031 58.2734Z" fill="#2D75B4"/>
</g>
</svg>
