<svg width="64" height="72" viewBox="0 0 64 72" fill="none" xmlns="http://www.w3.org/2000/svg">
<g id="Group">
<g id="Group_2">
<path id="Vector" d="M33.4443 33.9288C34.6655 32.7087 35.4219 31.0236 35.4219 29.1649C35.4219 25.45 32.3996 22.4277 28.6847 22.4277C24.9699 22.4277 21.9475 25.4499 21.9475 29.1649C21.9475 31.0234 22.7041 32.7085 23.9251 33.9288C20.855 34.5558 18.5381 37.2773 18.5381 40.53V44.5077C18.5381 45.0903 19.0103 45.5624 19.5928 45.5624H37.7767C38.3592 45.5624 38.8314 45.0902 38.8314 44.5077V40.53C38.8314 37.2773 36.5145 34.5557 33.4443 33.9288ZM28.6847 24.5373C31.2365 24.5373 33.3124 26.6133 33.3124 29.1649C33.3124 31.7166 31.2364 33.7926 28.6847 33.7926C26.133 33.7926 24.0569 31.7166 24.0569 29.1649C24.0569 26.6133 26.133 24.5373 28.6847 24.5373ZM36.722 43.4529H34.2856V41.9506C34.2856 41.368 33.8133 40.8959 33.2309 40.8959C32.6484 40.8959 32.1762 41.3681 32.1762 41.9506V43.4529H25.1937V41.9506C25.1937 41.368 24.7215 40.8959 24.139 40.8959C23.5566 40.8959 23.0844 41.3681 23.0844 41.9506V43.4529H20.6479V40.53C20.6479 37.9782 22.7239 35.9021 25.2756 35.9021H32.0945C34.6463 35.9021 36.7223 37.9782 36.7223 40.53V43.4529H36.722Z" fill="#2D75B4"/>
<path id="Vector_2" d="M61.2571 56.8038C61.266 57.3808 61.7365 57.8422 62.3114 57.8422C62.317 57.8422 62.3226 57.8422 62.3281 57.842C62.9106 57.833 63.3755 57.3535 63.3663 56.771C63.3104 53.1579 61.8608 49.7701 59.285 47.2316C58.338 46.2984 57.2781 45.5197 56.1371 44.9073C56.5276 42.8896 56.7257 40.8295 56.7257 38.7713L56.73 21.1681C56.7301 20.5855 56.258 20.1133 55.6755 20.1132C55.6754 20.1132 55.6754 20.1132 55.6753 20.1132C55.0929 20.1132 54.6207 20.5852 54.6206 21.1676L54.6164 38.771C54.6164 40.5364 54.4582 42.3024 54.1506 44.0383C53.3829 43.7733 52.5901 43.577 51.7795 43.4523C52.0433 41.912 52.179 40.3426 52.179 38.7713L52.1847 14.1183C52.1848 13.6271 51.8458 13.2007 51.3671 13.0904C47.5526 12.2102 44.5195 9.17747 43.6396 5.36414C43.5292 4.88559 43.103 4.54655 42.6118 4.54655H14.7566C14.2654 4.54655 13.8393 4.88559 13.7288 5.36414C12.8489 9.17747 9.81577 12.21 6.00131 13.0904C5.52277 13.2007 5.18386 13.6268 5.18372 14.1178L5.1795 33.5237C5.17936 34.1063 5.65158 34.5786 6.23405 34.5787C6.81638 34.5787 7.28873 34.1065 7.28888 33.5243L7.29281 14.9271C11.2309 13.7254 14.3636 10.593 15.5652 6.65606H41.8026C43.0042 10.5927 46.1371 13.725 50.0747 14.9269L50.0693 38.771C50.0693 40.2898 49.9326 41.806 49.6662 43.291C47.962 43.2915 46.3299 43.6058 44.8235 44.1776C46.078 41.7163 46.7864 38.9318 46.7864 35.9848C46.7864 26.0033 38.6658 17.8826 28.6843 17.8826C18.7027 17.8826 10.582 26.0031 10.582 35.9848C10.582 45.9662 18.7027 54.0869 28.6843 54.0869C31.6256 54.0869 34.405 53.3812 36.863 52.1311C36.2881 53.6415 35.9723 55.2787 35.9723 56.9886C35.9723 58.4965 36.2178 59.9479 36.6699 61.3059C36.4414 61.4301 36.2126 61.5504 35.9845 61.6653L28.8394 65.276C28.7373 65.3283 28.6193 65.3282 28.5134 65.2739L21.3719 61.6652C17.1333 59.5243 13.5778 56.2551 11.0898 52.2114C8.60231 48.1658 7.28733 43.518 7.28733 38.7709V38.4459C7.28733 37.8633 6.81511 37.3912 6.23264 37.3912C5.65017 37.3912 5.17795 37.8634 5.17795 38.4459V38.7709C5.17795 43.9083 6.60094 48.9381 9.2932 53.3164C11.9859 57.6931 15.8338 61.2311 20.4209 63.548L27.5597 67.1553C27.9108 67.3341 28.2959 67.4232 28.6802 67.4231C29.064 67.4231 29.447 67.3342 29.7949 67.1566L36.9353 63.5483C37.1211 63.4546 37.3074 63.357 37.4936 63.2575C37.8698 63.9854 38.3098 64.675 38.8053 65.3199C38.5494 65.4585 38.2925 65.5941 38.0351 65.7236L30.7665 69.3968C29.4595 70.056 27.8982 70.056 26.5911 69.397L19.3217 65.7236C14.3326 63.2028 10.1476 59.3537 7.21884 54.5922C4.29019 49.831 2.74219 44.3599 2.74219 38.7709L2.74781 11.2825C2.74781 11.0808 2.91178 10.9167 3.11344 10.9167H3.68156C8.02336 10.9167 11.5556 7.38436 11.5556 3.0427V2.47458C11.5556 2.27292 11.7197 2.10895 11.9212 2.10895H45.448C45.6497 2.10895 45.8137 2.27292 45.8137 2.47458V3.0427C45.8137 7.3845 49.3459 10.9167 53.6877 10.9167H54.2558C54.4575 10.9167 54.6214 11.0808 54.6214 11.2822L54.62 16.245C54.6199 16.8275 55.092 17.2998 55.6744 17.3H55.6747C56.257 17.3 56.7292 16.8279 56.7294 16.2456L56.7308 11.2825C56.7308 9.91758 55.6204 8.8072 54.2557 8.8072H53.6875C50.509 8.8072 47.923 6.22125 47.923 3.04256V2.47444C47.9235 1.11038 46.8131 0 45.4483 0H11.9215C10.5567 0 9.44634 1.11037 9.44634 2.47514V3.04327C9.44634 6.22195 6.86039 8.80791 3.6817 8.80791H3.11358C1.74881 8.80791 0.638438 9.91828 0.638438 11.2829L0.632812 38.7713C0.632812 44.7511 2.28895 50.6042 5.42208 55.698C8.55548 60.7922 13.033 64.9102 18.3704 67.6072L25.6409 71.281C26.5922 71.7604 27.6355 72.0003 28.6789 72.0003C29.7225 72.0003 30.7661 71.7604 31.7173 71.2807L38.9857 67.6077C39.4106 67.3935 39.8351 67.1659 40.2555 66.9295C42.712 69.2577 46.0278 70.6878 49.6714 70.6878C52.4779 70.6878 55.1759 69.8446 57.4739 68.2494C59.7181 66.6914 61.4305 64.5289 62.4255 61.9957C62.6385 61.4534 62.3717 60.8413 61.8294 60.6284C61.2872 60.4148 60.675 60.6822 60.462 61.2245C59.6202 63.3676 58.1709 65.1977 56.271 66.5166C54.3279 67.8655 52.0459 68.5785 49.6714 68.5785C43.281 68.5785 38.082 63.3794 38.082 56.989C38.082 50.5993 43.281 45.4008 49.6714 45.4008C52.7345 45.4008 55.6228 46.5847 57.8042 48.7344C59.9833 50.8819 61.2096 53.7477 61.2571 56.8038ZM12.6918 35.985C12.6918 27.1665 19.8661 19.9922 28.6845 19.9922C37.503 19.9922 44.6773 27.1665 44.6773 35.985C44.6773 44.8034 37.503 51.9775 28.6845 51.9775C19.8661 51.9775 12.6918 44.8034 12.6918 35.985Z" fill="#2D75B4"/>
<path id="Vector_3" d="M48.5701 56.2432C48.1581 55.8315 47.4903 55.8314 47.0784 56.2434C46.6665 56.6553 46.6666 57.3231 47.0784 57.735L48.3096 58.966C48.5156 59.1719 48.7854 59.2748 49.0554 59.2748C49.3254 59.2748 49.5953 59.1719 49.8012 58.966L52.2635 56.5037C52.6754 56.0917 52.6754 55.424 52.2635 55.0119C51.8518 54.6002 51.1838 54.6002 50.7719 55.0119L49.0553 56.7285L48.5701 56.2432Z" fill="#2D75B4"/>
<path id="Vector_4" d="M41.7979 56.989C41.7979 61.3305 45.3301 64.8626 49.6716 64.8626C54.0131 64.8626 57.5453 61.3303 57.5453 56.989C57.5453 52.6473 54.0131 49.1152 49.6716 49.1152C45.3301 49.1152 41.7979 52.6473 41.7979 56.989ZM55.4358 56.989C55.4358 60.1674 52.85 62.7532 49.6716 62.7532C46.4932 62.7532 43.9074 60.1674 43.9074 56.989C43.9074 53.8106 46.4932 51.2246 49.6716 51.2246C52.85 51.2246 55.4358 53.8106 55.4358 56.989Z" fill="#2D75B4"/>
</g>
</g>
</svg>
