<svg width="72" height="66" viewBox="0 0 72 66" fill="none" xmlns="http://www.w3.org/2000/svg">
<g id="Group">
<path id="Vector" d="M71.4308 56.4043C70.9734 55.8006 70.3102 55.4188 69.5734 55.3224V16.4748C69.5734 13.0816 66.8124 10.3212 63.4184 10.3212H57.6151C58.0938 8.86993 57.7583 7.20662 56.6064 6.05476C55.8912 5.33841 54.95 4.91879 53.9681 4.84426C53.8936 3.8634 53.4741 2.92248 52.7589 2.20712C51.9707 1.41793 50.9221 0.983398 49.8063 0.983398C48.6906 0.983398 47.642 1.41793 46.8542 2.2067C45.5739 3.4868 45.2847 5.39762 46.0384 6.96249L44.9217 8.0792C42.689 6.33291 39.9473 5.21832 36.9816 5.02327C33.3497 4.78491 29.8744 5.85859 27.0605 8.06162L25.9614 6.96249C26.7151 5.39762 26.4262 3.48695 25.1462 2.20712C24.358 1.41793 23.3093 0.983398 22.1936 0.983398C21.0779 0.983398 20.0293 1.41793 19.2413 2.2067C18.5257 2.92234 18.1064 3.8634 18.0317 4.84426C17.05 4.91865 16.1088 5.33813 15.394 6.05405C14.2417 7.20634 13.906 8.86979 14.3847 10.3212H8.58155C5.18771 10.3212 2.42653 13.0816 2.42653 16.4748V55.3226C1.6898 55.4189 1.02675 55.8007 0.569159 56.4044C0.0359094 57.1081 -0.132841 57.9994 0.106222 58.8499L0.414191 59.9454C1.254 62.9318 4.00758 65.0176 7.11047 65.0176H64.8894C67.9922 65.0176 70.746 62.9318 71.5856 59.9454L71.8937 58.8497C72.1328 57.9992 71.9641 57.108 71.4308 56.4043ZM48.1966 6.45329C47.5324 5.63162 47.5966 4.44727 48.3461 3.69774C48.7358 3.30751 49.2544 3.09263 49.8063 3.09263C50.3581 3.09263 50.8766 3.30751 51.2669 3.69816C51.7938 4.22495 51.9959 4.99895 51.7945 5.71796C51.6917 6.08485 51.7948 6.4786 52.0641 6.74804C52.3335 7.01748 52.7267 7.12084 53.0941 7.01804C53.8147 6.81638 54.5881 7.01846 55.1144 7.54538C55.9201 8.35116 55.9201 9.66221 55.1145 10.468C54.3662 11.2161 53.1813 11.2798 52.3583 10.6162C51.9389 10.278 51.3317 10.3105 50.9505 10.6916L48.8657 12.7764C48.2274 11.5743 47.4248 10.4705 46.4891 9.49473L48.1222 7.86179C48.5036 7.48056 48.5356 6.87277 48.1966 6.45329ZM16.8863 7.54496C17.4118 7.01846 18.1857 6.81666 18.906 7.01818C19.2733 7.12084 19.6666 7.01776 19.9359 6.74818C20.2053 6.47874 20.3084 6.08499 20.2056 5.7181C20.0041 4.99895 20.2063 4.22509 20.7337 3.69788C21.1233 3.30779 21.642 3.09277 22.1939 3.09277C22.7457 3.09277 23.2642 3.30765 23.6544 3.6983C24.4034 4.44741 24.4675 5.63176 23.8035 6.45343C23.4645 6.87291 23.4965 7.4807 23.878 7.86207L25.4944 9.47841C24.5511 10.465 23.7568 11.5757 23.1292 12.7714L21.0498 10.692C20.6684 10.3109 20.0615 10.2784 19.642 10.6166C18.8186 11.2804 17.6339 11.2164 16.8859 10.4684C16.08 9.66249 16.08 8.35145 16.8863 7.54496ZM69.8633 58.2788L69.5553 59.3743C68.9701 61.455 67.0516 62.9082 64.8895 62.9082H7.11061C4.9485 62.9082 3.02996 61.455 2.44482 59.3743L2.13699 58.2791C2.05655 57.9928 2.17355 57.7799 2.25061 57.6783C2.32725 57.5771 2.50022 57.4071 2.79652 57.4071H25.1954V57.7754C25.1954 59.6707 26.7374 61.2127 28.6327 61.2127H43.3678C45.2632 61.2127 46.8051 59.6707 46.8051 57.7754V57.4071H50.0443C50.6267 57.4071 51.099 56.9349 51.099 56.3524C51.099 55.7699 50.6269 55.2977 50.0443 55.2977H4.53591V16.4748C4.53591 14.2448 6.35082 12.4306 8.58155 12.4306H15.958C17.1947 13.2967 18.7996 13.4238 20.1496 12.7748L21.9146 14.5398H11.3716C8.76535 14.5398 6.64514 16.6593 6.64514 19.2646V26.1115C6.64514 26.694 7.11722 27.1662 7.69983 27.1662C8.28244 27.1662 8.75452 26.694 8.75452 26.1115V19.2646C8.75452 17.8224 9.92846 16.6492 11.3716 16.6492H21.747C21.5542 17.5943 21.4539 18.5618 21.4539 19.5375C21.4539 21.3138 21.7703 23.0423 22.3958 24.6877C21.1553 25.678 20.4147 27.1854 20.4147 28.8087C20.4147 29.8578 20.7193 30.8599 21.2862 31.7149L20.1495 32.8517C18.5838 32.0989 16.6731 32.3879 15.394 33.6668C13.7658 35.2949 13.7658 37.9441 15.394 39.5723C16.1093 40.2875 17.0504 40.7066 18.0317 40.7808C18.1062 41.7624 18.5257 42.7039 19.2415 43.4198C20.0553 44.2336 21.1243 44.6406 22.1936 44.6406C23.2627 44.6406 24.3318 44.2336 25.1456 43.4198C26.4259 42.1397 26.7151 40.2289 25.9614 38.6639L26.892 37.7332C27.2927 38.7848 28.3093 39.5355 29.5004 39.5355H42.4993C43.6904 39.5355 44.707 38.7849 45.1076 37.7332L46.0383 38.6639C45.2845 40.2289 45.5737 42.1396 46.854 43.4198C47.6678 44.2336 48.7369 44.6406 49.806 44.6406C50.8752 44.6406 51.9444 44.2336 52.7583 43.4198C53.4741 42.7039 53.8935 41.7625 53.968 40.7808C54.9491 40.7064 55.8906 40.2875 56.6057 39.5723C58.2338 37.9441 58.2339 35.2949 56.6056 33.6668C55.3266 32.3878 53.4159 32.0988 51.8502 32.8517L50.7108 31.7122C51.2625 30.8789 51.585 29.8809 51.585 28.8087C51.585 27.8363 51.3173 26.885 50.8105 26.0567C50.4891 25.5324 50.0796 25.0698 49.6031 24.6886C49.6753 24.4986 49.7433 24.3075 49.807 24.1158C49.9908 23.5631 49.6917 22.966 49.1391 22.7822C48.5854 22.5982 47.989 22.8976 47.8054 23.4502C47.6704 23.8563 47.5125 24.2604 47.336 24.651C47.1075 25.1568 47.3101 25.7532 47.7996 26.0151C48.2971 26.2813 48.7164 26.6769 49.0118 27.1585C49.3151 27.6543 49.4756 28.225 49.4756 28.8089C49.4756 30.5543 48.0557 31.9743 46.3103 31.9743H44.2374C43.655 31.9743 43.1828 32.4466 43.1828 33.029V36.7442C43.1828 37.1202 42.8761 37.4262 42.4993 37.4262H29.5004C29.1235 37.4262 28.8169 37.1202 28.8169 36.7442V33.029C28.8169 32.4466 28.3448 31.9743 27.7622 31.9743H25.6894C24.844 31.9743 24.049 31.645 23.4512 31.0472C22.8533 30.4493 22.524 29.6543 22.524 28.8089C22.524 27.638 23.1659 26.5676 24.1995 26.0154C24.6892 25.7536 24.8922 25.157 24.6636 24.651C23.9334 23.0348 23.5632 21.3144 23.5632 19.5377C23.5632 16.0608 24.9614 12.8365 27.5004 10.4587C30.038 8.08229 33.3555 6.89963 36.8432 7.12843C42.8786 7.52541 47.8403 12.366 48.3842 18.3867C48.4011 18.5759 48.4143 18.7687 48.4234 18.9599C48.4514 19.5417 48.9485 19.9906 49.5275 19.9626C50.1094 19.9346 50.5583 19.4401 50.5303 18.8584C50.5197 18.6387 50.5045 18.4171 50.4851 18.1983C50.4377 17.6733 50.3581 17.1572 50.2551 16.6493H60.6283C62.0714 16.6493 63.2453 17.8227 63.2453 19.2648V48.4635C63.2453 49.9057 62.0714 51.0791 60.6283 51.0791H11.3716C9.9286 51.0791 8.75452 49.9057 8.75452 48.4635V31.0333C8.75452 30.4508 8.28244 29.9786 7.69983 29.9786C7.11722 29.9786 6.64514 30.4508 6.64514 31.0333V48.4633C6.64514 51.0687 8.76535 53.1882 11.3716 53.1882H60.6284C63.2346 53.1882 65.3548 51.0687 65.3548 48.4633V19.2646C65.3548 16.6594 63.2346 14.5398 60.6284 14.5398H50.0855L51.8503 12.7748C53.2 13.4239 54.8051 13.2967 56.0419 12.4304H63.4184C65.6491 12.4304 67.4641 14.2446 67.4641 16.4746V55.2976H54.9656C54.3831 55.2976 53.9109 55.7698 53.9109 56.3522C53.9109 56.9347 54.383 57.4069 54.9656 57.4069H69.2036C69.4997 57.4069 69.6729 57.5768 69.7495 57.6782C69.8266 57.7797 69.9436 57.9928 69.8633 58.2788ZM44.6955 57.4072V57.7752C44.6955 58.5075 44.0998 59.1033 43.3675 59.1033H28.6324C27.9002 59.1033 27.3045 58.5076 27.3045 57.7752V57.4072H44.6955ZM26.7077 34.9345L23.8778 37.7643C23.4964 38.1457 23.4643 38.7536 23.8034 39.1729C24.4675 39.9946 24.4034 41.1791 23.6543 41.9281C22.8491 42.7331 21.5386 42.7336 20.7331 41.9281C20.2063 41.4013 20.0042 40.6266 20.2056 39.9064C20.3081 39.5395 20.205 39.1459 19.9358 38.8765C19.6662 38.6072 19.273 38.504 18.9058 38.6066C18.1853 38.808 17.4115 38.6065 16.8856 38.0806C16.0798 37.2748 16.0798 35.9637 16.8855 35.1579C17.6334 34.41 18.8183 34.346 19.6417 35.0096C20.0609 35.3478 20.668 35.3154 21.0495 34.9342L22.7764 33.2073C23.6328 33.777 24.6375 34.0831 25.6894 34.0831H26.7076V34.9345H26.7077ZM49.2208 33.2049L50.9503 34.9346C51.3316 35.3156 51.9384 35.3484 52.3581 35.01C53.1809 34.3465 54.3661 34.41 55.1142 35.1584C55.92 35.9641 55.92 37.2752 55.1142 38.081C54.5884 38.6069 53.8146 38.8084 53.094 38.6071C52.7273 38.5045 52.3334 38.6076 52.0641 38.8769C51.7948 39.1462 51.6917 39.54 51.7942 39.9069C51.9957 40.627 51.7935 41.4017 51.2669 41.9285C50.4615 42.7336 49.1512 42.7338 48.3455 41.9285C47.5966 41.1794 47.5324 39.995 48.1965 39.1734C48.5355 38.7539 48.5034 38.1461 48.1221 37.7647L45.2921 34.9349V34.0839H46.3103C47.3855 34.0834 48.386 33.7594 49.2208 33.2049Z" fill="#2D75B4"/>
<path id="Vector_2" d="M35.2199 26.6738C35.2604 25.534 34.652 24.5114 33.6322 24.0051L29.9765 22.1905C28.9567 21.6841 27.7743 21.8178 26.8911 22.5392C26.0129 23.2564 25.6475 24.381 25.9379 25.4741C26.3506 27.0283 27.4129 28.3296 28.8525 29.0443C29.6327 29.4316 30.4829 29.6263 31.3352 29.6263C32.0554 29.6263 32.7771 29.4871 33.4582 29.2074C34.5045 28.7778 35.1795 27.8069 35.2199 26.6738ZM33.1119 26.5988C33.1067 26.7424 33.0521 27.0939 32.6572 27.2561C31.7309 27.6365 30.6861 27.5994 29.7906 27.1548C28.8948 26.71 28.2337 25.9002 27.9768 24.9327C27.8671 24.5199 28.1142 24.2639 28.2256 24.173C28.2879 24.1221 28.4648 23.9979 28.7044 23.9979C28.8059 23.9979 28.9187 24.0203 29.0388 24.0799L32.6945 25.8946C33.0978 26.0948 33.1158 26.4842 33.1119 26.5988Z" fill="#2D75B4"/>
<path id="Vector_3" d="M45.109 22.5392C44.2256 21.8179 43.0435 21.6841 42.0236 22.1905L38.3679 24.0051C37.3481 24.5113 36.7397 25.534 36.7802 26.6737C36.8206 27.8069 37.4956 28.7777 38.5417 29.2074C39.2232 29.4872 39.9444 29.6263 40.6647 29.6263C41.5168 29.6263 42.3673 29.4315 43.1474 29.0442C44.587 28.3296 45.6493 27.0284 46.062 25.4742C46.3524 24.381 45.9872 23.2564 45.109 22.5392ZM44.0234 24.9328C43.7665 25.9003 43.1054 26.7101 42.2096 27.1549C41.3141 27.5996 40.2691 27.6366 39.343 27.2562C38.948 27.094 38.8935 26.7425 38.8883 26.5989C38.8844 26.4843 38.9024 26.0949 39.306 25.8945L42.9615 24.0799C43.3653 23.8795 43.6859 24.1006 43.7748 24.1731C43.8861 24.2638 44.1331 24.5199 44.0234 24.9328Z" fill="#2D75B4"/>
<path id="Vector_4" d="M38.1338 30.3325C37.6884 29.5611 36.8908 29.1006 36.0002 29.1006C35.1096 29.1006 34.312 29.5611 33.8666 30.3325L32.5528 32.6079C32.1074 33.3792 32.1074 34.3002 32.5528 35.0717C32.9981 35.843 33.7958 36.3034 34.6863 36.3034H37.3139C38.2045 36.3034 39.0021 35.843 39.4475 35.0717C39.8928 34.3003 39.8928 33.3794 39.4475 32.6079L38.1338 30.3325ZM37.6209 34.0168C37.5828 34.0831 37.4921 34.194 37.3141 34.194H34.6865C34.5084 34.194 34.4179 34.0831 34.3796 34.0168C34.3415 33.9507 34.2906 33.8167 34.3796 33.6626L35.6935 31.3871C35.7825 31.233 35.924 31.21 36.0003 31.21C36.0767 31.21 36.2182 31.233 36.3072 31.3871L37.621 33.6626C37.7099 33.8167 37.659 33.9507 37.6209 34.0168Z" fill="#2D75B4"/>
</g>
</svg>
