<svg width="72" height="72" viewBox="0 0 72 72" fill="none" xmlns="http://www.w3.org/2000/svg">
<g id="Group">
<g id="Group_2">
<path id="Vector" d="M68.1047 0H15.2423C14.6599 0 14.1877 0.472219 14.1877 1.05469C14.1877 1.63716 14.6599 2.10938 15.2423 2.10938H68.1047C69.0895 2.10938 69.8906 2.91052 69.8906 3.89531V31.2525H60.7036C60.1211 31.2525 59.6489 31.7247 59.6489 32.3072C59.6489 32.8897 60.1211 33.3619 60.7036 33.3619H69.8906V36.934H52.1529C51.6971 36.4974 51.1471 36.1515 50.5242 35.9366L43.0575 33.3619H55.7817C56.3642 33.3619 56.8364 32.8897 56.8364 32.3072C56.8364 31.7247 56.3642 31.2525 55.7817 31.2525H2.10938V3.89531C2.10938 2.91052 2.91052 2.10938 3.89531 2.10938H10.3205C10.9029 2.10938 11.3752 1.63716 11.3752 1.05469C11.3752 0.472219 10.9029 0 10.3205 0H3.89531C1.74741 0 0 1.74741 0 3.89531V43.6711C0 45.819 1.74741 47.5664 3.89531 47.5664H18.467V55.9942C18.467 60.1983 20.5671 64.0828 24.0846 66.3853L29.8706 70.1726C31.6973 71.368 33.8168 72 36 72C38.1832 72 40.3027 71.368 42.1293 70.1724L47.9153 66.3851C51.4329 64.0827 53.5328 60.1982 53.5328 55.9941V47.5664H68.1047C70.2526 47.5664 72 45.819 72 43.6711V3.89531C72 1.74741 70.2526 0 68.1047 0ZM28.9425 33.3619L21.4757 35.9366C20.8527 36.1515 20.3029 36.4974 19.847 36.934H2.10938V33.3619H28.9425ZM3.89531 45.457C2.91052 45.457 2.10938 44.6559 2.10938 43.6711V39.0434H18.6103C18.5179 39.4017 18.4672 39.7747 18.4672 40.1567V45.457H3.89531ZM51.4236 55.9942C51.4236 59.4842 49.6803 62.709 46.7602 64.6203L40.9742 68.4076C39.4917 69.3778 37.7717 69.8906 36 69.8906C34.2283 69.8906 32.5083 69.3778 31.0258 68.4075L25.2398 64.6201C22.3197 62.7089 20.5764 59.4841 20.5764 55.9941V40.1567C20.5764 39.1527 21.2141 38.2582 22.1633 37.9308L34.8619 33.552C35.2288 33.4254 35.6144 33.3622 35.9999 33.3622C36.3853 33.3622 36.7709 33.4254 37.1379 33.552L49.8365 37.9308C50.7857 38.2582 51.4235 39.1527 51.4235 40.1567L51.4236 55.9942ZM68.1047 45.457H53.533V40.1567C53.533 39.7747 53.4822 39.4017 53.3898 39.0434H69.8906V43.6711C69.8906 44.6559 69.0895 45.457 68.1047 45.457Z" fill="#2D75B4"/>
<path id="Vector_2" d="M20.5759 8.15692C20.5759 6.79202 19.4656 5.68164 18.1007 5.68164H8.15692C6.79202 5.68164 5.68164 6.79202 5.68164 8.15692V13.839C5.68164 15.2039 6.79202 16.3143 8.15692 16.3143H18.1007C19.4656 16.3143 20.5759 15.2039 20.5759 13.839V8.15692ZM18.4666 13.8392C18.4666 14.041 18.3025 14.2051 18.1007 14.2051H8.15692C7.95513 14.2051 7.79102 14.041 7.79102 13.8392V8.15692C7.79102 7.95513 7.95513 7.79102 8.15692 7.79102H18.1007C18.3025 7.79102 18.4666 7.95513 18.4666 8.15692V13.8392Z" fill="#2D75B4"/>
<path id="Vector_3" d="M6.7373 25.5703C6.15484 25.5703 5.68262 26.0425 5.68262 26.625C5.68262 27.2075 6.15484 27.6797 6.7373 27.6797H10.9989C11.5814 27.6797 12.0536 27.2075 12.0536 26.625C12.0536 26.0425 11.5814 25.5703 10.9989 25.5703H6.7373Z" fill="#2D75B4"/>
<path id="Vector_4" d="M15.2598 25.5703C14.6773 25.5703 14.2051 26.0425 14.2051 26.625C14.2051 27.2075 14.6773 27.6797 15.2598 27.6797H19.5214C20.1039 27.6797 20.5761 27.2075 20.5761 26.625C20.5761 26.0425 20.1039 25.5703 19.5214 25.5703H15.2598Z" fill="#2D75B4"/>
<path id="Vector_5" d="M28.0448 27.6797C28.6273 27.6797 29.0995 27.2075 29.0995 26.625C29.0995 26.0425 28.6273 25.5703 28.0448 25.5703H23.7832C23.2007 25.5703 22.7285 26.0425 22.7285 26.625C22.7285 27.2075 23.2007 27.6797 23.7832 27.6797H28.0448Z" fill="#2D75B4"/>
<path id="Vector_6" d="M36.5683 27.6797C37.1507 27.6797 37.623 27.2075 37.623 26.625C37.623 26.0425 37.1507 25.5703 36.5683 25.5703H32.3066C31.7242 25.5703 31.252 26.0425 31.252 26.625C31.252 27.2075 31.7242 27.6797 32.3066 27.6797H36.5683Z" fill="#2D75B4"/>
<path id="Vector_7" d="M52.5608 7.10352H49.7197C49.1373 7.10352 48.665 7.57573 48.665 8.1582C48.665 8.74067 49.1373 9.21289 49.7197 9.21289H52.5608C53.1432 9.21289 53.6155 8.74067 53.6155 8.1582C53.6155 7.57573 53.1432 7.10352 52.5608 7.10352Z" fill="#2D75B4"/>
<path id="Vector_8" d="M57.1554 5.73605C56.6027 5.55184 56.0056 5.85052 55.8212 6.40318L52.9802 14.9263C52.796 15.479 53.0947 16.0762 53.6473 16.2604C53.758 16.2973 53.8704 16.3149 53.981 16.3149C54.4226 16.3149 54.8341 16.0353 54.9814 15.5934L57.8225 7.0703C58.0066 6.51751 57.708 5.92027 57.1554 5.73605Z" fill="#2D75B4"/>
<path id="Vector_9" d="M57.1875 13.8398C57.1875 14.4223 57.6597 14.8945 58.2422 14.8945H61.0834C61.6658 14.8945 62.1381 14.4223 62.1381 13.8398C62.1381 13.2574 61.6658 12.7852 61.0834 12.7852H58.2422C57.6597 12.7852 57.1875 13.2572 57.1875 13.8398Z" fill="#2D75B4"/>
<path id="Vector_10" d="M47.6039 39.4376L36.4259 35.5836C36.1492 35.4916 35.8623 35.4878 35.5636 35.5873L24.3952 39.438C23.3989 39.7832 22.7295 40.7235 22.7295 41.7776V47.9018C22.7295 48.4843 23.2017 48.9565 23.7842 48.9565C24.3666 48.9565 24.8389 48.4843 24.8389 47.9018V41.7776C24.8389 41.6215 24.9381 41.4823 25.0843 41.4316L36.0003 37.668L46.9149 41.4312C47.0625 41.4824 47.1617 41.6216 47.1617 41.7776V55.9948C47.1617 58.0421 46.1392 59.934 44.4269 61.055L38.7088 64.7972C38.06 65.2222 37.3438 65.4958 36.6387 65.5885C35.4884 65.7384 34.3243 65.4733 33.3603 64.8421L27.5739 61.055C25.8614 59.9338 24.8389 58.042 24.8389 55.9946V52.8235C24.8389 52.2411 24.3666 51.7688 23.7842 51.7688C23.2017 51.7688 22.7295 52.2411 22.7295 52.8235V55.9946C22.7295 58.7559 24.1085 61.3074 26.4185 62.8199L32.2048 66.6068C33.3373 67.3486 34.6611 67.7386 36.0089 67.7386C36.3095 67.7386 36.6114 67.7192 36.9125 67.68C37.9312 67.5461 38.952 67.1594 39.8642 66.5619L45.5822 62.8199C47.8921 61.3074 49.2711 58.7561 49.2711 55.9946V41.7774C49.2711 40.7235 48.6017 39.7832 47.6039 39.4376Z" fill="#2D75B4"/>
<path id="Vector_11" d="M32.1601 56.7714C32.8552 57.4665 33.7794 57.8493 34.7622 57.8493C35.7452 57.8493 36.6694 57.4665 37.3645 56.7714L43.5527 50.5832C44.9876 49.1483 44.9876 46.8136 43.5527 45.3787C42.8576 44.6836 41.9334 44.3008 40.9504 44.3008C39.9675 44.3008 39.0433 44.6836 38.3482 45.3787L34.7622 48.9646L33.6516 47.854C32.9565 47.1588 32.0323 46.7761 31.0493 46.7761C30.0663 46.7761 29.1421 47.159 28.447 47.8541C27.7519 48.5492 27.3691 49.4734 27.3691 50.4564C27.3691 51.4393 27.7519 52.3635 28.447 53.0585L32.1601 56.7714ZM29.9386 49.3456C30.2449 49.0393 30.6471 48.8863 31.0493 48.8863C31.4515 48.8863 31.8538 49.0394 32.16 49.3456L34.0163 51.2021C34.2141 51.4 34.4824 51.511 34.7621 51.511C35.0418 51.511 35.3101 51.4 35.5078 51.2021L39.8396 46.8703C40.452 46.2579 41.4485 46.2579 42.0611 46.8703C42.6735 47.4827 42.6735 48.4792 42.0611 49.0917L35.8729 55.2799C35.5762 55.5767 35.1817 55.7399 34.7622 55.7399C34.3427 55.7399 33.9483 55.5765 33.6516 55.2799L29.9386 51.567C29.3262 50.9546 29.3262 49.958 29.9386 49.3456Z" fill="#2D75B4"/>
</g>
</g>
</svg>
