<svg width="72" height="64" viewBox="0 0 72 64" fill="none" xmlns="http://www.w3.org/2000/svg">
<g id="Group">
<path id="Vector" d="M67.2559 29.2025V22.9336C67.2559 22.351 66.7836 21.8789 66.2012 21.8789C65.6187 21.8789 65.1465 22.351 65.1465 22.9336V29.2025C65.1465 29.7851 65.6187 30.2572 66.2012 30.2572C66.7836 30.2572 67.2559 29.7851 67.2559 29.2025Z" fill="#2D75B4"/>
<path id="Vector_2" d="M59.7082 21.8789C58.0399 21.8789 56.6826 23.2362 56.6826 24.9046V27.2317C56.6826 28.8999 58.0399 30.2573 59.7082 30.2573C61.3764 30.2573 62.7337 28.9 62.7337 27.2317V24.9046C62.7337 23.2362 61.3764 21.8789 59.7082 21.8789ZM60.6243 27.2317C60.6243 27.7369 60.2133 28.148 59.7082 28.148C59.203 28.148 58.792 27.7369 58.792 27.2317V24.9046C58.792 24.3993 59.203 23.9883 59.7082 23.9883C60.2133 23.9883 60.6243 24.3993 60.6243 24.9046V27.2317Z" fill="#2D75B4"/>
<path id="Vector_3" d="M16.2336 21.8789C14.5653 21.8789 13.208 23.2362 13.208 24.9046V27.2317C13.208 28.8999 14.5652 30.2573 16.2336 30.2573C17.9019 30.2573 19.2591 28.9 19.2591 27.2317V24.9046C19.2591 23.2362 17.9018 21.8789 16.2336 21.8789ZM17.1497 27.2317C17.1497 27.7369 16.7387 28.148 16.2336 28.148C15.7284 28.148 15.3174 27.7369 15.3174 27.2317V24.9046C15.3174 24.3993 15.7283 23.9883 16.2336 23.9883C16.7388 23.9883 17.1497 24.3993 17.1497 24.9046V27.2317Z" fill="#2D75B4"/>
<path id="Vector_4" d="M4.74414 24.9046V27.2317C4.74414 28.8999 6.10131 30.2573 7.76969 30.2573C9.43806 30.2573 10.7952 28.9 10.7952 27.2317V24.9046C10.7952 23.2364 9.43792 21.8789 7.76969 21.8789C6.10145 21.8789 4.74414 23.2362 4.74414 24.9046ZM8.68586 24.9046V27.2317C8.68586 27.7369 8.27481 28.148 7.76969 28.148C7.26456 28.148 6.85352 27.7369 6.85352 27.2317V24.9046C6.85352 24.3993 7.26442 23.9883 7.76969 23.9883C8.27495 23.9883 8.68586 24.3993 8.68586 24.9046Z" fill="#2D75B4"/>
<path id="Vector_5" d="M53.2158 30.2572C53.7983 30.2572 54.2705 29.7851 54.2705 29.2025V22.9336C54.2705 22.351 53.7983 21.8789 53.2158 21.8789C52.6334 21.8789 52.1611 22.351 52.1611 22.9336V29.2025C52.1611 29.7851 52.6334 30.2572 53.2158 30.2572Z" fill="#2D75B4"/>
<path id="Vector_6" d="M4.74414 33.7227V39.9914C4.74414 40.574 5.21636 41.0461 5.79883 41.0461C6.3813 41.0461 6.85352 40.574 6.85352 39.9914V33.7227C6.85352 33.14 6.3813 32.668 5.79883 32.668C5.21636 32.668 4.74414 33.14 4.74414 33.7227Z" fill="#2D75B4"/>
<path id="Vector_7" d="M9.26562 35.6935V38.0207C9.26562 39.689 10.6229 41.0463 12.2912 41.0463C13.9594 41.0463 15.3167 39.6891 15.3167 38.0207V35.6935C15.3167 34.0253 13.9594 32.668 12.2912 32.668C10.6229 32.668 9.26562 34.0253 9.26562 35.6935ZM13.2073 35.6935V38.0207C13.2073 38.5258 12.7963 38.9369 12.2912 38.9369C11.786 38.9369 11.375 38.5258 11.375 38.0207V35.6935C11.375 35.1884 11.786 34.7773 12.2912 34.7773C12.7963 34.7773 13.2073 35.1884 13.2073 35.6935Z" fill="#2D75B4"/>
<path id="Vector_8" d="M52.7412 35.6935V38.0207C52.7412 39.689 54.0985 41.0463 55.7668 41.0463C57.435 41.0463 58.7923 39.6891 58.7923 38.0207V35.6935C58.7923 34.0253 57.4351 32.668 55.7668 32.668C54.0984 32.668 52.7412 34.0253 52.7412 35.6935ZM56.6829 35.6935V38.0207C56.6829 38.5258 56.272 38.9369 55.7668 38.9369C55.2615 38.9369 54.8506 38.5258 54.8506 38.0207V35.6935C54.8506 35.1884 55.2616 34.7773 55.7668 34.7773C56.2719 34.7773 56.6829 35.1884 56.6829 35.6935Z" fill="#2D75B4"/>
<path id="Vector_9" d="M61.2041 35.6935V38.0207C61.2041 39.689 62.5614 41.0463 64.2297 41.0463C65.8979 41.0463 67.2552 39.6891 67.2552 38.0207V35.6935C67.2552 34.0253 65.898 32.668 64.2297 32.668C62.5613 32.668 61.2041 34.0253 61.2041 35.6935ZM65.1458 35.6935V38.0207C65.1458 38.5258 64.7349 38.9369 64.2297 38.9369C63.7244 38.9369 63.3135 38.5258 63.3135 38.0207V35.6935C63.3135 35.1884 63.7245 34.7773 64.2297 34.7773C64.7348 34.7773 65.1458 35.1884 65.1458 35.6935Z" fill="#2D75B4"/>
<path id="Vector_10" d="M17.7295 33.7227V39.9914C17.7295 40.574 18.2017 41.0461 18.7842 41.0461C19.3666 41.0461 19.8389 40.574 19.8389 39.9914V33.7227C19.8389 33.14 19.3666 32.668 18.7842 32.668C18.2017 32.668 17.7295 33.14 17.7295 33.7227Z" fill="#2D75B4"/>
<path id="Vector_11" d="M69.5389 5.88797H45.1316C43.2576 2.80322 39.8653 0.738281 35.9998 0.738281C32.1343 0.738281 28.742 2.80322 26.8681 5.88797H12.7812C12.1988 5.88797 11.7266 6.36005 11.7266 6.94266C11.7266 7.52527 12.1988 7.99734 12.7812 7.99734H25.8874C25.5234 9.07116 25.323 10.2199 25.323 11.4152V19.0727C23.2927 19.1872 21.6758 20.8748 21.6758 22.9333V29.98C21.6758 30.5626 22.148 31.0347 22.7305 31.0347C23.3129 31.0347 23.7852 30.5626 23.7852 29.98V22.9333C23.7852 21.9639 24.5736 21.1755 25.543 21.1755H46.4567C47.426 21.1755 48.2145 21.9639 48.2145 22.9333V38.7705C48.2145 39.7398 47.426 40.5283 46.4567 40.5283H25.543C24.5736 40.5283 23.7852 39.7398 23.7852 38.7705V34.9019C23.7852 34.3193 23.3129 33.8472 22.7305 33.8472C22.148 33.8472 21.6758 34.3193 21.6758 34.9019V38.7705C21.6758 40.9027 23.4105 42.6376 25.543 42.6376H46.4567C48.5892 42.6376 50.3239 40.9027 50.3239 38.7705V22.9331C50.3239 20.8008 48.5892 19.0659 46.4567 19.0659H31.6512V11.4152C31.6512 9.0173 33.602 7.06641 35.9998 7.06641C38.3976 7.06641 40.3485 9.0173 40.3485 11.4152C40.3485 13.1598 41.7679 14.5793 43.5126 14.5793C45.2573 14.5793 46.6767 13.1598 46.6767 11.4152C46.6767 10.2199 46.4763 9.0713 46.1123 7.99734H69.5389C69.7327 7.99734 69.8905 8.15498 69.8905 8.34891V14.4633C69.8905 15.0459 70.3627 15.518 70.9452 15.518C71.5276 15.518 71.9998 15.0459 71.9998 14.4633V8.34891C71.9998 6.99202 70.8958 5.88797 69.5389 5.88797ZM43.5126 12.4699C42.931 12.4699 42.4579 11.9969 42.4579 11.4152C42.4579 7.85419 39.5608 4.95703 35.9998 4.95703C32.4389 4.95703 29.5418 7.85419 29.5418 11.4152V19.0659H27.4324V11.4152C27.4324 6.69108 31.2758 2.84766 35.9998 2.84766C40.7239 2.84766 44.5673 6.69108 44.5673 11.4152C44.5673 11.9967 44.0942 12.4699 43.5126 12.4699Z" fill="#2D75B4"/>
<path id="Vector_12" d="M70.9453 18.3292C70.3628 18.3292 69.8906 18.8013 69.8906 19.3839V47.7227C69.8906 47.9166 69.7328 48.0742 69.5391 48.0742H2.46094C2.26716 48.0742 2.10938 47.9166 2.10938 47.7227V8.34766C2.10938 8.15373 2.26716 7.99609 2.46094 7.99609H7.85953C8.442 7.99609 8.91422 7.52402 8.91422 6.94141C8.91422 6.3588 8.442 5.88672 7.85953 5.88672H2.46094C1.10405 5.88658 0 6.99063 0 8.34752V47.7225C0 49.0794 1.10405 50.1835 2.46094 50.1835H24.3948L21.3061 55.9491H19.6875C18.7958 55.9491 18.0703 56.6746 18.0703 57.5663V61.6444C18.0703 62.5361 18.7958 63.2616 19.6875 63.2616H40.8403C41.4228 63.2616 41.895 62.7895 41.895 62.2069C41.895 61.6243 41.4228 61.1522 40.8403 61.1522H20.1797V58.0585H51.8203V61.1522H45.7622C45.1797 61.1522 44.7075 61.6243 44.7075 62.2069C44.7075 62.7895 45.1797 63.2616 45.7622 63.2616H52.3125C53.2042 63.2616 53.9297 62.5361 53.9297 61.6444V57.5663C53.9297 56.6746 53.2042 55.9491 52.3125 55.9491H50.6939L47.6052 50.1835H69.5391C70.896 50.1835 72 49.0794 72 47.7225V19.3838C72 18.8013 71.5278 18.3292 70.9453 18.3292ZM28.9969 55.9491C31.0418 54.5499 33.4565 53.7985 35.9992 53.7985H36.0301C38.5626 53.8045 40.9652 54.5566 43.0013 55.9491H28.9969ZM48.3007 55.9491H46.2894C43.5521 53.2089 39.9236 51.6984 36.035 51.6891C36.0229 51.6891 36.0111 51.6891 35.999 51.6891C32.1005 51.6891 28.4583 53.1997 25.7113 55.9491H23.6991L26.7879 50.1835H45.2121L48.3007 55.9491Z" fill="#2D75B4"/>
<path id="Vector_13" d="M49.1022 17.4986L54.0513 19.814C54.1959 19.8816 54.3479 19.9137 54.4975 19.9137C54.8942 19.9137 55.2743 19.6887 55.4535 19.3056C55.7003 18.778 55.4728 18.1502 54.9451 17.9034L49.996 15.588C49.4685 15.341 48.8406 15.5686 48.5937 16.0964C48.347 16.624 48.5746 17.2518 49.1022 17.4986Z" fill="#2D75B4"/>
<path id="Vector_14" d="M49.5497 13.8237C49.6993 13.8237 49.8515 13.7917 49.9959 13.724L54.9451 11.4088C55.4727 11.162 55.7004 10.5342 55.4536 10.0066C55.2068 9.47886 54.5789 9.25104 54.0514 9.49826L49.1022 11.8135C48.5746 12.0603 48.3469 12.6881 48.5937 13.2157C48.7729 13.5987 49.1529 13.8237 49.5497 13.8237Z" fill="#2D75B4"/>
<path id="Vector_15" d="M33.9902 36.9925H38.0549C38.6373 36.9925 39.1095 36.5204 39.1095 35.9378V32.0888C39.9122 31.2761 40.3635 30.1867 40.3635 29.0278C40.3635 26.6217 38.4059 24.6641 35.9996 24.6641C33.5934 24.6641 31.6357 26.6217 31.6357 29.0278C31.6357 30.213 32.1036 31.3187 32.9355 32.1352V35.9378C32.9355 36.5204 33.4078 36.9925 33.9902 36.9925ZM35.9998 26.7734C37.2429 26.7734 38.2543 27.7847 38.2543 29.0278C38.2543 29.7191 37.9426 30.363 37.3991 30.7945C37.1471 30.9946 37.0003 31.2987 37.0003 31.6205V34.883H35.0449V31.6564C35.0449 31.328 34.8921 31.0185 34.6313 30.8189C34.0681 30.3878 33.7451 29.7349 33.7451 29.0278C33.7453 27.7848 34.7566 26.7734 35.9998 26.7734Z" fill="#2D75B4"/>
</g>
</svg>
