<svg width="72" height="68" viewBox="0 0 72 68" fill="none" xmlns="http://www.w3.org/2000/svg">
<g id="Group">
<path id="Vector" d="M31.5227 51.8652C29.3187 51.8652 27.4688 53.4055 26.9895 55.4658H24.3174C23.7348 55.4658 23.2627 55.9379 23.2627 56.5205C23.2627 57.1031 23.7348 57.5752 24.3174 57.5752H26.9895C27.4688 59.6355 29.3187 61.1756 31.5227 61.1756C34.0896 61.1756 36.178 59.0872 36.178 56.5205C36.178 53.9537 34.0896 51.8652 31.5227 51.8652ZM31.5227 59.0662C30.119 59.0662 28.9769 57.9242 28.9769 56.5205C28.9769 55.1168 30.1189 53.9746 31.5227 53.9746C32.9264 53.9746 34.0686 55.1166 34.0686 56.5205C34.0686 57.9243 32.9264 59.0662 31.5227 59.0662Z" fill="#2D75B4"/>
<path id="Vector_2" d="M56.1662 39.8008C54.3115 39.8008 52.8027 41.3095 52.8027 43.1642C52.8027 45.0188 54.3115 46.5279 56.1662 46.5279C58.0208 46.5279 59.5297 45.019 59.5297 43.1642C59.5297 41.3095 58.0209 39.8008 56.1662 39.8008ZM56.1662 44.4185C55.4748 44.4185 54.9121 43.8558 54.9121 43.1642C54.9121 42.4728 55.4748 41.9102 56.1662 41.9102C56.8577 41.9102 57.4203 42.4728 57.4203 43.1642C57.4203 43.8558 56.8577 44.4185 56.1662 44.4185Z" fill="#2D75B4"/>
<path id="Vector_3" d="M0 62.5233C0 65.4052 2.34478 67.75 5.22675 67.75H62.5545C65.4365 67.75 67.7812 65.4052 67.7812 62.5233V50.498H68.8359C70.5805 50.498 72 49.0785 72 47.3339V38.9946C72 37.25 70.5805 35.8305 68.8359 35.8305H67.7812V23.8053C67.7812 20.9233 65.4365 18.5785 62.5545 18.5785H58.6644V15.461C58.6644 12.5792 56.3196 10.2344 53.4375 10.2344H44.1731C43.4651 8.42327 42.419 6.74491 41.0687 5.28677C40.6728 4.85927 40.0057 4.83367 39.5782 5.22953C39.1508 5.62525 39.1251 6.29266 39.521 6.72002C41.8539 9.23945 43.1388 12.5191 43.1388 15.955C43.1388 16.8387 43.0523 17.7183 42.8844 18.5786H40.9181C41.115 17.7222 41.2168 16.8443 41.2168 15.955C41.2168 9.51831 35.98 4.28144 29.5432 4.28144C23.1064 4.28144 17.8696 9.51817 17.8696 15.955C17.8696 16.8443 17.9715 17.7221 18.1683 18.5786H16.202C16.0339 17.7182 15.9476 16.8385 15.9476 15.955C15.9476 8.45828 22.0465 2.35938 29.5432 2.35938C31.8046 2.35938 34.0432 2.92539 36.017 3.99653C36.529 4.27455 37.1693 4.08442 37.447 3.57255C37.7248 3.06053 37.5351 2.42041 37.023 2.14253C34.7413 0.904328 32.1546 0.25 29.5431 0.25C22.9008 0.25 17.2087 4.3952 14.9169 10.2344H5.22675C2.34478 10.2344 0 12.5792 0 15.4613L0 62.5233ZM44.8297 12.3438H53.4375C55.1565 12.3438 56.555 13.7421 56.555 15.4611V18.5786H45.0278C45.1731 17.7146 45.2482 16.8364 45.2482 15.955C45.2482 14.7271 45.1058 13.5164 44.8297 12.3438ZM19.9789 15.955C19.9789 10.6813 24.2693 6.39081 29.5431 6.39081C34.8168 6.39081 39.1073 10.6813 39.1073 15.955C39.1073 16.8495 38.9829 17.7293 38.7412 18.5786H33.3063C33.3674 18.0202 33.3017 17.4586 33.103 16.9366C32.7431 15.9911 31.9745 15.2689 30.9379 14.9024C29.999 14.5707 28.9607 14.1698 28.3791 13.7137C28.2002 13.5734 28.1232 13.2502 28.1873 12.9095C28.2194 12.739 28.3695 12.169 28.9516 11.9937C30.0379 11.6661 30.7565 12.2192 30.8403 12.2878C30.8661 12.313 30.8735 12.3175 30.9054 12.3421L31.0627 12.4633C31.5238 12.8189 32.1862 12.7336 32.542 12.2722C32.8977 11.8109 32.8122 11.1487 32.3509 10.7928L32.2246 10.6955C31.8884 10.3999 31.2962 10.0499 30.534 9.88197V9.47205C30.534 8.88944 30.062 8.41736 29.4794 8.41736C28.8967 8.41736 28.4247 8.88944 28.4247 9.47205V9.9527C28.3974 9.96044 28.3708 9.96564 28.3434 9.97394C27.1994 10.3185 26.3454 11.2937 26.1145 12.519C25.9019 13.6471 26.2707 14.741 27.0775 15.3735C27.7398 15.893 28.6547 16.3327 30.2351 16.8913C30.6903 17.0523 30.9919 17.3199 31.1316 17.6868C31.2344 17.9569 31.2425 18.2707 31.1653 18.5786H20.3452C20.1032 17.729 19.9789 16.8492 19.9789 15.955ZM5.22675 12.3438H14.2578C13.9839 13.5036 13.8382 14.7126 13.8382 15.955C13.8382 16.8363 13.913 17.7146 14.0583 18.5786H5.22675C3.50775 18.5786 2.10938 17.1801 2.10938 15.4611C2.10938 13.7421 3.50775 12.3438 5.22675 12.3438ZM62.5545 20.688C64.2735 20.688 65.6719 22.0864 65.6719 23.8054V35.8307H60.9026C60.32 35.8307 59.8479 36.3027 59.8479 36.8853C59.8479 37.468 60.32 37.94 60.9026 37.94H68.8359C69.4176 37.94 69.8906 38.4131 69.8906 38.9947V47.3341C69.8906 47.9157 69.4176 48.3888 68.8359 48.3888H56.1662C53.2855 48.3888 50.9418 46.0451 50.9418 43.1644C50.9418 40.2838 53.2855 37.9402 56.1662 37.9402C56.7488 37.9402 57.2209 37.4681 57.2209 36.8855C57.2209 36.3029 56.7488 35.8308 56.1662 35.8308C52.1224 35.8308 48.8325 39.1207 48.8325 43.1644C48.8325 47.2082 52.1224 50.4981 56.1662 50.4981H65.6719V62.5234C65.6719 64.2424 64.2735 65.6408 62.5545 65.6408H5.22675C3.50775 65.6406 2.10938 64.2422 2.10938 62.5233V44.1486H7.32516L16.1733 57.114C16.3697 57.402 16.696 57.5741 17.0445 57.5741H19.7208C20.3034 57.5741 20.7755 57.102 20.7755 56.5194C20.7755 55.9368 20.3034 55.4647 19.7208 55.4647H17.6016L9.87891 44.1486H34.3159C34.7951 46.2089 36.6451 47.7492 38.8491 47.7492C41.4159 47.7492 43.5043 45.6608 43.5043 43.0939C43.5043 40.5271 41.4159 38.4388 38.8491 38.4388C36.6451 38.4388 34.7951 39.9791 34.3159 42.0392H9.97495L17.6016 30.8636H26.9896C27.4688 32.9241 29.3188 34.4642 31.5228 34.4642C34.0896 34.4642 36.178 32.3758 36.178 29.809C36.178 27.2421 34.0896 25.1537 31.5228 25.1537C29.3188 25.1537 27.4688 26.694 26.9896 28.7543H17.0445C16.6958 28.7543 16.3697 28.9265 16.1733 29.2144L7.4212 42.0391H2.10938V19.6539C2.98027 20.3031 4.05942 20.688 5.22675 20.688H62.5545ZM36.3033 43.0939C36.3033 41.6901 37.4453 40.5482 38.8491 40.5482C40.2529 40.5482 41.3949 41.6902 41.3949 43.0939C41.3949 44.4977 40.2529 45.6398 38.8491 45.6398C37.4453 45.6398 36.3033 44.4977 36.3033 43.0939ZM28.977 29.809C28.977 28.4052 30.1191 27.2631 31.5229 27.2631C32.9266 27.2631 34.0688 28.4051 34.0688 29.809C34.0688 31.2127 32.9268 32.355 31.5229 32.355C30.1191 32.355 28.977 31.2128 28.977 29.809Z" fill="#2D75B4"/>
</g>
</svg>
