<svg width="62" height="72" viewBox="0 0 62 72" fill="none" xmlns="http://www.w3.org/2000/svg">
<g id="Group">
<g id="Group_2">
<g id="Group_3">
<path id="Vector" d="M59.9785 22.7158C59.3961 22.7158 58.9239 23.1879 58.9239 23.7705V41.73L47.4654 38.6745C47.2873 38.627 47.1 38.627 46.9219 38.6745L36.4005 41.4801C36.3995 41.4801 36.3987 41.48 36.3977 41.48H25.8857C25.3032 41.48 24.831 41.9521 24.831 42.5347C24.831 43.1173 25.3032 43.5894 25.8857 43.5894H33.3541V45.7416H25.8857C25.3032 45.7416 24.831 46.2137 24.831 46.7963C24.831 47.3789 25.3032 47.851 25.8857 47.851H33.3541V50.0033H25.8857C25.3032 50.0033 24.831 50.4753 24.831 51.0579C24.831 51.6406 25.3032 52.1126 25.8857 52.1126H33.3541V54.2649H25.8857C25.3032 54.2649 24.831 54.737 24.831 55.3196C24.831 55.9022 25.3032 56.3743 25.8857 56.3743H33.3541V56.9922C33.3541 57.4121 33.3759 57.8293 33.418 58.2426H25.8856C25.3031 58.2426 24.8309 58.7147 24.8309 59.2973C24.8309 59.8799 25.3031 60.352 25.8856 60.352H33.8219C34.0415 61.1291 34.3357 61.881 34.6987 62.5974C34.5668 62.538 34.4208 62.5043 34.2668 62.5043H25.8856C25.3031 62.5043 24.8309 62.9763 24.8309 63.5589C24.8309 64.1416 25.3031 64.6136 25.8856 64.6136H34.2668C34.8096 64.6136 35.2562 64.2034 35.3146 63.6762C36.3676 65.3252 37.8083 66.7313 39.5513 67.7403L43.2665 69.8909H4.86155C3.87662 69.8909 3.0752 69.0896 3.0752 68.1045V40.6555C3.0752 40.0729 2.60298 39.6008 2.02051 39.6008C1.43804 39.6008 0.96582 40.0729 0.96582 40.6555V68.1045C0.96582 70.2526 2.71337 72.0002 4.86155 72.0002H57.1375C59.2855 72.0002 61.0332 70.2526 61.0332 68.1045V23.7705C61.0332 23.188 60.561 22.7158 59.9785 22.7158ZM35.4635 56.992V43.9132L47.1938 40.7853L58.924 43.9132V56.9929C58.924 60.659 56.9527 64.0777 53.7795 65.9146L47.1938 69.7269L40.6081 65.9146C37.4348 64.0776 35.4635 60.6587 35.4635 56.992ZM57.1375 69.8909H51.1208L54.8362 67.7401C56.4979 66.7781 57.8856 65.4557 58.924 63.9056V68.1044C58.9239 69.0896 58.1226 69.8909 57.1375 69.8909Z" fill="#2D75B4"/>
<path id="Vector_2" d="M57.1375 0H4.86155C2.71337 0 0.96582 1.74769 0.96582 3.89573V35.7287C0.96582 36.3113 1.43804 36.7834 2.02051 36.7834C2.60298 36.7834 3.0752 36.3113 3.0752 35.7287V12.3372H58.9239V18.8461C58.9239 19.4287 59.3961 19.9008 59.9785 19.9008C60.561 19.9008 61.0332 19.4287 61.0332 18.8461V3.89573C61.0332 1.74769 59.2857 0 57.1375 0ZM3.0752 3.89573C3.0752 2.91066 3.87648 2.10938 4.86155 2.10938H57.1375C58.1224 2.10938 58.9239 2.91066 58.9239 3.89573V10.2278H3.0752V3.89573Z" fill="#2D75B4"/>
<path id="Vector_3" d="M54.8649 4.74805C54.0804 4.74805 53.4443 5.38409 53.4443 6.16864C53.4443 6.95319 54.0804 7.58923 54.8649 7.58923C55.6495 7.58923 56.2855 6.95319 56.2855 6.16864C56.2855 5.38409 55.6495 4.74805 54.8649 4.74805Z" fill="#2D75B4"/>
<path id="Vector_4" d="M49.8932 4.74805C49.1087 4.74805 48.4727 5.38409 48.4727 6.16864C48.4727 6.95319 49.1087 7.58923 49.8932 7.58923C50.6778 7.58923 51.3138 6.95319 51.3138 6.16864C51.3137 5.38409 50.6778 4.74805 49.8932 4.74805Z" fill="#2D75B4"/>
<path id="Vector_5" d="M44.9421 4.74805C44.1575 4.74805 43.5215 5.38409 43.5215 6.16864C43.5215 6.95319 44.1575 7.58923 44.9421 7.58923C45.7266 7.58923 46.3627 6.95319 46.3627 6.16864C46.3627 5.38409 45.7266 4.74805 44.9421 4.74805Z" fill="#2D75B4"/>
<path id="Vector_6" d="M17.0785 37.907C23.1431 37.907 28.0769 32.9732 28.0769 26.9086C28.0769 20.844 23.1431 15.9102 17.0785 15.9102C11.0139 15.9102 6.08008 20.844 6.08008 26.9086C6.08008 32.9732 11.0139 37.907 17.0785 37.907ZM11.2305 33.5946C11.9209 30.9568 14.2964 29.0952 17.0753 29.094H17.0784H17.081C19.8605 29.0954 22.2361 30.9569 22.9267 33.5945C21.3624 34.9646 19.3164 35.7976 17.0785 35.7976C14.8406 35.7976 12.7948 34.9644 11.2305 33.5946ZM14.7239 24.6299C14.7239 23.3316 15.7801 22.2753 17.0785 22.2753C18.3769 22.2753 19.4331 23.3316 19.4331 24.6299C19.4331 25.9276 18.3777 26.9835 17.0802 26.9845C17.0795 26.9845 17.0786 26.9845 17.0779 26.9845C17.0774 26.9845 17.077 26.9845 17.0764 26.9845C15.7791 26.9834 14.7239 25.9276 14.7239 24.6299ZM17.0785 18.0195C21.98 18.0195 25.9675 22.0071 25.9675 26.9086C25.9675 28.7035 25.4311 30.3747 24.5125 31.7735C23.6787 29.9209 22.1871 28.463 20.3496 27.6633C21.0891 26.8664 21.5425 25.8003 21.5425 24.6299C21.5425 22.1684 19.54 20.1659 17.0785 20.1659C14.6171 20.1659 12.6145 22.1684 12.6145 24.6299C12.6145 25.8002 13.0677 26.8661 13.8073 27.663C11.9699 28.4628 10.4783 29.9209 9.64464 31.7736C8.72594 30.3747 8.18945 28.7034 8.18945 26.9084C8.18931 22.0071 12.177 18.0195 17.0785 18.0195Z" fill="#2D75B4"/>
<path id="Vector_7" d="M32.1357 26.2587H54.8644C55.4469 26.2587 55.9191 25.7866 55.9191 25.204V20.9424C55.9191 20.3598 55.4469 19.8877 54.8644 19.8877H32.1357C31.5533 19.8877 31.0811 20.3598 31.0811 20.9424V25.204C31.0811 25.7865 31.5531 26.2587 32.1357 26.2587ZM33.1904 21.9971H53.8097V24.1493H33.1904V21.9971Z" fill="#2D75B4"/>
<path id="Vector_8" d="M32.1357 30.5205H46.3411C46.9236 30.5205 47.3958 30.0484 47.3958 29.4658C47.3958 28.8832 46.9236 28.4111 46.3411 28.4111H32.1357C31.5533 28.4111 31.0811 28.8832 31.0811 29.4658C31.0811 30.0484 31.5531 30.5205 32.1357 30.5205Z" fill="#2D75B4"/>
<path id="Vector_9" d="M32.1357 34.7822H40.6589C41.2414 34.7822 41.7136 34.3101 41.7136 33.7275C41.7136 33.1449 41.2414 32.6729 40.6589 32.6729H32.1357C31.5533 32.6729 31.0811 33.1449 31.0811 33.7275C31.0811 34.3101 31.5531 34.7822 32.1357 34.7822Z" fill="#2D75B4"/>
<path id="Vector_10" d="M6.08008 46.7958C6.08008 47.3784 6.5523 47.8505 7.13477 47.8505H18.4991C19.0816 47.8505 19.5538 47.3784 19.5538 46.7958V42.5342C19.5538 41.9516 19.0816 41.4795 18.4991 41.4795H7.13477C6.5523 41.4795 6.08008 41.9516 6.08008 42.5342V46.7958ZM8.18945 43.589H17.4444V45.7413H8.18945V43.589Z" fill="#2D75B4"/>
<path id="Vector_11" d="M6.08008 55.3193C6.08008 55.9019 6.5523 56.3739 7.13477 56.3739H18.4991C19.0816 56.3739 19.5538 55.9019 19.5538 55.3193V51.0576C19.5538 50.475 19.0816 50.0029 18.4991 50.0029H7.13477C6.5523 50.0029 6.08008 50.475 6.08008 51.0576V55.3193ZM8.18945 52.1123H17.4444V54.2646H8.18945V52.1123Z" fill="#2D75B4"/>
<path id="Vector_12" d="M6.08008 63.5585C6.08008 64.1411 6.5523 64.6132 7.13477 64.6132H18.4991C19.0816 64.6132 19.5538 64.1411 19.5538 63.5585V59.2969C19.5538 58.7143 19.0816 58.2422 18.4991 58.2422H7.13477C6.5523 58.2422 6.08008 58.7143 6.08008 59.2969V63.5585ZM8.18945 60.3516H17.4444V62.5038H8.18945V60.3516Z" fill="#2D75B4"/>
<path id="Vector_13" d="M47.7238 66.9352L52.6956 64.0626C55.2099 62.6097 56.7719 59.9034 56.7719 56.9999V46.3764C56.7719 45.8987 56.4507 45.4804 55.989 45.3573L47.4657 43.0845C47.2876 43.0369 47.1002 43.0369 46.9222 43.0845L38.3991 45.3573C37.9374 45.4804 37.6162 45.8987 37.6162 46.3764V56.9913C37.6162 59.8924 39.1759 62.5975 41.6867 64.0511L46.6678 66.9346C46.8312 67.0293 47.0136 67.0765 47.1961 67.0765C47.3784 67.0766 47.5606 67.0295 47.7238 66.9352ZM42.7435 62.2256C40.8821 61.148 39.7256 59.1423 39.7256 56.9914V47.1866L47.194 45.1951L54.6626 47.1866V56.9999C54.6626 59.1526 53.5046 61.1589 51.6403 62.2361L47.1967 64.8034L42.7435 62.2256Z" fill="#2D75B4"/>
</g>
</g>
</g>
</svg>
