<svg width="72" height="72" viewBox="0 0 72 72" fill="none" xmlns="http://www.w3.org/2000/svg">
<g id="Group">
<g id="Group_2">
<g id="Group_3">
<path id="Vector" d="M22.7702 4.55928C23.3531 4.55928 23.8256 4.08678 23.8256 3.50389V1.4675C23.8256 0.884609 23.3531 0.412109 22.7702 0.412109C22.1873 0.412109 21.7148 0.884609 21.7148 1.4675V3.50389C21.7148 4.08664 22.1873 4.55928 22.7702 4.55928Z" fill="#2D75B4"/>
<path id="Vector_2" d="M36.9188 9.80218L38.3586 8.36218C38.7708 7.95001 38.7708 7.28176 38.3586 6.86973C37.9465 6.45742 37.2782 6.45756 36.8662 6.86973L35.4263 8.30973C35.0141 8.7219 35.0141 9.39015 35.4263 9.80218C35.6323 10.0083 35.9025 10.1113 36.1726 10.1113C36.4426 10.1113 36.7126 10.0082 36.9188 9.80218Z" fill="#2D75B4"/>
<path id="Vector_3" d="M8.62218 35.1119L7.18218 36.5517C6.77 36.9639 6.77 37.632 7.18218 38.0442C7.38819 38.2503 7.65833 38.3533 7.92847 38.3533C8.19861 38.3533 8.46861 38.2502 8.67477 38.0442L10.1148 36.6043C10.5269 36.1921 10.5269 35.524 10.1148 35.1119C9.7026 34.6997 9.03435 34.6997 8.62218 35.1119Z" fill="#2D75B4"/>
<path id="Vector_4" d="M43.7596 23.5131C44.3425 23.5131 44.815 23.0406 44.815 22.4577C44.815 21.8748 44.3425 21.4023 43.7596 21.4023H41.7234C41.1405 21.4023 40.668 21.8748 40.668 22.4577C40.668 23.0406 41.1405 23.5131 41.7234 23.5131H43.7596Z" fill="#2D75B4"/>
<path id="Vector_5" d="M3.81737 21.4023H1.78098C1.19809 21.4023 0.725586 21.8748 0.725586 22.4577C0.725586 23.0406 1.19809 23.5131 1.78098 23.5131H3.81737C4.40026 23.5131 4.87276 23.0406 4.87276 22.4577C4.87276 21.8748 4.40012 21.4023 3.81737 21.4023Z" fill="#2D75B4"/>
<path id="Vector_6" d="M36.9188 35.1119C36.5066 34.6997 35.8383 34.6997 35.4263 35.1119C35.0141 35.524 35.0141 36.1923 35.4263 36.6043L36.7458 37.9238C36.9518 38.1298 37.222 38.2329 37.4921 38.2329C37.7622 38.2329 38.0322 38.1298 38.2384 37.9238C38.6506 37.5116 38.6506 36.8434 38.2384 36.4313L36.9188 35.1119Z" fill="#2D75B4"/>
<path id="Vector_7" d="M8.62203 9.80213C8.82805 10.0081 9.09819 10.1112 9.36833 10.1112C9.63847 10.1112 9.90847 10.0081 10.1146 9.80213C10.5268 9.38996 10.5268 8.72171 10.1146 8.30968L8.67463 6.86968C8.26246 6.4575 7.59421 6.4575 7.18218 6.86968C6.77 7.28185 6.77 7.9501 7.18218 8.36213L8.62203 9.80213Z" fill="#2D75B4"/>
<path id="Vector_8" d="M19.3908 30.2729C19.4738 30.1901 19.5706 30.1708 19.6791 30.2155C19.7875 30.2605 19.8423 30.3427 19.8423 30.4599C19.8423 31.8558 20.9779 32.9913 22.3737 32.9913H23.1661C24.562 32.9913 25.6975 31.8558 25.6975 30.4599C25.6975 30.3427 25.7525 30.2604 25.8608 30.2155C25.9692 30.1708 26.0661 30.1899 26.1491 30.2729C26.6272 30.751 27.2628 31.0143 27.939 31.0143C28.6151 31.0143 29.2509 30.751 29.729 30.2729L30.2894 29.7125C30.7675 29.2344 31.0307 28.5988 31.0307 27.9226C31.0307 27.2465 30.7675 26.6108 30.2894 26.1326C30.2064 26.0497 30.1871 25.9526 30.232 25.8443C30.277 25.7359 30.3591 25.6811 30.4764 25.6811C31.8722 25.6811 33.0078 24.5455 33.0078 23.1497V22.3573C33.0078 20.9614 31.8721 19.8259 30.4764 19.8259C30.3591 19.8259 30.277 19.7709 30.232 19.6626C30.1871 19.5542 30.2064 19.4573 30.2894 19.3743C30.7675 18.8962 31.0307 18.2606 31.0307 17.5843C31.0307 16.9082 30.7675 16.2724 30.2894 15.7944L29.7291 15.234C29.251 14.7559 28.6152 14.4927 27.9391 14.4927C27.263 14.4927 26.6272 14.7559 26.1492 15.234C26.0661 15.3169 25.9692 15.3361 25.8609 15.2914C25.7525 15.2464 25.6977 15.1643 25.6977 15.047C25.6977 13.6512 24.5621 12.5156 23.1663 12.5156H22.3739C20.978 12.5156 19.8425 13.6512 19.8425 15.047C19.8425 15.1643 19.7875 15.2466 19.6792 15.2914C19.5708 15.3363 19.4739 15.3169 19.3909 15.234C18.9128 14.7559 18.277 14.4927 17.6011 14.4927C16.9249 14.4927 16.2892 14.7559 15.811 15.2342L15.2508 15.7944C14.7727 16.2726 14.5094 16.9083 14.5094 17.5845C14.5094 18.2606 14.7727 18.8963 15.2508 19.3745C15.3338 19.4574 15.353 19.5545 15.308 19.6628C15.2632 19.7712 15.1809 19.826 15.0636 19.826C13.6678 19.826 12.5322 20.9616 12.5322 22.3574V23.1498C12.5322 24.5457 13.6678 25.6812 15.0636 25.6812C15.1809 25.6812 15.2632 25.7362 15.308 25.8445C15.353 25.9529 15.3336 26.0498 15.2508 26.1328C14.7727 26.6109 14.5094 27.2467 14.5094 27.9228C14.5094 28.5989 14.7727 29.2347 15.2508 29.7127L15.8112 30.273C16.7979 31.2598 18.4039 31.2598 19.3908 30.2729ZM15.0635 23.5703C14.8314 23.5703 14.6429 23.3816 14.6429 23.1497V22.3573C14.6429 22.1252 14.8316 21.9367 15.0635 21.9367C16.0276 21.9367 16.8891 21.3611 17.2579 20.4704C17.6269 19.5796 17.4247 18.5635 16.743 17.8817C16.6358 17.7746 16.6198 17.6494 16.6198 17.5843C16.6198 17.5192 16.6357 17.3942 16.7431 17.2868L17.3034 16.7265C17.4673 16.5624 17.7342 16.5623 17.8982 16.7265C18.5799 17.4082 19.5961 17.6102 20.4867 17.2415C21.3775 16.8726 21.9531 16.0111 21.9531 15.047C21.9531 14.815 22.1418 14.6264 22.3737 14.6264H23.1661C23.3982 14.6264 23.5868 14.8151 23.5868 15.047C23.5868 16.0111 24.1623 16.8726 25.0531 17.2415C25.9438 17.6106 26.9598 17.4084 27.6417 16.7265C27.7488 16.6193 27.874 16.6033 27.9391 16.6033C28.0042 16.6033 28.1292 16.6192 28.2365 16.7265L28.7969 17.2869C28.9609 17.4509 28.9609 17.7178 28.7969 17.8817C28.1152 18.5635 27.9131 19.5795 28.2819 20.4702C28.6509 21.3609 29.5123 21.9365 30.4764 21.9365C30.7084 21.9365 30.8971 22.1252 30.8971 22.3571V23.1495C30.8971 23.3816 30.7084 23.5702 30.4764 23.5702C29.5123 23.5702 28.6509 24.1457 28.2819 25.0365C27.9129 25.9272 28.115 26.9433 28.7969 27.6249C28.9609 27.7889 28.9609 28.0558 28.7969 28.2198L28.2365 28.7802C28.0724 28.9441 27.8056 28.9441 27.6417 28.7802C26.9599 28.0984 25.9436 27.8963 25.0532 28.2652C24.1625 28.6342 23.5869 29.4955 23.5869 30.4597C23.5869 30.6917 23.3982 30.8803 23.1663 30.8803H22.3739C22.1418 30.8803 21.9533 30.6915 21.9533 30.4597C21.9533 29.4954 21.3777 28.6341 20.4868 28.2652C20.1912 28.1427 19.8819 28.0832 19.5754 28.0832C18.9585 28.0832 18.3538 28.3245 17.8983 28.78C17.7342 28.9441 17.4675 28.944 17.3035 28.78L16.7431 28.2196C16.6359 28.1125 16.6199 27.9873 16.6199 27.9222C16.6199 27.8571 16.6358 27.7321 16.7431 27.6248C17.4249 26.943 17.6269 25.927 17.2581 25.0363C16.8889 24.1459 16.0276 23.5703 15.0635 23.5703Z" fill="#2D75B4"/>
<path id="Vector_9" d="M22.7701 26.4172C24.7902 26.4172 26.4339 24.7738 26.4339 22.7535C26.4339 20.7333 24.7904 19.0898 22.7701 19.0898C20.7501 19.0898 19.1064 20.7333 19.1064 22.7535C19.1064 24.7738 20.7499 26.4172 22.7701 26.4172ZM22.7701 21.2006C23.6264 21.2006 24.3231 21.8973 24.3231 22.7535C24.3231 23.6098 23.6264 24.3065 22.7701 24.3065C21.9139 24.3065 21.2172 23.6098 21.2172 22.7535C21.2172 21.8973 21.9139 21.2006 22.7701 21.2006Z" fill="#2D75B4"/>
<path id="Vector_10" d="M70.8721 39.1996L67.7239 32.5911C67.6029 32.3369 67.537 32.0536 67.5335 31.7721L67.4733 26.9312C67.4733 12.1321 55.5589 0.0507656 40.9142 0.000140625C40.8833 0 40.8523 0 40.8212 0C36.0608 0 31.3908 1.26956 27.3104 3.67411C26.8082 3.96998 26.641 4.617 26.9369 5.11917C27.2328 5.62134 27.8798 5.78855 28.382 5.49267C32.1379 3.27937 36.4374 2.11078 40.8212 2.11078C40.8498 2.11078 40.8783 2.11078 40.9069 2.11092C54.3917 2.15761 65.3626 13.292 65.3627 26.9443L65.4229 31.7981C65.4301 32.3827 65.5669 32.9707 65.8183 33.4987L68.9665 40.1072C69.5979 41.4328 68.6238 42.9373 67.1901 42.9375C64.9327 42.911 63.0795 44.738 63.0794 47.0084L63.0789 55.5328C63.0788 57.5719 61.2681 59.1324 59.2538 58.8378L51.8853 57.7571C49.6507 57.4293 47.6463 59.1635 47.6463 61.4198V63.7516L25.3524 61.6902V58.193C25.3524 57.6101 24.8799 57.1376 24.297 57.1376C23.7141 57.1376 23.2416 57.6101 23.2416 58.193V61.495L22.8539 61.4592C20.775 61.2667 18.9775 62.9063 18.9775 64.9936V68.424C18.9775 70.3794 20.5683 71.9717 22.5237 71.9736L50.2573 72H50.2608C52.221 72 53.8102 70.4139 53.8102 68.4505V67.5579C53.8102 65.7128 52.4248 64.1933 50.5875 64.0235L49.757 63.9467V61.4197C49.757 60.4477 50.6156 59.7047 51.5789 59.8454L58.9474 60.9261C62.2383 61.409 65.1894 58.8548 65.1896 55.5328L65.19 47.0084C65.1902 45.9222 66.0727 45.0354 67.1798 45.0481C70.183 45.0482 72.1661 41.9161 70.8721 39.1996ZM51.6994 67.5581V68.4506C51.6994 69.2452 51.0565 69.8894 50.2607 69.8894C50.2603 69.8894 50.2597 69.8894 50.2593 69.8894L22.5255 69.8628C21.7329 69.8621 21.0882 69.2166 21.0882 68.424V64.9936C21.0882 64.1526 21.8086 63.4821 22.6594 63.5611L24.1884 63.7024C24.1888 63.7024 24.1891 63.7024 24.1895 63.7026L50.3932 66.1255C51.1379 66.1943 51.6994 66.8101 51.6994 67.5581Z" fill="#2D75B4"/>
<path id="Vector_11" d="M20.6905 54.3147H25.1469C27.9269 54.3147 30.2194 52.1896 30.4861 49.4786C31.3272 49.104 31.9159 48.2617 31.9159 47.2832V42.1882C31.9159 41.3568 31.4915 40.6231 30.8481 40.1912C31.6395 37.444 33.015 34.8536 34.8615 32.653C43.562 22.285 35.9652 6.56552 22.5458 6.74369C9.31702 6.92805 2.22164 22.4442 10.6153 32.5759C12.4864 34.8347 13.8797 37.4542 14.6807 40.1994C14.0443 40.6322 13.6252 41.362 13.6252 42.1881V47.2831C13.6252 48.378 14.3618 49.3023 15.3649 49.5914C15.6834 52.2481 17.9494 54.3147 20.6905 54.3147ZM16.0288 47.5761C15.8672 47.5761 15.7358 47.4448 15.7358 47.2832V42.1882C15.7358 42.0266 15.8672 41.8953 16.0288 41.8953H29.5101C29.5136 41.8956 29.5171 41.896 29.5206 41.8961C29.678 41.9009 29.8048 42.0297 29.8048 42.1882V47.2832C29.8048 47.4448 29.6733 47.5761 29.5119 47.5761H16.0288ZM25.1469 52.204H20.6905C19.1495 52.204 17.8562 51.1272 17.5211 49.6868H28.3163C27.9812 51.1272 26.6879 52.204 25.1469 52.204ZM22.5751 8.85419C34.2803 8.69978 40.7094 22.4003 33.2446 31.2963C31.1694 33.7691 29.6335 36.6891 28.7693 39.7845H16.7578C15.8849 36.6998 14.3345 33.757 12.2406 31.2295C4.96777 22.4504 11.1252 9.01394 22.5751 8.85419Z" fill="#2D75B4"/>
</g>
</g>
</g>
</svg>
