<svg width="58" height="72" viewBox="0 0 58 72" fill="none" xmlns="http://www.w3.org/2000/svg">
<g id="Group">
<path id="Vector" d="M7.61681 16.3753C8.00198 16.5332 8.39897 16.6103 8.78977 16.6103C9.57937 16.6103 10.3437 16.2954 10.9342 15.6962L16.3773 10.1719C17.2529 9.2833 17.4975 8.01641 17.0159 6.86567C16.5343 5.7148 15.46 5 14.2124 5H8.76938C7.09369 5 5.73047 6.36322 5.73047 8.03891V13.5634C5.73047 14.821 6.45314 15.8984 7.61681 16.3753ZM7.83984 8.03905C7.83984 7.52647 8.25694 7.10952 8.76938 7.10952H14.2124C14.7866 7.10952 15.014 7.5463 15.0701 7.68031C15.126 7.81419 15.2776 8.28275 14.8746 8.69169L9.43144 14.216C9.02545 14.628 8.55225 14.4791 8.41683 14.4237C8.28141 14.3682 7.8397 14.1423 7.8397 13.5635L7.83984 8.03905Z" fill="#2D75B4"/>
<path id="Vector_2" d="M37.164 26.3751C37.164 21.8734 33.5016 18.2109 28.9999 18.2109C24.4982 18.2109 20.8359 21.8732 20.8359 26.3751C20.8359 30.8769 24.4982 34.5392 28.9999 34.5392C33.5016 34.5392 37.164 30.8768 37.164 26.3751ZM22.9455 26.3751C22.9455 23.0365 25.6615 20.3203 29.0001 20.3203C32.3386 20.3203 35.0548 23.0363 35.0548 26.3751C35.0548 29.7138 32.3385 32.4298 28.9999 32.4298C25.6615 32.4298 22.9455 29.7136 22.9455 26.3751Z" fill="#2D75B4"/>
<path id="Vector_3" d="M28.9992 43.6719C38.5367 43.6719 46.2961 35.9125 46.2961 26.375C46.2961 16.8375 38.5367 9.07812 28.9992 9.07812C26.709 9.07812 24.4821 9.51983 22.3804 10.3911C21.8424 10.6142 21.5869 11.2312 21.8099 11.7693C22.0329 12.3073 22.65 12.5628 23.1882 12.3396C25.0325 11.5751 26.9877 11.1875 28.9992 11.1875C37.3737 11.1875 44.1867 18.0006 44.1867 26.375C44.1867 34.7494 37.3737 41.5625 28.9992 41.5625C27.4509 41.5625 25.9349 41.3319 24.4771 40.8772L25.8868 38.086C26.2344 37.3979 26.0249 36.5826 25.389 36.147C24.7531 35.7115 23.917 35.8114 23.4012 36.3843L23.4014 36.3841L20.866 39.2C16.4951 36.4225 13.8117 31.5839 13.8117 26.375C13.8117 21.6177 15.9795 17.2245 19.759 14.3223C20.2211 13.9675 20.308 13.3055 19.9532 12.8434C19.5987 12.3814 18.9364 12.2946 18.4744 12.6492C14.1707 15.954 11.7024 20.9569 11.7024 26.375C11.7024 32.188 14.6361 37.5963 19.437 40.7871L14.6902 46.0591V43.4092C14.6902 41.9256 13.4832 40.7186 11.9996 40.7186H7.95132C6.46773 40.7186 5.26074 41.9256 5.26074 43.4092V55.7219C5.26074 56.4405 5.54059 57.1162 6.0488 57.6244L9.21441 60.79C9.72263 61.2981 10.3983 61.5781 11.1169 61.5781H13.1618C13.7444 61.5781 14.2164 61.106 14.2164 60.5234C14.2164 59.9408 13.7444 59.4687 13.1618 59.4687H11.1169C10.9617 59.4687 10.8157 59.4082 10.7059 59.2984L7.54027 56.1328C7.43045 56.0231 7.36998 55.8771 7.36998 55.7219V43.4092C7.36998 43.0887 7.63069 42.828 7.95118 42.828H11.9995C12.32 42.828 12.5807 43.0887 12.5807 43.4092V48.4019L10.735 50.4518C9.95438 51.3186 9.58609 52.4801 9.72418 53.6384C9.86227 54.7966 10.4937 55.8389 11.4561 56.4979C12.3966 57.1416 13.5931 57.3748 14.7484 57.0781C15.8782 56.788 16.8277 56.0244 17.3534 54.9832L17.7196 54.2581H23.4295C23.75 54.2581 24.0107 54.5188 24.0107 54.8393V58.8876C24.0107 59.208 23.75 59.4687 23.4295 59.4687H17.3804C16.7978 59.4687 16.3257 59.9408 16.3257 60.5234C16.3257 61.106 16.7978 61.5781 17.3804 61.5781H23.4295C24.9131 61.5781 26.1201 60.3712 26.1201 58.8876V54.8393C26.1201 53.3557 24.9131 52.1488 23.4295 52.1488H18.7848L23.5147 42.7826C25.2779 43.3723 27.1181 43.6719 28.9992 43.6719ZM14.2239 55.0352C13.6749 55.1764 13.1152 55.0774 12.6479 54.7575C12.1872 54.4421 11.885 53.9431 11.8188 53.3888C11.7517 52.8261 11.9236 52.2845 12.3025 51.8634L22.0116 41.08L15.4705 54.0323C15.2154 54.5382 14.7725 54.8943 14.2239 55.0352Z" fill="#2D75B4"/>
<path id="Vector_4" d="M53.6357 41.7734C53.6357 41.1908 53.1637 40.7188 52.5811 40.7188H42.1748C41.5922 40.7188 41.1201 41.1908 41.1201 41.7734V45.1953C41.1201 45.7779 41.5922 46.25 42.1748 46.25H44.1202V49.1797C44.1202 49.7623 44.5923 50.2344 45.1749 50.2344H52.5811C53.1637 50.2344 53.6357 49.7623 53.6357 49.1797V41.7734ZM51.5264 48.125H46.2296V45.1953C46.2296 44.6127 45.7575 44.1406 45.1749 44.1406H43.2295V42.8281H51.5264V48.125Z" fill="#2D75B4"/>
<path id="Vector_5" d="M36.8555 61.9531H52.582C53.1646 61.9531 53.6367 61.481 53.6367 60.8984V53.2578C53.6367 52.6752 53.1646 52.2031 52.582 52.2031H45.1758C44.5932 52.2031 44.1211 52.6752 44.1211 53.2578V56.1406H36.8555C36.2729 56.1406 35.8008 56.6127 35.8008 57.1953V60.8984C35.8008 61.481 36.2729 61.9531 36.8555 61.9531ZM37.9102 58.25H45.1758C45.7584 58.25 46.2305 57.7779 46.2305 57.1953V54.3125H51.5273V59.8437H37.9102V58.25Z" fill="#2D75B4"/>
<path id="Vector_6" d="M31.0625 47.5312C30.4799 47.5312 30.0078 48.0033 30.0078 48.5859C30.0078 49.1685 30.4799 49.6406 31.0625 49.6406H36.8547C37.4373 49.6406 37.9094 49.1685 37.9094 48.5859C37.9094 48.0033 37.4373 47.5312 36.8547 47.5312H31.0625Z" fill="#2D75B4"/>
<path id="Vector_7" d="M31.0625 53.3281H36.8547C37.4373 53.3281 37.9094 52.856 37.9094 52.2734C37.9094 51.6908 37.4373 51.2188 36.8547 51.2188H31.0625C30.4799 51.2188 30.0078 51.6908 30.0078 52.2734C30.0078 52.856 30.48 53.3281 31.0625 53.3281Z" fill="#2D75B4"/>
<path id="Vector_8" d="M42.1748 7.10938H50.8467C51.4293 7.10938 51.9014 6.63716 51.9014 6.05469C51.9014 5.47222 51.4293 5 50.8467 5H42.1748C41.5922 5 41.1201 5.47222 41.1201 6.05469C41.1201 6.63716 41.5922 7.10938 42.1748 7.10938Z" fill="#2D75B4"/>
<path id="Vector_9" d="M42.1748 11.1875H50.8467C51.4293 11.1875 51.9014 10.7153 51.9014 10.1328C51.9014 9.55034 51.4293 9.07812 50.8467 9.07812H42.1748C41.5922 9.07812 41.1201 9.55034 41.1201 10.1328C41.1201 10.7153 41.5922 11.1875 42.1748 11.1875Z" fill="#2D75B4"/>
<path id="Vector_10" d="M27.9453 26.0234V26.7266C27.9453 27.309 28.4174 27.7812 29 27.7812C29.5826 27.7812 30.0547 27.309 30.0547 26.7266V26.0234C30.0547 25.441 29.5826 24.9688 29 24.9688C28.4174 24.9688 27.9453 25.441 27.9453 26.0234Z" fill="#2D75B4"/>
<path id="Vector_11" d="M28.666 23.9141H29.334C29.9166 23.9141 30.3887 23.4418 30.3887 22.8594C30.3887 22.2769 29.9166 21.8047 29.334 21.8047H28.666C28.0834 21.8047 27.6113 22.2769 27.6113 22.8594C27.6113 23.4418 28.0835 23.9141 28.666 23.9141Z" fill="#2D75B4"/>
<path id="Vector_12" d="M32.5156 27.7637C33.0982 27.7637 33.5703 27.2915 33.5703 26.709V26.041C33.5703 25.4585 33.0982 24.9863 32.5156 24.9863C31.933 24.9863 31.4609 25.4585 31.4609 26.041V26.709C31.4609 27.2915 31.9332 27.7637 32.5156 27.7637Z" fill="#2D75B4"/>
<path id="Vector_13" d="M30.3887 29.8906C30.3887 29.3082 29.9166 28.8359 29.334 28.8359H28.666C28.0834 28.8359 27.6113 29.3082 27.6113 29.8906C27.6113 30.4731 28.0834 30.9453 28.666 30.9453H29.334C29.9166 30.9453 30.3887 30.4731 30.3887 29.8906Z" fill="#2D75B4"/>
<path id="Vector_14" d="M25.4844 24.9863C24.9018 24.9863 24.4297 25.4585 24.4297 26.041V26.709C24.4297 27.2915 24.9018 27.7637 25.4844 27.7637C26.067 27.7637 26.5391 27.2915 26.5391 26.709V26.041C26.5391 25.4585 26.067 24.9863 25.4844 24.9863Z" fill="#2D75B4"/>
<path id="Vector_15" d="M56.631 30.2421C57.2136 30.2421 57.6857 29.7699 57.6857 29.1874V3.83766C57.6857 1.72153 55.9641 0 53.848 0H4.15113C2.03501 0 0.313477 1.72153 0.313477 3.83766V68.1623C0.313477 70.2785 2.03501 72 4.15113 72H53.848C55.9641 72 57.6857 70.2785 57.6857 68.1623V33.4062C57.6857 32.8237 57.2136 32.3515 56.631 32.3515C56.0484 32.3515 55.5763 32.8237 55.5763 33.4062V68.1623C55.5763 69.1152 54.8009 69.8906 53.848 69.8906H49.2262V66.7793C49.2262 65.333 48.0495 64.1562 46.6031 64.1562H11.3963C9.94995 64.1562 8.7732 65.333 8.7732 66.7793V69.8906H4.15113C3.19826 69.8906 2.42285 69.1152 2.42285 68.1623V3.83766C2.42285 2.88464 3.19826 2.10938 4.15113 2.10938H53.848C54.8009 2.10938 55.5763 2.88464 55.5763 3.83766V29.1874C55.5763 29.7699 56.0485 30.2421 56.631 30.2421ZM10.8824 66.7793C10.8824 66.4959 11.1129 66.2656 11.3961 66.2656H46.603C46.8864 66.2656 47.1167 66.4961 47.1167 66.7793V69.8906H44.4953V68.078C44.4953 67.4954 44.0232 67.0233 43.4406 67.0233C42.858 67.0233 42.3859 67.4954 42.3859 68.078V69.8906H40.3692V68.078C40.3692 67.4954 39.8972 67.0233 39.3146 67.0233C38.7319 67.0233 38.2599 67.4954 38.2599 68.078V69.8906H36.2432V68.078C36.2432 67.4954 35.7711 67.0233 35.1885 67.0233C34.6059 67.0233 34.1338 67.4954 34.1338 68.078V69.8906H32.1171V68.078C32.1171 67.4954 31.645 67.0233 31.0624 67.0233C30.4798 67.0233 30.0077 67.4954 30.0077 68.078V69.8906H27.9913V68.078C27.9913 67.4954 27.5192 67.0233 26.9366 67.0233C26.354 67.0233 25.8819 67.4954 25.8819 68.078V69.8906H23.8654V68.078C23.8654 67.4954 23.3933 67.0233 22.8107 67.0233C22.2281 67.0233 21.756 67.4954 21.756 68.078V69.8906H19.7393V68.078C19.7393 67.4954 19.2672 67.0233 18.6846 67.0233C18.102 67.0233 17.6299 67.4954 17.6299 68.078V69.8906H15.6131V68.078C15.6131 67.4954 15.141 67.0233 14.5584 67.0233C13.9758 67.0233 13.5037 67.4954 13.5037 68.078V69.8906H10.8824V66.7793Z" fill="#2D75B4"/>
</g>
</svg>
