<svg width="72" height="68" viewBox="0 0 72 68" fill="none" xmlns="http://www.w3.org/2000/svg">
<g id="Group">
<g id="Group_2">
<path id="Vector" d="M70.2422 8.72266H66.6562C66.0738 8.72266 65.6016 9.19473 65.6016 9.77734C65.6016 10.36 66.0738 10.832 66.6562 10.832H69.8906V23.3804H51.1563V10.832H61.7344C62.3168 10.832 62.7891 10.36 62.7891 9.77734C62.7891 9.19473 62.3168 8.72266 61.7344 8.72266H50.8047C49.8354 8.72266 49.0469 9.51114 49.0469 10.4805V15.8768H43.8047V14.8221C43.8047 13.8528 43.0162 13.0643 42.0469 13.0643H29.9531C28.9838 13.0643 28.1953 13.8528 28.1953 14.8221V15.8768H22.9531V10.4805C22.9531 9.51114 22.1646 8.72266 21.1953 8.72266H17.5781C16.9957 8.72266 16.5234 9.19473 16.5234 9.77734C16.5234 10.36 16.9957 10.832 17.5781 10.832H20.8437V23.3804H2.10938V10.832H12.6562C13.2387 10.832 13.7109 10.36 13.7109 9.77734C13.7109 9.19473 13.2387 8.72266 12.6562 8.72266H1.75781C0.788484 8.72266 0 9.51128 0 10.4805V23.732C0 24.7013 0.788484 25.4898 1.75781 25.4898H8.10155V27.7413H4.9853C4.01597 27.7413 3.22748 28.5298 3.22748 29.4992V31.6085C3.22748 32.5779 4.01597 33.3663 4.9853 33.3663H10.422V38.2224C8.7615 38.6848 7.53919 40.2094 7.53919 42.0153C7.53919 43.8212 8.7615 45.3459 10.422 45.8083V59.7753C10.422 62.2954 12.4723 64.3456 14.9923 64.3456H32.2189C32.6948 65.985 34.2091 67.1872 36 67.1872C37.7909 67.1872 39.3052 65.985 39.7811 64.3456H57.0077C59.5277 64.3456 61.578 62.2954 61.578 59.7753V45.8083C63.2385 45.3459 64.4608 43.8212 64.4608 42.0153C64.4608 40.2094 63.2385 38.6848 61.578 38.2224V33.3663H67.0147C67.984 33.3663 68.7725 32.5779 68.7725 31.6085V29.4992C68.7725 28.5298 67.984 27.7413 67.0147 27.7413H63.8983V25.4898H70.2422C71.2115 25.4898 72 24.7013 72 23.732V10.4805C72 9.51128 71.2115 8.72266 70.2422 8.72266ZM30.3047 15.1737H41.6953V18.6893H30.3047V15.1737ZM10.2109 25.4899H12.7422V27.7415H10.2109V25.4899ZM5.33686 29.8507H17.6164V31.257H5.33686V29.8507ZM9.64842 42.0153C9.64842 41.0073 10.4685 40.1872 11.4765 40.1872C12.4845 40.1872 13.3047 41.0073 13.3047 42.0153C13.3047 43.0233 12.4845 43.8435 11.4765 43.8435C10.4685 43.8435 9.64842 43.0233 9.64842 42.0153ZM12.5312 59.7753V45.8083C14.1917 45.3459 15.414 43.8212 15.414 42.0153C15.414 40.2094 14.1917 38.6848 12.5312 38.2224V33.3663H17.9678C18.9371 33.3663 19.7256 32.5779 19.7256 31.6085V29.4992C19.7256 28.5298 18.9371 27.7413 17.9678 27.7413H14.8515V25.4898H21.1953C22.1646 25.4898 22.9531 24.7013 22.9531 23.732V17.9862H28.1953V19.0409C28.1953 20.0102 28.9838 20.7987 29.9531 20.7987H34.9453V29.4319H26.2813C25.3119 29.4319 24.5235 30.2204 24.5235 31.1898V44.4414C24.5235 45.4107 25.3119 46.1992 26.2813 46.1992H32.625V48.4506H29.5086C28.5393 48.4506 27.7508 49.2391 27.7508 50.2084V52.3178C27.7508 53.2871 28.5393 54.0756 29.5086 54.0756H34.9453V59.4569C33.607 59.8296 32.5538 60.8921 32.1954 62.2364H14.9922C13.6353 62.2362 12.5312 61.1323 12.5312 59.7753ZM29.8602 51.9663V50.56H42.1397V51.9663H29.8602ZM34.7344 48.4506V46.1992H37.2656V48.4506H34.7344ZM36 65.0778C34.992 65.0778 34.1719 64.2577 34.1719 63.2497C34.1719 62.2417 34.992 61.4216 36 61.4216C37.008 61.4216 37.8281 62.2417 37.8281 63.2497C37.8281 64.2577 37.008 65.0778 36 65.0778ZM62.3516 42.0153C62.3516 43.0233 61.5315 43.8435 60.5235 43.8435C59.5155 43.8435 58.6953 43.0233 58.6953 42.0153C58.6953 41.0073 59.5155 40.1872 60.5235 40.1872C61.5315 40.1872 62.3516 41.0073 62.3516 42.0153ZM59.4688 38.2225C57.8083 38.6849 56.586 40.2096 56.586 42.0155C56.586 43.8214 57.8083 45.346 59.4688 45.8084V59.7754C59.4688 61.1323 58.3647 62.2364 57.0078 62.2364H39.8046C39.4462 60.8923 38.393 59.8296 37.0547 59.4569V54.0756H42.4914C43.4607 54.0756 44.2492 53.2871 44.2492 52.3178V50.2084C44.2492 49.2391 43.4607 48.4506 42.4914 48.4506H39.375V46.1992H45.7187C46.6881 46.1992 47.4765 45.4107 47.4765 44.4414V39.6247C47.4765 39.0421 47.0043 38.57 46.4219 38.57C45.8394 38.57 45.3672 39.0421 45.3672 39.6247V44.0898H26.6328V31.5413H45.3673V34.7028C45.3673 35.2855 45.8395 35.7575 46.422 35.7575C47.0045 35.7575 47.4767 35.2855 47.4767 34.7028V31.1898C47.4767 30.2204 46.6882 29.4319 45.7189 29.4319H37.0547V20.7987H42.0469C43.0162 20.7987 43.8047 20.0102 43.8047 19.0409V17.9862H49.0469V23.732C49.0469 24.7013 49.8354 25.4898 50.8047 25.4898H57.1485V27.7413H54.0322C53.0629 27.7413 52.2744 28.5298 52.2744 29.4992V31.6085C52.2744 32.5779 53.0629 33.3663 54.0322 33.3663H59.4688V38.2225ZM66.6631 31.257H54.3836V29.8507H66.6631V31.257ZM61.7891 27.7413H59.2578V25.4898H61.7891V27.7413Z" fill="#2D75B4"/>
<path id="Vector_2" d="M29.8679 5.45689C33.2492 2.07556 38.7508 2.07556 42.1321 5.45689C42.338 5.66276 42.608 5.7657 42.8778 5.7657C43.1477 5.7657 43.4177 5.66276 43.6236 5.45689C44.0355 5.04486 44.0355 4.37717 43.6236 3.96528C39.4199 -0.238426 32.58 -0.238426 28.3763 3.96528C27.9644 4.37731 27.9644 5.045 28.3763 5.45689C28.7882 5.8685 29.456 5.8685 29.8679 5.45689Z" fill="#2D75B4"/>
<path id="Vector_3" d="M39.571 8.50941C39.8409 8.50941 40.1109 8.40648 40.3168 8.2006C40.7286 7.78857 40.7286 7.12088 40.3168 6.70899C37.9364 4.32877 34.0632 4.32877 31.6829 6.70899C31.2711 7.12102 31.2711 7.78871 31.6829 8.2006C32.0948 8.61235 32.7627 8.61235 33.1744 8.2006C34.7324 6.64248 37.2672 6.64248 38.8253 8.2006C39.0312 8.40634 39.3012 8.50941 39.571 8.50941Z" fill="#2D75B4"/>
<path id="Vector_4" d="M35.2542 9.60579C34.8423 10.0177 34.8423 10.6855 35.2542 11.0974C35.6661 11.5093 36.3339 11.5093 36.7458 11.0974C37.1577 10.6855 37.1577 10.0177 36.7458 9.60579C36.3338 9.1939 35.6661 9.1939 35.2542 9.60579Z" fill="#2D75B4"/>
</g>
</g>
</svg>
