<svg width="64" height="72" viewBox="0 0 64 72" fill="none" xmlns="http://www.w3.org/2000/svg">
<g id="Group">
<path id="Vector" d="M45.4146 13.3934C41.491 10.5601 36.8522 9.0625 31.9998 9.0625C19.3505 9.0625 9.05957 19.3534 9.05957 32.0027C9.05957 44.652 19.3505 54.9429 31.9998 54.9429C44.6491 54.9429 54.94 44.652 54.94 32.0027C54.94 26.272 52.8152 20.7852 48.9572 16.5531C48.5623 16.1201 47.8913 16.0891 47.4584 16.4838C47.0252 16.8786 46.9944 17.5495 47.389 17.9826C50.89 21.823 52.8182 26.8023 52.8182 32.0027C52.8182 43.482 43.4792 52.8211 31.9998 52.8211C20.5203 52.8211 11.1814 43.4822 11.1814 32.0027C11.1814 20.5233 20.5205 11.1842 31.9998 11.1842C36.4034 11.1842 40.6127 12.5428 44.1725 15.1134C44.6475 15.4564 45.3106 15.3494 45.6537 14.8744C45.9967 14.3994 45.8898 13.7363 45.4146 13.3934Z" fill="#2D75B4"/>
<path id="Vector_2" d="M54.6297 9.37348C48.5851 3.32885 40.5487 0 32.0003 0C23.4825 0 15.4754 3.28584 9.45402 9.25225C3.43216 15.2192 0.0740358 23.1956 -0.00164227 31.7124C-0.0583655 38.0965 1.76031 44.2768 5.25806 49.5854C5.58043 50.0749 6.23848 50.2102 6.72763 49.8877C7.21692 49.5655 7.35229 48.9073 7.02991 48.4181C3.76501 43.4627 2.06727 37.6925 2.12031 31.7312C2.26531 15.4045 15.6694 2.12182 32.0003 2.12182C48.4768 2.12182 61.8813 15.5265 61.8813 32.0029C61.8813 45.4383 52.8395 57.2917 39.8934 60.8282C39.6871 60.8847 39.5026 61.0021 39.3643 61.1652L32.0709 69.7581L24.8198 61.2148C24.68 61.05 24.493 60.9319 24.2842 60.8762C18.6593 59.377 13.622 56.2755 9.71656 51.9068C9.326 51.4702 8.65537 51.4325 8.21841 51.823C7.7816 52.2135 7.74398 52.8841 8.13453 53.3211C12.2418 57.9154 17.5195 61.2012 23.415 62.8386L30.6207 71.3285C30.9828 71.7551 31.5113 71.9999 32.0707 71.9999C32.6302 71.9999 33.1587 71.7551 33.5206 71.3287L40.7712 62.7861C54.4665 58.8918 64.0029 46.2812 64.0029 32.0028C64.0031 23.4547 60.6742 15.418 54.6297 9.37348Z" fill="#2D75B4"/>
<path id="Vector_3" d="M42.5844 34.5095C43.1704 34.5095 43.6453 34.0346 43.6453 33.4486V31.8099C43.8405 31.8621 44.0428 31.8893 44.2482 31.8893C44.3305 31.8893 44.4133 31.8851 44.4963 31.8764C45.1202 31.8114 45.6817 31.5072 46.077 31.0198L47.1272 29.7249C47.9433 28.7192 47.7888 27.2369 46.7826 26.4207L34.0049 16.0565C32.843 15.1141 31.1567 15.1139 29.9948 16.0563L17.217 26.4208C16.2109 27.237 16.0565 28.7192 16.8722 29.7249L17.9227 31.0198C18.5238 31.7611 19.4867 32.0383 20.3543 31.8073V40.4073H20.0354C19.4494 40.4073 18.9745 40.8821 18.9745 41.4682C18.9745 42.0542 19.4494 42.5291 20.0354 42.5291H43.969C44.555 42.5291 45.0299 42.0542 45.0299 41.4682C45.0299 40.8821 44.555 40.4073 43.969 40.4073H43.6452V37.9699C43.6452 37.3838 43.1703 36.909 42.5843 36.909C41.9982 36.909 41.5233 37.3838 41.5233 37.9699V40.4073H36.6852V39.539C36.6852 36.9554 34.5833 34.8535 31.9996 34.8535C29.416 34.8535 27.3141 36.9554 27.3141 39.539V40.4073H22.4761V30.351L31.9996 22.6262L41.5233 30.351V33.4486C41.5235 34.0346 41.9985 34.5095 42.5844 34.5095ZM29.4361 39.5392C29.4361 38.1256 30.5862 36.9754 31.9998 36.9754C33.4133 36.9754 34.5635 38.1256 34.5635 39.5392V40.4074H29.4361V39.5392ZM31.3316 20.4362L20.7414 29.0261C20.7409 29.0266 20.7404 29.027 20.74 29.0274L19.8903 29.7167C19.83 29.7655 19.7667 29.77 19.7237 29.7662C19.6808 29.7617 19.6197 29.7437 19.5708 29.6833L18.5203 28.3885C18.4712 28.3279 18.4663 28.2644 18.4708 28.2217C18.4752 28.179 18.4932 28.1178 18.5537 28.0688L31.3316 17.7043C31.5252 17.5472 31.7626 17.4687 31.9999 17.4687C32.2373 17.4687 32.4745 17.5472 32.6683 17.7044L45.4462 28.0686C45.5067 28.1178 45.5247 28.179 45.5291 28.2217C45.5336 28.2644 45.5286 28.3279 45.4794 28.3885L44.4292 29.6833C44.3802 29.7437 44.319 29.7617 44.2763 29.7661C44.234 29.7705 44.1702 29.7658 44.1097 29.7166C44.1097 29.7166 44.1096 29.7166 44.1096 29.7164L32.6682 20.4363C32.2786 20.1203 31.721 20.1203 31.3316 20.4362Z" fill="#2D75B4"/>
<path id="Vector_4" d="M28.3754 28.6426C27.7893 28.6426 27.3145 29.1174 27.3145 29.7035C27.3145 30.2895 27.7893 30.7644 28.3754 30.7644H35.6246C36.2107 30.7644 36.6855 30.2895 36.6855 29.7035C36.6855 29.1174 36.2107 28.6426 35.6246 28.6426H28.3754Z" fill="#2D75B4"/>
</g>
</svg>
