<svg width="72" height="72" viewBox="0 0 72 72" fill="none" xmlns="http://www.w3.org/2000/svg">
<g id="Group">
<path id="Vector" d="M55.6919 23.2257V20.8164C55.6919 19.6145 54.7141 18.6367 53.5122 18.6367H18.4873C17.2854 18.6367 16.3076 19.6145 16.3076 20.8164V23.2257C16.3076 24.4277 17.2854 25.4054 18.4873 25.4054H53.5122C54.7141 25.4054 55.6919 24.4275 55.6919 23.2257ZM18.417 23.2257V20.8164C18.417 20.7776 18.4486 20.7461 18.4873 20.7461H53.5122C53.5509 20.7461 53.5825 20.7776 53.5825 20.8164V23.2257C53.5825 23.2645 53.5509 23.296 53.5122 23.296H18.4873C18.4485 23.296 18.417 23.2644 18.417 23.2257Z" fill="#2D75B4"/>
<path id="Vector_2" d="M34.7949 27.957C33.593 27.957 32.6152 28.9348 32.6152 30.1367V32.546C32.6152 33.748 33.593 34.7257 34.7949 34.7257H37.2042C38.4062 34.7257 39.3839 33.748 39.3839 32.546V30.1367C39.3839 28.9348 38.4062 27.957 37.2042 27.957H34.7949ZM37.2744 30.1367V32.546C37.2744 32.5849 37.2428 32.6164 37.2041 32.6164H34.7948C34.7561 32.6164 34.7245 32.5849 34.7245 32.546V30.1367C34.7245 30.0979 34.7561 30.0664 34.7948 30.0664H37.2041C37.2429 30.0664 37.2744 30.0979 37.2744 30.1367Z" fill="#2D75B4"/>
<path id="Vector_3" d="M23.1465 27.957C21.9446 27.957 20.9668 28.9348 20.9668 30.1367V32.546C20.9668 33.748 21.9446 34.7257 23.1465 34.7257H25.556C26.7579 34.7257 27.7356 33.748 27.7356 32.546V30.1367C27.7356 28.9348 26.7579 27.957 25.556 27.957H23.1465ZM25.6261 30.1367V32.546C25.6261 32.5849 25.5945 32.6164 25.5558 32.6164H23.1465C23.1078 32.6164 23.0762 32.5849 23.0762 32.546V30.1367C23.0762 30.0979 23.1078 30.0664 23.1465 30.0664H25.556C25.5946 30.0664 25.6261 30.0979 25.6261 30.1367Z" fill="#2D75B4"/>
<path id="Vector_4" d="M46.4434 27.957C45.2414 27.957 44.2637 28.9348 44.2637 30.1367V32.546C44.2637 33.748 45.2414 34.7257 46.4434 34.7257H48.8527C50.0546 34.7257 51.0324 33.748 51.0324 32.546V30.1367C51.0324 28.9348 50.0546 27.957 48.8527 27.957H46.4434ZM48.923 30.1367V32.546C48.923 32.5849 48.8914 32.6164 48.8527 32.6164H46.4432C46.4045 32.6164 46.3729 32.5849 46.3729 32.546V30.1367C46.3729 30.0979 46.4045 30.0664 46.4432 30.0664H48.8527C48.8915 30.0664 48.923 30.0979 48.923 30.1367Z" fill="#2D75B4"/>
<path id="Vector_5" d="M68.6157 32.6156H66.5186C65.936 32.6156 65.4639 33.0878 65.4639 33.6703C65.4639 34.2527 65.936 34.725 66.5186 34.725H68.6157C69.3187 34.725 69.8906 35.2969 69.8906 35.9999V41.9344H2.10938V35.9999C2.10938 35.2969 2.6813 34.725 3.38428 34.725H11.6484V37.275H8.04375C7.46114 37.275 6.98906 37.7473 6.98906 38.3297C6.98906 38.9122 7.46114 39.3844 8.04375 39.3844H63.9562C64.5389 39.3844 65.0109 38.9122 65.0109 38.3297C65.0109 37.7473 64.5389 37.275 63.9562 37.275H60.3516V34.725H62.2998C62.8824 34.725 63.3545 34.2527 63.3545 33.6703C63.3545 33.0878 62.8824 32.6156 62.2998 32.6156H60.3516V15.0328C60.3516 15.0328 60.3499 15.0292 60.3492 15.0275C60.3478 14.7549 60.2432 14.4873 60.0428 14.2869L46.0647 0.308812C45.8641 0.108422 45.5965 0.00365625 45.324 0.00225C45.3225 0.0016875 45.3188 0 45.3188 0H15.0328C13.1667 0 11.6484 1.51819 11.6484 3.38442V8.26411C11.6484 8.84658 12.1205 9.3188 12.7031 9.3188C13.2857 9.3188 13.7578 8.84658 13.7578 8.26411V3.38442C13.7578 2.6813 14.3297 2.10938 15.0328 2.10938H44.264V4.65933H27.846C26.6221 4.65933 25.6265 5.65509 25.6265 6.87881V9.20855C25.6265 10.4324 26.6221 11.428 27.846 11.428H44.264V12.7031C44.264 14.5692 45.7822 16.0874 47.6483 16.0874H58.2421V37.2749H13.7578V12.4827C13.7578 11.9002 13.2857 11.428 12.7031 11.428C12.1205 11.428 11.6484 11.9002 11.6484 12.4827V32.6156H3.38428C1.51819 32.6156 0 34.1338 0 35.9999V61.6265C0 63.4926 1.51819 65.0108 3.38428 65.0108H11.6484V70.9452C11.6484 71.5276 12.1205 71.9999 12.7031 71.9999H19.3594C19.942 71.9999 20.4141 71.5276 20.4141 70.9452V67.3405H24.9609V70.9453C24.9609 71.5278 25.433 72 26.0156 72H32.6718C33.2544 72 33.7265 71.5278 33.7265 70.9453V67.3407H38.2735V70.9453C38.2735 71.5278 38.7456 72 39.3282 72H45.9844C46.567 72 47.0391 71.5278 47.0391 70.9453V67.3407H51.5859V70.9453C51.5859 71.5278 52.058 72 52.6406 72H59.2969C59.8795 72 60.3516 71.5278 60.3516 70.9453V65.0109H68.6157C70.4819 65.0109 72 63.4928 72 61.6267V35.9999C72 34.1338 70.4818 32.6156 68.6157 32.6156ZM27.8461 9.3188C27.7854 9.3188 27.736 9.2693 27.736 9.20869V6.87895C27.736 6.8182 27.7855 6.76884 27.8461 6.76884H44.2641V9.3188H27.8461ZM47.6484 13.9781C46.9454 13.9781 46.3735 13.4062 46.3735 12.7032V3.60084L56.7506 13.9781H47.6484ZM9.09844 62.9016V59.2969C9.09844 58.5939 9.67036 58.022 10.3733 58.022H11.6483V62.9017H9.09844V62.9016ZM18.3047 69.8906H13.7578V58.0219H18.3047V69.8906ZM20.4141 65.2313V58.0219H24.9609V65.2313H20.4141ZM31.6171 69.8906H27.0703V58.0219H31.6171V69.8906ZM33.7265 65.2313V58.0219H38.2735V65.2313H33.7265ZM44.9297 69.8906H40.3829V58.0219H44.9297V69.8906ZM47.0391 65.2313V58.0219H51.5859V65.2313H47.0391ZM58.2422 69.8906H53.6953V58.0219H58.2422V69.8906ZM60.3516 58.0219H61.6265C62.3295 58.0219 62.9014 58.5938 62.9014 59.2968V62.9016H60.3515V58.0219H60.3516ZM68.6157 62.9016H65.0109V59.2969C65.0109 57.4308 63.4928 55.9126 61.6267 55.9126H10.3735C8.50725 55.9126 6.9892 57.4308 6.9892 59.2969V62.9016H3.38428C2.6813 62.9016 2.10938 62.3296 2.10938 61.6267V44.0438H69.8906V61.6265C69.8906 62.3295 69.3187 62.9016 68.6157 62.9016Z" fill="#2D75B4"/>
<path id="Vector_6" d="M8.0436 46.5938C6.17737 46.5938 4.65918 48.1119 4.65918 49.9782C4.65918 51.8444 6.17751 53.3625 8.0436 53.3625C9.9097 53.3625 11.4279 51.8443 11.4279 49.9782C11.428 48.1121 9.90984 46.5938 8.0436 46.5938ZM8.0436 51.2532C7.34048 51.2532 6.76855 50.6813 6.76855 49.9783C6.76855 49.2753 7.34048 48.7033 8.0436 48.7033C8.74659 48.7033 9.31851 49.2752 9.31851 49.9783C9.31865 50.6812 8.74659 51.2532 8.0436 51.2532Z" fill="#2D75B4"/>
<path id="Vector_7" d="M17.3629 46.5938C15.4967 46.5938 13.9785 48.1119 13.9785 49.9782C13.9785 51.8444 15.4968 53.3625 17.3629 53.3625C19.229 53.3625 20.7472 51.8443 20.7472 49.9782C20.7472 48.1121 19.229 46.5938 17.3629 46.5938ZM17.3629 51.2532C16.6598 51.2532 16.0879 50.6813 16.0879 49.9783C16.0879 49.2753 16.6598 48.7033 17.3629 48.7033C18.0659 48.7033 18.6378 49.2752 18.6378 49.9783C18.6378 50.6812 18.0659 51.2532 17.3629 51.2532Z" fill="#2D75B4"/>
</g>
</svg>
