<svg width="72" height="56" viewBox="0 0 72 56" fill="none" xmlns="http://www.w3.org/2000/svg">
<g id="Group">
<g id="Group_2">
<path id="Vector" d="M70.9453 38.7578C71.5279 38.7578 72 38.2857 72 37.7031V21.1094C72 20.2177 71.2745 19.4922 70.3828 19.4922H63.1406V3.10938C63.1406 1.44227 61.7843 0.0859375 60.1172 0.0859375H3.02344C1.35633 0.0859375 0 1.44227 0 3.10938V27.4531C0.048375 28.8497 2.06156 28.8485 2.10938 27.4531V3.10938C2.10938 2.60538 2.51944 2.19531 3.02344 2.19531H60.1172C60.6212 2.19531 61.0312 2.60538 61.0312 3.10938V19.4922H58.9219V5.92188C58.9219 5.03017 58.1964 4.30469 57.3047 4.30469H52.9291C51.5326 4.35306 51.5337 6.36625 52.9291 6.41406H56.8125V19.4922H51.8203C50.9286 19.4922 50.2031 20.2177 50.2031 21.1094V35.8047H6.32812V6.41406H47.9531C49.3497 6.36569 49.3485 4.3525 47.9531 4.30469H5.83594C4.94423 4.30469 4.21875 5.03017 4.21875 5.92188V36.2969C4.21875 37.1886 4.94423 37.9141 5.83594 37.9141H50.2031V40.0234H3.02344C2.51944 40.0234 2.10938 39.6134 2.10938 39.1094V32.3637C2.061 30.9672 0.0478125 30.9683 0 32.3637V39.1094C0 40.7765 1.35633 42.1328 3.02344 42.1328H24.2449C24.1467 43.9768 23.4814 47.9049 19.7172 49.5859H19.2656C16.9781 49.5859 15.1172 51.4468 15.1172 53.7344V54.2969C15.1172 55.1886 15.8427 55.9141 16.7344 55.9141H46.5469C47.4386 55.9141 48.1641 55.1886 48.1641 54.2969V53.7344C48.1641 51.4468 46.3032 49.5859 44.0156 49.5859H43.5641C39.7991 47.9046 39.1344 43.9754 39.0362 42.1328H50.2031V54.2969C50.2031 55.1886 50.9286 55.9141 51.8203 55.9141H70.3828C71.2745 55.9141 72 55.1886 72 54.2969V42.8486C71.9516 41.452 69.9384 41.4532 69.8906 42.8486V44.1571H52.3125V21.6016H69.8906V37.7031C69.8906 38.2857 70.3627 38.7578 70.9453 38.7578ZM46.0547 53.7344V53.8047H17.2266V53.7344C17.2266 52.6101 18.1413 51.6953 19.2656 51.6953H44.0156C45.1399 51.6953 46.0547 52.6101 46.0547 53.7344ZM37.4445 45.2372C37.9498 46.9751 38.7854 48.4396 39.9135 49.5859H23.3677C24.4956 48.4397 25.3313 46.9752 25.8366 45.2372C26.188 44.0283 26.3122 42.9148 26.3512 42.1328H36.9301C36.969 42.915 37.0931 44.0283 37.4445 45.2372ZM69.8906 46.2665V53.8047H52.3125V46.2665H69.8906Z" fill="#2D75B4"/>
<path id="Vector_2" d="M68.4844 26.252C68.4844 25.3602 67.7589 24.6348 66.8672 24.6348H55.3359C54.4442 24.6348 53.7188 25.3602 53.7188 26.252V29.3457C53.7188 30.2374 54.4442 30.9629 55.3359 30.9629H66.8672C67.7589 30.9629 68.4844 30.2374 68.4844 29.3457V26.252ZM66.375 28.8535H55.8281V26.7441H66.375V28.8535Z" fill="#2D75B4"/>
<path id="Vector_3" d="M56.8145 52.9187C58.4041 52.9187 59.6973 51.6255 59.6973 50.0359C59.5389 46.2114 54.0894 46.2126 53.9316 50.0359C53.9316 51.6255 55.2248 52.9187 56.8145 52.9187ZM56.8145 49.2624C57.8367 49.2948 57.8364 50.7771 56.8145 50.8093C55.7923 50.777 55.7925 49.2948 56.8145 49.2624Z" fill="#2D75B4"/>
<path id="Vector_4" d="M54.7736 32.1836C53.377 32.232 53.3781 34.2452 54.7736 34.293H67.4298C68.8263 34.2446 68.8252 32.2314 67.4298 32.1836H54.7736Z" fill="#2D75B4"/>
</g>
</g>
</svg>
