<svg width="72" height="72" viewBox="0 0 72 72" fill="none" xmlns="http://www.w3.org/2000/svg">
<g id="Group">
<g id="Group_2">
<path id="Vector" d="M55.741 39.7773H16.2591C14.5702 39.7773 13.1963 41.1507 13.1963 42.8388V51.3142C13.1963 51.8968 13.6684 52.3689 14.251 52.3689C14.8336 52.3689 15.3057 51.8968 15.3057 51.3142V43.6326L27.2864 54.3509L15.3057 67.826V56.2361C15.3057 55.6535 14.8336 55.1814 14.251 55.1814C13.6684 55.1814 13.1963 55.6535 13.1963 56.2361V68.9372C13.1963 70.6261 14.5703 72 16.2591 72H55.741C57.4299 72 58.8038 70.626 58.8038 68.9372V56.2361C58.8038 55.6535 58.3317 55.1814 57.7491 55.1814C57.1665 55.1814 56.6944 55.6535 56.6944 56.2361V67.8258L44.7137 54.3507L56.6944 43.6324V51.3142C56.6944 51.8968 57.1665 52.3689 57.7491 52.3689C58.3317 52.3689 58.8038 51.8968 58.8038 51.3142V42.8388C58.8038 41.1507 57.4299 39.7773 55.741 39.7773ZM55.4821 41.8867L38.2167 57.3328C37.6063 57.879 36.8192 58.1797 36 58.1797C35.1809 58.1797 34.3938 57.8789 33.7834 57.3328L16.518 41.8867H55.4821ZM55.7076 69.8908H16.2924L28.8585 55.7574L32.377 58.905C33.3747 59.7976 34.6614 60.2892 36.0002 60.2892C37.3389 60.2892 38.6256 59.7976 39.6234 58.905L43.1418 55.7574L55.7076 69.8908Z" fill="#2D75B4"/>
<path id="Vector_2" d="M36.0002 21.9966C42.0647 21.9966 46.9985 17.0627 46.9985 10.9983C46.9985 8.74294 46.3201 6.57464 45.0367 4.72781C44.7042 4.24969 44.0472 4.13142 43.5687 4.46358C43.0904 4.79602 42.9721 5.4533 43.3044 5.93156C44.3413 7.42317 44.8893 9.17522 44.8893 10.9981C44.8893 11.9891 44.7238 12.9416 44.4233 13.8324C43.4397 12.6613 42.2202 11.7034 40.8472 11.027C41.0118 10.5262 41.1021 9.99211 41.1021 9.43706C41.1021 6.62386 38.8136 4.33533 36.0004 4.33533C33.1872 4.33533 30.8986 6.62386 30.8986 9.43706C30.8986 9.99225 30.9889 10.5263 31.1536 11.027C29.7805 11.7032 28.561 12.6613 27.5775 13.8324C27.2768 12.9416 27.1115 11.9891 27.1115 10.9981C27.1113 6.0968 31.0989 2.10938 36.0002 2.10938C37.4097 2.10938 38.7573 2.42972 40.0055 3.06155C40.525 3.32452 41.1598 3.11667 41.4229 2.59692C41.686 2.07717 41.478 1.44267 40.9582 1.17956C39.4121 0.396844 37.7438 0 36.0002 0C29.9358 0 25.002 4.93383 25.002 10.9983C25.002 17.0627 29.9358 21.9966 36.0002 21.9966ZM36.0002 6.44484C37.6502 6.44484 38.9926 7.78725 38.9926 9.4372C38.9926 11.0872 37.6502 12.4297 36.0002 12.4297C34.3503 12.4297 33.0079 11.0873 33.0079 9.43734C33.0079 7.78739 34.3503 6.44484 36.0002 6.44484ZM32.2167 12.8558C33.151 13.8888 34.501 14.5389 36.0002 14.5389C37.4994 14.5389 38.8494 13.8887 39.7838 12.8558C41.2343 13.5405 42.4804 14.6129 43.3788 15.9494C41.7812 18.3226 39.0701 19.887 36.0002 19.887C32.9304 19.887 30.2194 18.3226 28.6216 15.9494C29.5201 14.613 30.7662 13.5405 32.2167 12.8558Z" fill="#2D75B4"/>
<path id="Vector_3" d="M21.997 19.8052C21.997 13.7406 17.063 8.80664 10.9984 8.80664C4.93383 8.80664 0 13.7406 0 19.8052C0 25.8698 4.93383 30.8036 10.9984 30.8036C17.063 30.8036 21.997 25.8698 21.997 19.8052ZM10.9984 10.916C15.8999 10.916 19.8876 14.9036 19.8876 19.8052C19.8876 20.7962 19.7221 21.7486 19.4216 22.6395C18.438 21.4684 17.2184 20.5103 15.8453 19.8339C16.01 19.3331 16.1003 18.799 16.1003 18.2438C16.1003 15.4306 13.8116 13.1421 10.9984 13.1421C8.18522 13.1421 5.89669 15.4306 5.89669 18.2438C5.89669 18.799 5.98697 19.3331 6.15164 19.8339C4.77858 20.5103 3.5588 21.4684 2.57541 22.6395C2.27489 21.7486 2.10938 20.796 2.10938 19.8052C2.10938 14.9036 6.09694 10.916 10.9984 10.916ZM13.9909 18.2438C13.9909 19.8939 12.6485 21.2363 10.9984 21.2363C9.34847 21.2363 8.00606 19.8939 8.00606 18.2438C8.00606 16.5939 9.34847 15.2515 10.9984 15.2515C12.6485 15.2515 13.9909 16.5939 13.9909 18.2438ZM10.9984 28.6942C7.92858 28.6942 5.21747 27.1297 3.61969 24.7563C4.518 23.42 5.76422 22.3474 7.21491 21.6626C8.14922 22.6956 9.49922 23.3457 10.9984 23.3457C12.4976 23.3457 13.8476 22.6955 14.7819 21.6624C16.2328 22.3473 17.4788 23.4197 18.3773 24.7562C16.7795 27.1297 14.0684 28.6942 10.9984 28.6942Z" fill="#2D75B4"/>
<path id="Vector_4" d="M61.0015 8.80664C54.9369 8.80664 50.0029 13.7406 50.0029 19.8052C50.0029 25.8698 54.9369 30.8036 61.0015 30.8036C67.0661 30.8036 71.9999 25.8698 71.9999 19.8052C71.9999 13.7406 67.0661 8.80664 61.0015 8.80664ZM61.0015 10.916C65.9028 10.916 69.8905 14.9036 69.8905 19.8052C69.8905 20.7962 69.725 21.7486 69.4245 22.6395C68.441 21.4684 67.2213 20.5103 65.8483 19.8339C66.0129 19.3331 66.1032 18.799 66.1032 18.2438C66.1032 15.4306 63.8147 13.1421 61.0015 13.1421C58.1883 13.1421 55.8996 15.4306 55.8996 18.2438C55.8996 18.799 55.9899 19.3331 56.1546 19.8339C54.7815 20.5103 53.5617 21.4684 52.5783 22.6395C52.2778 21.7486 52.1123 20.7962 52.1123 19.8052C52.1123 14.9036 56.1 10.916 61.0015 10.916ZM63.9939 18.2438C63.9939 19.8939 62.6514 21.2363 61.0015 21.2363C59.3514 21.2363 58.009 19.8939 58.009 18.2438C58.009 16.5939 59.3514 15.2515 61.0015 15.2515C62.6514 15.2515 63.9939 16.5939 63.9939 18.2438ZM61.0015 28.6942C57.9315 28.6942 55.2204 27.1297 53.6226 24.7563C54.5209 23.4198 55.7671 22.3474 57.218 21.6626C58.1523 22.6956 59.5023 23.3459 61.0015 23.3459C62.5007 23.3459 63.8507 22.6956 64.785 21.6627C66.2358 22.3476 67.4819 23.42 68.3802 24.7565C66.7824 27.1297 64.0715 28.6942 61.0015 28.6942Z" fill="#2D75B4"/>
<path id="Vector_5" d="M25.1504 34.4463C25.733 34.4463 26.2051 33.9742 26.2051 33.3916V32.5287L30.2815 36.6052C30.4875 36.811 30.7575 36.914 31.0274 36.914C31.2972 36.914 31.5672 36.811 31.7733 36.6052C32.1852 36.1931 32.1852 35.5254 31.7733 35.1135L27.6968 31.0371H28.5598C29.1425 31.0371 29.6145 30.565 29.6145 29.9824C29.6145 29.3998 29.1425 28.9277 28.5598 28.9277H25.1504C24.5678 28.9277 24.0957 29.3998 24.0957 29.9824V33.3916C24.0957 33.9742 24.5678 34.4463 25.1504 34.4463Z" fill="#2D75B4"/>
<path id="Vector_6" d="M35.9996 34.8543C36.5822 34.8543 37.0543 34.3822 37.0543 33.7996V28.0346L37.6644 28.6447C37.8704 28.8506 38.1404 28.9536 38.4103 28.9536C38.6802 28.9536 38.9502 28.8506 39.1562 28.6447C39.5681 28.2327 39.5681 27.565 39.1562 27.1531L36.7454 24.7424C36.3334 24.3307 35.6657 24.3307 35.2538 24.7424L32.8431 27.1531C32.4312 27.5652 32.4312 28.2329 32.8431 28.6447C33.2551 29.0565 33.9228 29.0565 34.3347 28.6447L34.9449 28.0346V33.7996C34.9449 34.3821 35.417 34.8543 35.9996 34.8543Z" fill="#2D75B4"/>
<path id="Vector_7" d="M43.4403 28.9277C42.8577 28.9277 42.3856 29.3998 42.3856 29.9824C42.3856 30.565 42.8577 31.0371 43.4403 31.0371H44.3033L40.2269 35.1135C39.815 35.5256 39.815 36.1933 40.2269 36.6052C40.4329 36.811 40.7029 36.914 40.9728 36.914C41.2426 36.914 41.5126 36.811 41.7186 36.6052L45.7951 32.5287V33.3916C45.7951 33.9742 46.2672 34.4463 46.8498 34.4463C47.4324 34.4463 47.9045 33.9742 47.9045 33.3916V29.9824C47.9045 29.3998 47.4324 28.9277 46.8498 28.9277H43.4403Z" fill="#2D75B4"/>
</g>
</g>
</svg>
