<svg width="72" height="72" viewBox="0 0 72 72" fill="none" xmlns="http://www.w3.org/2000/svg">
<g id="fi_3067899" clip-path="url(#clip0_3104_1956)">
<path id="Vector" d="M61.8806 0H58.785C57.4242 0 57.4242 2.10968 58.785 2.10968H61.8806C65.0774 2.10968 67.6784 4.70121 67.6784 7.88655V32.2986C67.6784 35.4841 65.0776 38.0756 61.8806 38.0756H58.3696C58.138 38.0756 57.9128 38.1519 57.7287 38.2927L51.2863 43.2206V39.1305C51.2863 38.5479 50.8142 38.0756 50.2315 38.0756H37.3934C36.342 38.0756 35.3316 37.7982 34.4405 37.2706V25.4294C34.4405 23.2114 33.3108 21.2518 31.5954 20.0925V7.88655C31.5954 4.70121 34.1963 2.10968 37.3934 2.10968H52.1746C53.5352 2.10968 53.5352 0 52.1746 0H37.3934C33.0331 0 29.4857 3.53793 29.4857 7.88655V19.1653C29.0027 19.05 28.4995 18.9871 27.9816 18.9871H8.67161C5.11033 18.9871 2.21289 21.8771 2.21289 25.4294V27.7071C2.21289 29.0677 4.32257 29.0677 4.32257 27.7071V25.4294C4.32257 23.0404 6.27346 21.0968 8.67161 21.0968H27.9818C30.3799 21.0968 32.331 23.0404 32.331 25.4294V37.6906C32.3183 37.7837 32.3189 37.8775 32.331 37.9699V44.6804C32.331 44.813 32.3229 44.945 32.311 45.0764H30.1356C27.7386 45.0764 25.7403 46.8065 25.326 49.0803C25.2301 49.1164 25.1379 49.1669 25.0526 49.2328L20.3346 52.8756V50.0678C20.3346 49.4852 19.8625 49.0129 19.2798 49.0129H8.67161C6.27346 49.0129 4.32257 47.0694 4.32257 44.6804V34.0362C4.32257 32.6756 2.21289 32.6756 2.21289 34.0362V44.6805C2.21289 48.2328 5.11033 51.1228 8.67161 51.1228H18.2251V55.0229C18.2251 55.869 19.2525 56.3766 19.9246 55.8579L25.246 51.7492V63.6161C25.246 66.306 27.4396 68.4941 30.1358 68.4941H36.609V70.9556C36.609 71.8014 37.6364 72.3096 38.3084 71.7906L42.5778 68.4941H43.8391C46.5353 68.4941 48.7289 66.3058 48.7289 63.6161V61.7433C48.7289 60.3827 46.6193 60.3827 46.6193 61.7433V63.6161C46.6193 65.1427 45.3722 66.3845 43.8391 66.3845H42.2179C41.9846 66.3845 41.7579 66.4618 41.5733 66.6043L38.7185 68.8083V67.4392C38.7185 66.8566 38.2464 66.3843 37.6637 66.3843H30.1356C28.6027 66.3843 27.3555 65.1424 27.3555 63.616V49.9546C27.3555 48.428 28.6026 47.1862 30.1356 47.1862H43.8391C45.372 47.1862 46.6193 48.4281 46.6193 49.9546V55.133C46.6193 56.4936 48.7289 56.4936 48.7289 55.133V49.9547C48.7289 47.2649 46.5353 45.0767 43.8391 45.0767H34.4286C34.4366 44.9449 34.4406 39.6171 34.4406 39.6171C35.3707 39.9911 36.3679 40.1855 37.3935 40.1855H49.1768V45.3556C49.1768 46.1996 50.1998 46.7078 50.8725 46.1934L58.727 40.1855H61.8807C66.2408 40.1855 69.7882 36.6475 69.7882 32.2988V7.88655C69.7881 3.53793 66.2407 0 61.8806 0Z" fill="#2D75B4"/>
<path id="Vector_2" d="M52.2726 7.79213C50.9332 7.45022 49.5684 8.50844 49.5684 9.89239C49.5684 11.4045 49.0173 12.8617 48.0175 13.9949L45.1112 17.2836C44.923 16.9948 44.5978 16.8037 44.2275 16.8037H38.5539C37.9712 16.8037 37.499 17.276 37.499 17.8585V30.6242C37.499 31.2068 37.9712 31.6791 38.5539 31.6791H44.2275C44.6538 31.6791 45.02 31.4258 45.1864 31.062C46.3351 31.7639 47.6661 32.1433 49.0204 32.1433H59.0473C60.5795 32.1433 61.8435 30.8138 61.7716 29.2856C61.7397 28.6088 61.7746 19.5213 61.7746 19.3194C61.7746 17.8156 60.5511 16.592 59.0504 16.592L53.8362 16.5764L54.0521 16.0652C55.0388 13.7286 54.8763 11.0192 53.6181 8.81716C53.3244 8.30268 52.8464 7.93883 52.2726 7.79213C52.8464 7.93883 51.6984 7.64558 52.2726 7.79213C52.8464 7.93883 50.9333 7.45022 52.2726 7.79213ZM43.1727 29.5694H39.6087V18.9134H43.1727V29.5694ZM59.0473 18.7016C59.3879 18.7016 59.665 18.9786 59.665 19.3193C59.665 19.52 59.6629 20.0647 59.6601 20.8032C59.6445 24.8808 59.6341 28.7427 59.6642 29.3846C59.6751 29.6162 59.5625 29.7706 59.4944 29.8421C59.3765 29.9656 59.2178 30.0335 59.0473 30.0335H49.0204C47.8252 30.0335 46.6555 29.6193 45.7264 28.8673L45.2823 28.5078V20.2757L49.5989 15.3912C50.9397 13.8717 51.678 11.9188 51.678 9.89225C51.678 9.83262 51.7595 9.81715 51.7865 9.86356C52.7206 11.4983 52.841 13.5096 52.1087 15.2442L51.2762 17.2159C51.1388 17.5412 51.1734 17.9135 51.3679 18.208C51.5627 18.5026 51.8918 18.6801 52.2447 18.6812L59.0473 18.7016Z" fill="#2D75B4"/>
<path id="Vector_3" d="M11.2443 36.638C10.6616 36.638 10.1895 37.1102 10.1895 37.6928C10.1895 38.2754 10.6616 38.7476 11.2443 38.7476H14.3537L13.7728 42.2608C13.6777 42.8355 14.0668 43.3785 14.6414 43.4736C14.6998 43.4833 14.7576 43.488 14.8147 43.488C15.3216 43.488 15.7687 43.1216 15.8542 42.605L16.4919 38.7478H19.0366L18.4557 42.261C18.3607 42.8356 18.7497 43.3787 19.3244 43.4738C19.3827 43.4835 19.4405 43.4881 19.4976 43.4881C20.0045 43.4881 20.4516 43.1217 20.5372 42.6051L21.1748 38.7479H25.4073C25.99 38.7479 26.4621 38.2756 26.4621 37.6931C26.4621 37.1105 25.99 36.6382 25.4073 36.6382H21.5236L21.9491 34.065H25.4073C25.99 34.065 26.4621 33.5927 26.4621 33.0102C26.4621 32.4276 25.99 31.9553 25.4073 31.9553H22.2979L22.8788 28.4421C22.9738 27.8675 22.5848 27.3244 22.0101 27.2294C21.4348 27.134 20.8924 27.5233 20.7973 28.098L20.1597 31.9552H17.615L18.1958 28.442C18.2909 27.8673 17.9019 27.3243 17.3272 27.2292C16.7511 27.1339 16.2096 27.5232 16.1144 28.0978L15.4767 31.955H11.2443C10.6616 31.955 10.1895 32.4273 10.1895 33.0099C10.1895 33.5924 10.6616 34.0647 11.2443 34.0647H15.1279L14.7025 36.638H11.2443ZM17.2663 34.0647H19.811L19.3855 36.638H16.8409L17.2663 34.0647Z" fill="#2D75B4"/>
<path id="Vector_4" d="M36.974 52.6275C36.1222 51.9263 34.989 51.6496 33.8523 51.926C32.3957 52.2797 30.9258 53.6414 30.9258 55.886C30.9258 57.283 31.4356 58.4957 32.4844 59.5933C33.3411 60.4899 34.5774 61.3425 36.4927 62.3579C36.6472 62.4399 36.817 62.4809 36.9868 62.4809C37.1565 62.4809 37.3263 62.4399 37.4808 62.3579C40.8223 60.5865 43.0476 58.8081 43.0476 55.886C43.0476 53.6292 41.5255 52.2814 40.017 51.9468C38.8836 51.6953 37.7849 51.9623 36.974 52.6275ZM40.9378 55.886C40.9378 57.4621 39.8923 58.6276 36.9866 60.2272C34.0809 58.6275 33.0353 57.4619 33.0353 55.886C33.0353 54.7133 33.7144 54.1305 34.3499 53.976C34.4671 53.9476 34.5925 53.9316 34.7215 53.9316C35.1996 53.9316 35.7252 54.1524 36.0492 54.7807C36.2339 55.1382 36.6072 55.3598 37.0076 55.3515C37.4097 55.3435 37.7724 55.1075 37.9424 54.743C38.2838 54.0113 39.0016 53.8827 39.5597 54.0066C40.2261 54.1541 40.9378 54.7255 40.9378 55.886Z" fill="#2D75B4"/>
</g>
<defs>
<clipPath id="clip0_3104_1956">
<rect width="72" height="72" fill="white"/>
</clipPath>
</defs>
</svg>
